<svg width="673" height="480" viewBox="0 0 673 480" fill="none" xmlns="http://www.w3.org/2000/svg"><g clip-path="url(#clip0_1010_2)"><path d="M445.875 466.996s.939 4.167.939 4.205c.225 1.276-1.202 2.59-2.367 2.741-4.695.675-15.778-3.154-11.42-5.219.413-.188 3.419-2.065 4.057-3.417 1.09-2.44 8.828-25.755 8.828-25.755l11.12 5.106-11.157 22.339z" fill="#F7A491"/><path d="M447.716 475.443s.262-7.434-1.616-8.485c-1.352-.751-3.982 1.502-6.161 1.202-2.141-.263-5.86-2.028-5.86-2.028-8.49 3.229-21.451 8.598-18.783 9.311 7.175 2.065 32.42 0 32.42 0z" fill="#05173E"/><path d="M471.232 325.79c1.766-1.164 28.1-18.059 29.227-19.073l20.06-27.783 15.29 2.59s-23.028 34.091-24.005 35.443c-.977 1.314-30.091 10.925-34.186 13.516 0 0-1.84 3.004-2.855 3.492-1.84.938-5.334.262-8.189-.113a9.451 9.451 0 01-1.691-.375c-1.502-.489-2.141-2.291-1.239-3.605l1.878-2.741 5.71-1.351z" fill="#F7A491"/><path d="M509.888 292.037s5.41 3.604 7.438 4.581c2.48 1.201 10.519 4.242 10.519 4.242s4.17-12.653 5.823-18.81c1.991-7.434 6.311-17.759 5.334-17.796-2.667-.075-7.1 1.877-9.917 4.055-10.256 8.034-19.197 23.728-19.197 23.728z" fill="#F7971E"/><path d="M589.567 444.506s11.608 5.182 11.645 5.182c1.127.675 4.095 2.102 4.996 2.853 3.381 2.816-15.59 12.427-14.237 7.847.113-.413-.15-2.253-1.202-3.342-1.653-1.652-6.988-4.392-6.988-4.392l5.786-8.148z" fill="#F7A491"/><path d="M528.897 327.892s-14.764 11.038-14.952 11.189c-20.661 16.069-50.038 45.542-52.217 49.146-5.259 8.785-20.662 63.676-20.662 63.676l11.683 4.43 27.386-58.645 64.577-43.965-15.815-25.831z" fill="#016589"/><path d="M513.081 329.694l32.796 14.906.3 14.154-1.089 56.13s16.83 7.396 21.112 9.686c6.649 3.529 25.358 16.069 25.358 16.069l-6.65 13.592s-58.829-26.282-60.745-28.159c-2.742-2.703-14.162-81.622-14.162-81.622l3.08-14.756z" fill="#65B3C6"/><path d="M560.565 267.22s5.072 2.102 7.025 4.092c5.522 5.707.301 17.196-1.427 21.739-8.115 21.4-16.342 32.739-17.882 40.924-1.54 8.147-1.841 21.025-1.841 21.025s-29.64-5.219-40.046-12.841c0 0 5.372-18.734 6.687-23.503 1.277-4.768 10.218-35.892 15.252-43.927 1.428-2.253 4.17-7.434 9.73-10.1 2.517-1.201 7.363-1.501 9.204-1.426 5.898.225 13.298 4.017 13.298 4.017z" fill="#FFD800"/><path d="M558.687 252.202l-1.54 13.816s-9.805 8.185-13.9 5.632c-3.456-2.14.676-9.874.676-9.874s4.057-6.983 4.471-10.888c.413-3.905 10.293 1.314 10.293 1.314z" fill="#F7A491"/><path d="M548.394 250.888c.413-3.905 10.255 1.314 10.255 1.314l-.112 1.164c-.489.638-1.052 1.201-1.653 1.539-3.006 1.878-7.1 2.403-10.331 1.652.902-1.952 1.69-4.055 1.841-5.669z" fill="#F48C7F"/><path d="M561.617 231.778c.301-.113 2.104 15.693-2.104 19.936-4.207 4.242-12.246 5.481-15.026 1.99-3.081-3.867-2.517-20.8 3.982-25.08 6.461-4.318 13.148 3.154 13.148 3.154z" fill="#F7A491"/><path d="M551.098 220.214c4.922 1.089 8.04 4.13 9.167 5.444 2.216.3 5.259 1.614 8.264 6.795 3.719 6.383.676 13.254-3.907 16.558-4.583 3.304-6.461 7.621-6.461 7.621l.413-4.392c-.488-1.54.15-1.239.376-2.854.113-.976.375-2.027.789-2.853 1.127-2.253-2.217-3.867-3.156-5.782-.714-1.464-.638-4.806-1.765-7.246l-1.353-1.878s-3.118-2.515-6.273-1.914c-3.118.6-2.405-10.888 3.906-9.499z" fill="#05173E"/><path d="M556.696 243.567c-.075 1.915.789 3.529 1.916 3.566 1.127.038 2.103-1.464 2.179-3.379.075-1.914-.789-3.529-1.916-3.566-1.127-.075-2.104 1.464-2.179 3.379z" fill="#F7A491"/><path d="M587.838 470.975c.864-2.515 2.48-6.532 4.133-10.662 0 0 4.019-2.628 5.823-4.168 1.803-1.577.563-6.044 2.141-6.983 1.841-1.089 7.739 3.567 7.663 3.792-7.062 15.881-11.983 20.424-14.425 22.339-1.052.826-6.011.488-8.64.376-1.24-.038-1.841-1.615-.94-2.441 1.127-1.014 2.855-1.689 4.245-2.253zm.752-139.253H483.892a2.3 2.3 0 01-2.291-2.29 2.3 2.3 0 012.291-2.291H588.59a2.3 2.3 0 012.291 2.291c-.037 1.239-1.051 2.29-2.291 2.29z" fill="#05173E"/><path d="M278.629 325.865c.037.375-4.17 2.253-4.32 1.652-.113-.601-.075-1.539.601-1.727.676-.188.864-.488.864-.488s-3.006.3-4.057-.263c-1.015-.563-1.916-.601-1.916-.601l-4.959-3.041s1.991-1.089 3.494-1.051c1.127 0 5.221 1.089 5.973 1.427.3.15 1.84 1.051 2.78 1.764 1.239.901 1.54 2.103 1.54 2.328z" fill="#F7A491"/><path d="M660.004 440.564h-.113c-.526-.037-12.773-.638-18.821-8.447-3.043-3.943-3.982-8.898-2.742-14.755 1.465-7.021 6.236-13.517 10.856-19.787 8.979-12.202 17.431-23.728 4.922-39.684-10.181-12.953-26.785-19.411-38.919-22.527-13.261-3.417-24.193-3.68-24.306-3.717H427.505a2.3 2.3 0 01-2.292-2.29 2.301 2.301 0 012.292-2.291h163.527c.676 0 11.683.338 25.282 3.83 8.114 2.102 15.477 4.881 21.864 8.297 8.076 4.318 14.65 9.649 19.497 15.844 14.65 18.66 4.282 32.739-4.847 45.167-4.508 6.157-8.79 11.976-10.067 18.021-.94 4.468-.301 8.185 1.878 11.001 4.771 6.157 15.327 6.683 15.44 6.683 1.239.037 2.216 1.126 2.179 2.365-.038 1.352-1.052 2.29-2.254 2.29zM30.39 390.667c-1.353 0-2.78-.075-4.283-.188a2.323 2.323 0 01-2.104-2.44 2.323 2.323 0 012.442-2.102c17.882 1.389 22.54-5.67 28.889-22.077 5.785-14.943-4.809-51.324-4.922-51.699a2.283 2.283 0 011.165-2.666l50.114-25.042a2.43 2.43 0 012.216.075l65.629 39.798 57.289 1.163 89.633.864h.038l19.685.413c1.239.038 2.254 1.051 2.216 2.328a2.285 2.285 0 01-2.291 2.215h-.038l-19.685-.413-89.671-.864h-.038l-57.927-1.201c-.413 0-.789-.113-1.127-.338l-64.953-39.422-47.296 23.653c2.18 7.847 9.88 38.296 4.283 52.788-5.823 15.056-11.195 25.155-29.264 25.155z" fill="#016589"/><path d="M170.592 239.249a2.779 2.779 0 002.677 2.877 2.778 2.778 0 10.202-5.552 2.778 2.778 0 00-2.879 2.675z" fill="#07345A"/><path d="M195.269 329.432c-6.048-.864-37.078-3.98-38.356-6.496-1.465-2.853 4.771-32.739 4.847-32.513l14.876 7.021s-6.161 16.256-4.884 17.983c.526.676 24.193 6.27 27.273 7.397 0 0 6.349-1.577 8.34-.789 1.991.789 1.691 2.065 1.691 2.065l-1.766.075c-1.052.038-1.69 1.089-1.24 1.99.677 1.314 2.217 2.854 5.748 2.703 0 0-1.164 2.253-2.104 2.441-.976.188-.563.375-1.653.788-1.089.413-3.456.413-3.456.413s-2.066.714-2.892.789c-.827.075-5.523-3.379-5.523-3.379l-.901-.488z" fill="#F7A491"/><path d="M158.153 298.382s3.682 3.154 8.453 5.444c3.456 1.69 8.339 2.441 8.339 2.441s6.499-11.264 9.617-16.295c3.907-6.307-12.509-22.527-12.584-22.489-7.551 3.942-13.825 30.899-13.825 30.899z" fill="#FFF9EE"/><path d="M187.605 442.742s-4.921 14.905-7.475 23.841c-.902 3.154-1.503 5.594-1.503 6.345.075 4.205 20.699-3.342 16.454-5.144-.977-.413-4.02-1.952-4.283-2.177-1.239-1.089 5.523-16.933 5.523-16.933l-8.716-5.932z" fill="#F7A491"/><path d="M203.646 469.699l-12.284-3.942s-4.207 2.29-11.27.863c0 0-1.991 2.591-2.404 6.158-.113 1.013.413 2.966 1.427 3.116 2.668.375 8.49.038 15.44.225 0 0 7.138.751 13.411-1.314 6.311-2.102-4.32-5.106-4.32-5.106z" fill="#05173E"/><path d="M287.87 442.854s16.454 20.124 16.529 23.015c.076 4.205 19.535 3.042 15.29 1.239-.977-.413-4.02-1.952-4.283-2.177-1.239-1.089-14.237-26.469-14.237-26.469l-13.299 4.392z" fill="#F7A491"/><path d="M328.292 469.061l-12.51-3.905s-4.32 2.215-11.345.788c0 0-1.841 2.967-2.141 6.796-.038.676-.376 2.628.263 2.741 2.404.375 9.016.225 16.491.375 0 0 10.068.113 16.379-1.952 6.274-2.065-7.137-4.843-7.137-4.843z" fill="#05173E"/><path d="M196.884 339.344l-2.705 10.099.94 4.468s10.368 41.862 9.654 44.753c-.901 3.717-23.516 56.806-23.516 56.806s1.765 2.553 6.311 3.228c3.944.601 6.987.188 6.987.188s31.593-51.549 32.871-57.181c.826-3.641-2.329-66.229-2.329-66.229l-28.213 3.868z" fill="#FF5B51"/><path d="M227.801 328.343s46.508 53.088 49.475 57.181c1.841 2.553 32.007 67.28 32.007 67.28-3.08 1.99-9.241 4.881-13.186 5.894-7.738-9.836-27.686-40.097-29.114-43.439-1.69-3.98-3.832-9.762-5.935-12.502-2.142-2.779-65.967-48.959-65.967-48.959l-.864-4.355 2.066-16.107 31.518-4.993z" fill="#FF7768"/><path d="M185.314 223.668s-5.71-3.867-8.115 2.891c0 0-3.23-.976-4.62 2.328 0 0-5.523-.413-5.072 7.621 0 0-2.78.075-2.442 3.342.338 3.266 2.442 4.993 2.442 4.993s-1.239 1.465.075 4.205c1.127 2.366 3.269 2.29 3.269 2.29s1.465 4.055 3.568 4.919c2.104.863 4.433-.3 4.433-.3s1.165 2.102 3.231 1.464c2.066-.676 4.245-3.267 6.8-2.891 2.554.375 8.49-1.915 8.49-1.915s6.236-4.58 2.592-11.188c0 0 2.892-4.055-1.127-7.284 0 0 .976-6.645-4.433-9.274-5.41-2.628-9.091-1.201-9.091-1.201z" fill="#FF5B51"/><path d="M192.188 257.083l2.367 6.42s4.095 9.086 1.954 11.489c-2.179 2.403-13.487-9.236-13.487-9.236l-2.817-16.933 11.983 8.26z" fill="#F7A491"/><path d="M181.069 254.305c3.381 5.256 9.204 7.659 13.11 8.222l-1.991-5.444-12.021-8.26.902 5.482z" fill="#F48C7F"/><path d="M175.057 225.752c-2.188.483-3.701 2.056-3.379 3.514.323 1.458 2.358 2.248 4.546 1.765 2.188-.483 3.7-2.056 3.378-3.514-.322-1.458-2.357-2.248-4.545-1.765z" fill="#FF5B51"/><path d="M182.459 231.402c4.545-2.778 10.481-.676 12.359 4.205a59.665 59.665 0 012.442 7.847c1.728 7.246-.451 15.131-3.757 15.882-3.306.713-13.449-1.953-16.078-12.202-1.616-6.346.263-12.803 5.034-15.732z" fill="#F7A491"/><path d="M178.306 250.818c1.317-.291 2.098-1.823 1.744-3.423-.353-1.599-1.707-2.661-3.024-2.37-1.317.291-2.098 1.823-1.745 3.423.354 1.6 1.708 2.661 3.025 2.37z" fill="#F7A491"/><path d="M184.788 242.027c-2.893 3.379-7.138 4.468-9.467 2.403-2.329-2.065-1.916-6.495.977-9.874 2.892-3.379 7.137-4.468 9.467-2.403 2.329 2.065 1.915 6.495-.977 9.874z" fill="#FF5B51"/><path d="M181.367 228.986c-1.891 2.471-2.075 5.505-.41 6.778 1.664 1.272 4.546.301 6.437-2.169 1.891-2.471 2.075-5.505.41-6.778-1.664-1.272-4.546-.301-6.437 2.169z" fill="#FF5B51"/><path d="M171.301 267.933c-5.71 5.557-.3 16.783 1.466 21.213 8.339 20.875 19.008 32.138 20.624 40.098 1.577 7.959-.301 20.349-.301 20.349s31.744-5.181 42.525-12.615c0 0-6.762-18.209-8.077-22.865-1.314-4.655-10.556-35.029-15.702-42.838-1.465-2.215-4.283-7.246-10.031-9.874-.45-.226-.976-.489-1.577-.526-3.156-.263-26.898 5.106-28.927 7.058z" fill="#FFF9EE"/><path d="M270.965 323.65c-1.728-1.089-27.724-16.858-28.813-17.796l-19.76-25.906-15.064 2.403s22.69 31.8 23.667 33.076c.939 1.239 25.545 8.974 29.527 11.377 0 0 4.771 4.542 5.372 5.143 1.69 1.69 6.724.601 9.542.413 2.141-.15 4.733-1.877 4.733-1.877s-2.93-1.014-3.794-2.253l-.827-3.229-4.583-1.351z" fill="#F7A491"/><path d="M230.769 288.17s-5.597 3.492-7.663 4.468c-2.555 1.164-10.857 4.13-10.857 4.13s-5.86-11.902-8.415-17.571c-3.118-6.909-4.546-18.322-3.569-18.322 2.743-.075 7.776 2.027 10.707 4.167 10.593 7.81 19.797 23.128 19.797 23.128z" fill="#E6E6E6"/><path d="M73.366 312.837l-2.968 4.318 3.644 9.799 9.467-12.428-10.143-1.689z" fill="#F7A491"/><path d="M71.487 314.264s3.907-5.895 5.973-10.062c1.728-3.53 3.457-7.622 8.378-10.663 3.493-2.14 3.982 15.881 3.982 15.881l-7.25 13.291c-1.503-3.454-7.702-6.495-11.083-8.447z" fill="#FF5B51"/><path d="M69.534 303.864l1.352-2.478s-5.41-.526-6.649-.563c-1.991-.038.526 5.368.526 5.368l-1.615 2.291s.826 20.049 6.085 24.028c5.26 3.98 7.514.977 8.941-2.215 1.277-3.003-7.175-13.553-8.64-26.431z" fill="#F48C7F"/><path d="M143.728 233.092c-3.081-14.568-24.944-11.902-27.987-.751-3.081 11.113-3.456 8.447-23.029 13.403-19.572 4.994-18.97 23.015-18.97 23.015l2.441 5.069 18.67 6.57s42.15.488 42.977-24.029c.3-9.986 8.978-8.71 5.898-23.277z" fill="#05173E"/><path d="M72.727 417.211l6.724 47.57.639 2.478-16.905 1.426s6.8-4.13 6.724-4.881c-.563-6.194-12.584-49.784-12.584-49.784l15.402 3.191z" fill="#F7A491"/><path d="M101.24 279.61c5.259-6.571 1.653-19.448-6.01-22.189-4.621-1.652-8.265-2.065-14.088.938-4.546 2.328-7.363 6.308-7.438 11.376-.075 6.27 3.719 10.588 7.513 14.868.864.976 4.47 1.164 10.18.563 6.049-1.652 5.485-.863 9.843-5.556z" fill="#05173E"/><path d="M101.616 352.184l24.192 22.039s-13.486 9.724-18.557 13.328c-5.072 3.604-31.368 26.206-31.932 27.107-.413.676 1.014 23.241 2.404 35.968-2.93 2.215-9.466 2.666-13.336 2.703-4.433-17.007-8.602-43.589-8.602-46.518-.038-6.119 45.831-54.627 45.831-54.627z" fill="#012968"/><path d="M162.699 458.999c-.827-.901-11.909-7.096-17.844-9.537 2.141-3.153 4.658-5.031 6.161-8.56 4.019 3.004 13.711 8.898 16.04 9.461 5.56 1.277 6.349 2.591 6.349 2.591s-7.025 18.51-8.866 19.711c-1.84 1.164 1.466-10.024-1.84-13.666z" fill="#F7A491"/><path d="M165.817 450.101c.037-1.465 6.574.375 8.077.75 1.69.451 2.742 1.915 2.779 2.141.151.675-8.264 20.762-10.931 24.216-.188.225-.752.638-.864.713-3.682 1.802-3.72-15.393-2.067-17.834 1.503-2.14 2.78-3.454 3.006-9.986z" fill="#05173E"/><path d="M158.604 441.953c-11.12-10.625-24.794-18.847-26.484-20.349.263-4.092 1.089-43.852-.301-54.177-2.104-15.393-11.157-17.045-11.758-25.831 0-.075-.075-1.014.037-1.014l-24.643 5.069s2.93 8.973 4.207 13.253c-.037 0 8.302 65.591 12.209 70.359 1.503 1.615 19.46 13.216 39.821 24.066 0 0 1.765-1.389 3.08-3.303 2.254-3.117 4.433-7.509 3.832-8.073z" fill="#016589"/><path d="M85.424 295.491c-.676.601-2.329 2.253-3.53 2.478-.038 0-2.78 8.635-5.223 18.36-.375.713 6.462 12.765 7.852 15.506 4.433 8.71 13.035 23.765 13.223 23.803 4.433.826 23.63-10.55 24.193-13.103.038-.075-3.982-6.533-6.311-13.704-2.818-8.635-6.987-34.128-6.875-34.954l-3.794-6.045c-2.705.3-16.454 4.956-19.535 7.659z" fill="#FF7768"/><path d="M90.984 284.453s1.54 7.622 2.93 10.325c1.428 2.665-.15 9.574-6.048 12.052-5.898 2.44-1.878-8.373-2.442-11.339-.563-2.966-3.906-11.489-3.906-11.489l9.466.451z" fill="#F7A491"/><path d="M83.133 288.283c-.864-2.366-1.615-4.318-1.615-4.318l9.429.451s.3 1.576.789 3.529c-3.156 2.14-6.199 1.877-8.603.338z" fill="#F48C7F"/><path d="M85.875 263.728s3.757.451 6.349 3.68c2.63 3.229 5.222 13.215-1.728 18.735-6.95 5.519-13.449-.601-14.2-7.134-.752-6.57-.263-15.431 9.58-15.281z" fill="#F7A491"/><path d="M74.53 273.539c-.881.464-.952 2.06-.158 3.564.794 1.504 2.152 2.346 3.032 1.882.881-.464.952-2.06.158-3.564-.794-1.504-2.151-2.347-3.032-1.882z" fill="#F7A491"/><path d="M79.376 464.743c1.39-.413 2.367 6.908 2.48 8.448.15 1.727-1.54 2.14-1.766 2.252-.563.338-21.939.714-26.822.113-.451-.038-1.616-.601-1.69-.864-.752-2.29 12.997-9.874 17.017-9.311 2.592.413 4.545 1.314 10.781-.638zm5.372-201.127s5.748 9.987 9.955 10.512c4.208.526 4.696 5.782 4.696 5.782s-1.352-12.164-5.484-14.53c-4.133-2.403-9.167-1.764-9.167-1.764z" fill="#05173E"/><path d="M96.127 273.772c-1.178-.244-2.427.973-2.79 2.719s.299 3.36 1.477 3.604c1.178.244 2.427-.973 2.79-2.719.362-1.746-.3-3.359-1.477-3.604z" fill="#F7A491"/><path d="M30.39 390.667c-1.353 0-2.78-.075-4.283-.188a2.323 2.323 0 01-2.104-2.44 2.323 2.323 0 012.442-2.102c17.882 1.389 22.54-5.67 28.889-22.077 5.785-14.943-4.809-51.323-4.922-51.699l-.525-1.84 51.841-25.906a2.26 2.26 0 013.043 1.014 2.256 2.256 0 01-1.014 3.041l-48.423 24.217c2.179 7.847 9.88 38.295 4.282 52.788-5.785 15.093-11.157 25.192-29.226 25.192z" fill="#016589"/><path d="M85.725 309.308c-2.742 5.293-9.392 13.103-12.247 16.67-4.583-4.694-9.767-6.27-13.41-9.762-2.03-1.952-.865-4.618-1.203-5.519l-2.141.45c-2.63.451-3.043-2.628-3.043-2.628-5.26-.338-6.8 6.533-5.485 7.396 1.352.864 1.728.451 5.823 3.229 1.427.977 17.13 21.138 20.887 21.438 2.028.151 14.65-12.84 17.656-19.448-1.953-5.106-2.404-8.485-6.837-11.826z" fill="#F7A491"/><path d="M106.424 288.883c2.217 2.366 2.78 6.308 2.592 9.349-.263 4.693-3.343 8.973-6.161 12.765-3.756 5.106-6.611 8.598-11.796 13.929-3.794-3.454-7.025-6.27-11.645-9.348 0 0 10.857-19.373 12.36-21.401 4.132-5.519 9.917-10.287 14.65-5.294z" fill="#FF5B51"/><path d="M69.609 300.56s-.639 5.782-2.104 5.819c-.713 0 .188-4.355-.037-4.43-.677-.225-.226 4.167-1.24 4.505-1.014.338-.526-3.98-.714-3.98-.225 0-.263 3.943-1.24 4.393-.976.451-.413-2.778-.638-3.191-.226-.413-1.014 3.416-1.615 2.853-.602-.525-.301-3.529-.301-3.529s.188-.826.413-1.276c.188-.301 1.127-1.239 2.029-1.54.901-.338 4.808-.6 5.447.376zm473.788 31.838c6.161-.901 37.68-3.792 38.994-6.496 1.465-3.078-7.776-34.541-7.889-34.315l-17.017 7.283s11.119 17.121 9.805 18.96c-.526.751-24.531 6.721-27.687 7.922 0 0-6.424-1.689-8.452-.826-2.029.826-1.728 2.215-1.728 2.215s3.869.526 3.08 2.216c-.676 1.426-2.63 2.478-6.161 2.327 0 0 1.54 2.966 2.48 3.154.976.188.601.376 1.69.826 1.089.451 3.494.451 3.494.451s2.066.788 2.93.826c.826.075 5.597-3.642 5.597-3.642l.864-.901z" fill="#F7A491"/><path d="M578.898 302.85s-1.804 3.004-6.424 5.369c-3.344 1.727-8.903 2.628-8.903 2.628s-5.448-11.676-8.49-16.82c-3.795-6.458 9.391-24.667 12.472-22.902 6.874 3.942 11.345 31.725 11.345 31.725z" fill="#F7971E"/><path d="M465.297 331.872s4.47-3.567 5.785-3.679c1.315-.151 1.352.638 1.277 1.126-.075.488-2.367 1.952-2.367 1.952s3.231-2.478 4.208-2.703c1.014-.188 1.54.451 1.427.901-.112.413-2.366 2.441-2.366 2.441s3.381-3.304 4.32-3.004c.939.338-1.465 4.731-3.606 5.331-2.142.564-9.467-.638-9.88-1.088-.339-.489 1.202-1.277 1.202-1.277zm-2.855-3.116c-.038.413 4.132 2.065 4.282 1.389.15-.676.301-1.277-.413-1.502-.714-.225-.902-.525-.902-.525s2.179-.413 3.231-1.014c1.052-.638 3.869-.713 3.869-.713l2.104-2.441s-2.742-.45-4.282-.45c-1.203 0-2.78.675-3.306.976-.338.15-2.029.901-2.968 1.689-1.277 1.052-1.615 2.366-1.615 2.591z" fill="#F7A491"/><path d="M340.764 334.801l-11.233-2.065v-7.397l11.233-2.29v11.752zm79.04.525l11.232-2.065v-7.396l-11.232-2.328v11.789z" fill="#05173E"/><path d="M393.77 308.294h-20.286v6.307h20.286v-6.307zm3.569 34.241h-25.32v6.307h25.32v-6.307z" fill="#FF7768"/><path d="M376.114 301.311H351.32c-7.213 0-13.036 5.819-13.036 13.028v29.134c0 7.209 5.823 13.028 13.036 13.028h24.794v-55.19zm36.064 0h-27.875v55.19h27.875c7.212 0 13.035-5.819 13.035-13.028v-29.134c0-7.171-5.823-13.028-13.035-13.028z" fill="#FF7768"/><path d="M375.738 359.092h-4.545a2.085 2.085 0 01-2.067-2.065v-57.218c0-1.127.94-2.065 2.067-2.065h4.545c1.127 0 2.066.938 2.066 2.065v57.218a2.06 2.06 0 01-2.066 2.065zm15.177 0h-4.546a2.084 2.084 0 01-2.066-2.065v-57.218c0-1.127.939-2.065 2.066-2.065h4.546c1.127 0 2.066.938 2.066 2.065v57.218a2.06 2.06 0 01-2.066 2.065z" fill="#016589"/><path d="M430.397 271.875l-5.447 9.499-6.724-1.877-5.447 8.748-9.692-1.614.638-3.68 7.213 1.202 5.597-9.011 6.612 1.84 4.02-6.984 3.23 1.877zm-99.889 32.777l-10.443-3.341.45-6.984-9.692-3.491-.45-9.8 3.719-.15.338 7.284 9.992 3.604-.45 6.871 7.663 2.44-1.127 3.567zm.601 58.683l-3.719 10.324-6.95-.713-3.869 9.536-9.805.076-.037-3.717 7.325-.075 3.982-9.837 6.837.713 2.743-7.546 3.493 1.239zm91.925 32.363l-10.669-2.628v-6.983l-9.917-2.816-1.09-9.762 3.682-.413.864 7.246 10.181 2.929.037 6.871 7.814 1.952-.902 3.604zm25.358-18.509l-10.594 2.928-3.419-6.082-10.03 2.403-5.747-7.922 3.005-2.178 4.32 5.895 10.293-2.478 3.419 5.969 7.738-2.14 1.015 3.605z" fill="#65B3C6"/><path d="M638.253 481H11.907C9.766 481 8 479.761 8 478.222c0-1.54 1.728-2.779 3.907-2.779h626.346c2.141 0 3.907 1.239 3.907 2.779-.038 1.539-1.766 2.778-3.907 2.778z" fill="#F5DAA2"/><path d="M495.65 125.676l1.39-10.4-7.776-7.058c-.902-.789-.451-2.29.714-2.478l10.331-1.877 4.282-9.574c.489-1.09 2.029-1.164 2.592-.113l4.997 9.236 10.443 1.126c1.202.113 1.728 1.577.902 2.441l-7.251 7.584 2.142 10.287c.263 1.164-.977 2.103-2.029 1.577l-9.467-4.543-9.091 5.219c-1.052.601-2.329-.225-2.179-1.427z" fill="#FF7768"/><path d="M274.346 174.71l-2.141 5.068-5.597.188-1.991 5.819-6.011-1.614-2.555 6.495-5.71-.826-3.493 5.82 2.216 1.314 2.592-4.356 6.048.864 2.442-6.232 6.124 1.652 2.216-6.421 5.447-.187 1.991-4.693 3.606.638.451-2.553-5.635-.976zm129.342-54.328l4.357 3.342 4.959-2.553 4.583 4.092 4.471-4.355 5.372 4.43 4.62-3.529 5.861 3.417-1.278 2.215-4.395-2.553-4.846 3.717-5.184-4.243-4.546 4.43-5.071-4.505-4.846 2.478-4.02-3.116-2.855 2.328-1.615-1.99 4.433-3.605z" fill="#65B3C6"/><path d="M223.031 136.414c4.245 6.232 2.629 14.68-3.569 18.923-6.236 4.242-14.689 2.628-18.934-3.567-4.245-6.233-2.629-14.68 3.569-18.923 6.198-4.242 14.688-2.628 18.934 3.567z" fill="#FFBF91"/><path d="M206.952 150.005c2.254 3.342 6.8 4.168 10.143 1.915 3.343-2.253 4.17-6.796 1.916-10.137l-12.059 8.222z" fill="#EFEFEF"/><path d="M391.14-1l-.976 4.843-7.927-.75-2.329 6.87-6.011.45.226 3.042 8.039-.563 2.179-6.533 8.265.75 1.502-7.245L391.14-1z" fill="#FFBF91"/><path d="M604.894 142.646l4.883-.037s6.199-4.618 6.424-6.27c.188-1.652-.751-5.181.188-5.594.977-.413 3.005-.751 4.245 1.464.902 1.614.075 7.396.639 7.809.375.263 3.155.301 5.221.301 1.353 0 2.592.788 3.194 1.989.413.826.225 1.84-.489 2.441l-1.089.901.864 1.164a1.971 1.971 0 01-.413 2.741l-.865.675.602.676c.751.901.563 2.253-.376 2.891l-.789.526.113.225c.451.901.188 2.027-.677 2.591l-.788.525-13.036.113c-1.24 0-2.442-.225-3.569-.713l-4.583-.751a1.045 1.045 0 01-.864-1.014l.113-11.601c.075-.601.526-1.052 1.052-1.052z" fill="#016589"/><path d="M255.488 53.853l4.658 1.464s7.326-2.478 8.039-3.98c.714-1.501.864-5.143 1.916-5.256 1.052-.113 3.081.188 3.607 2.703.375 1.803-2.217 7.059-1.804 7.622.263.338 2.931 1.276 4.884 1.915 1.277.413 2.217 1.54 2.442 2.89.15.902-.376 1.803-1.202 2.14l-1.315.526.451 1.39a1.977 1.977 0 01-1.24 2.478l-1.014.375.338.826a2.002 2.002 0 01-1.24 2.666l-.901.263.037.225c.15 1.013-.451 1.99-1.427 2.252l-.902.263-12.434-3.904a9.008 9.008 0 01-3.156-1.765l-4.132-2.103c-.451-.225-.639-.75-.489-1.239l3.682-11c.112-.638.676-.939 1.202-.751z" fill="#FF7768"/><path d="M204.886 57.645l-.113-7.66 6.274-4.43c.714-.488.526-1.614-.301-1.877l-7.325-2.29-2.292-7.321a1.065 1.065 0 00-1.878-.3l-4.433 6.27-7.663-.113c-.865 0-1.39.976-.865 1.69l4.584 6.157-2.48 7.246c-.263.826.526 1.614 1.353 1.351l7.25-2.44 6.161 4.58c.751.526 1.728 0 1.728-.863z" fill="#65B3C6"/><path d="M118.145 136.602l3.418-4.356-1.652-5.293c-.188-.601.413-1.164.976-.939l5.222 1.915 4.546-3.192c.525-.375 1.239.038 1.202.639l-.226 5.556 4.433 3.304a.768.768 0 01-.263 1.352l-5.334 1.502-1.766 5.256c-.188.601-1.014.713-1.352.188l-3.081-4.618-5.56-.075c-.601 0-.939-.714-.563-1.239z" fill="#016589"/><path d="M495.049 31.401l3.419-4.355-1.653-5.294c-.188-.6.413-1.164.977-.938l5.221 1.914 4.546-3.191c.526-.375 1.24.038 1.202.638l-.225 5.557 4.432 3.304a.767.767 0 01-.262 1.351l-5.335 1.502-1.766 5.256c-.187.601-1.014.714-1.352.188l-3.08-4.618-5.56-.075c-.639 0-.977-.713-.564-1.239z" fill="#65B3C6"/><path d="M103.682 34.78l1.916-5.181-3.193-4.543c-.376-.526.037-1.239.638-1.201l5.56.225 3.306-4.43a.768.768 0 011.352.263l1.503 5.33 5.259 1.803c.601.188.714 1.014.188 1.352l-4.621 3.078-.075 5.557c0 .638-.751.976-1.239.6l-4.358-3.416-5.297 1.652c-.601.075-1.165-.488-.939-1.089z" fill="#FF7768"/><path d="M618.23 231.215l-6.65-1.427-1.728 6.082-6.611-1.089-2.367 5.594-5.109-.037v2.591l6.8.037 2.253-5.331 6.875 1.164 1.728-5.97 6.011 1.276-1.202-2.89z" fill="#65B3C6"/><path d="M261.799 215.896l4.508-5.068 4.996 3.867 4.659-4.806 5.259 3.116 4.095-3.041 1.502 2.065-5.447 4.055-4.959-2.929-4.846 4.994-4.921-3.83-4.095 4.618-.751-3.041zm-221.417-2.778l4.809 2.628 4.508-3.341 5.184 3.304 3.681-5.031 6.049 3.491 3.982-4.205 6.349 2.403-.902 2.403-4.771-1.802-4.17 4.468-5.823-3.379-3.756 5.106-5.71-3.642-4.396 3.266-4.47-2.44-2.442 2.741-1.916-1.69 3.794-4.28z" fill="#FFBF91"/><path d="M427.693 52.389l.413 4.13-6.537 1.389-.15 6.082-4.733 1.877.939 2.403 6.311-2.478.15-5.782 6.8-1.464-.601-6.195-2.592.038z" fill="#016589"/><path d="M504.929 183.157l3.456 2.29-3.08 5.97 4.658 3.98-1.578 4.805 2.442.826 2.104-6.495-4.395-3.754 3.193-6.195-5.184-3.454-1.616 2.027z" fill="#FFBF91"/><path d="M473.524 213.568l3.907-1.389 2.93 6.045 5.973-1.314 2.93 4.167 2.104-1.501-3.907-5.557-5.673 1.239-3.043-6.27-5.86 2.102.639 2.478z" fill="#FF7768"/><path d="M97.596 168.965l4.132-.037.827 6.645 6.048.714 1.428 4.843 2.479-.714-1.916-6.495-5.748-.676-.826-6.908-6.236.075-.188 2.553z" fill="#65B3C6"/><path d="M576.869 116.665c10.706 0 19.384-8.673 19.384-19.373 0-10.7-8.678-19.373-19.384-19.373s-19.384 8.674-19.384 19.373c0 10.7 8.678 19.373 19.384 19.373z" fill="#FFE1C8"/><path d="M590.13 97.105l-7.664 3.979-1.051 8.56c-.076.676-.94.977-1.428.489l-6.161-6.045-8.49 1.652a.826.826 0 01-.901-1.202l3.869-7.734-4.17-7.546c-.338-.601.188-1.352.864-1.24l8.528 1.277 5.898-6.307c.488-.526 1.314-.263 1.427.45l1.428 8.523 7.813 3.642a.828.828 0 01.038 1.502z" fill="#FFBF91"/><path d="M330.921 95.94l-6.085 4.093c-.677.451-.489 1.539.263 1.84l7.1 2.891 2.216 7.734c.225.826 1.277 1.089 1.728.413l4.32-6.12 7.438.676c.827.075 1.278-.864.789-1.577l-4.47-6.683 2.404-7.284c.263-.788-.451-1.614-1.24-1.389l-7.062 1.99-5.973-5.181c-.639-.563-1.578-.15-1.54.713l.112 7.885z" fill="#016589"/></g><defs><clipPath id="clip0_1010_2"><path fill="#fff" d="M0 0h672.531v480H0z"/></clipPath></defs></svg>