<svg width="300" height="168" viewBox="0 0 300 168" fill="none" xmlns="http://www.w3.org/2000/svg"><rect width="300" height="168" rx="20" fill="#fff"/><path d="M69.28 80.8c.107.427.16.747.16.96 0 .693-.24 1.253-.72 1.68a2.45 2.45 0 01-1.68.64 2.66 2.66 0 01-1.44-.4 3.341 3.341 0 01-.88-1.2l-6-14.64h-26L26.8 82.48c-.427 1.067-1.147 1.6-2.16 1.6-.747 0-1.307-.187-1.68-.56-.373-.373-.587-.88-.64-1.52v-.24c0-.32.027-.56.08-.72l21.12-51.68c.427-1.067 1.227-1.6 2.4-1.6.533 0 .987.16 1.36.48.427.267.747.64.96 1.12L69.28 80.8zM56.8 63.12L45.6 35.76 34.56 63.12H56.8zm56.079-20c.694 0 1.254.24 1.68.72.48.48.72 1.067.72 1.76v36c0 .693-.24 1.28-.72 1.76-.426.427-.986.64-1.68.64-.693 0-1.28-.213-1.76-.64-.426-.48-.64-1.067-.64-1.76v-5.36c-1.333 2.4-3.333 4.427-6 6.08-2.666 1.653-5.573 2.48-8.72 2.48-3.573 0-6.8-.933-9.68-2.8-2.826-1.867-5.066-4.427-6.72-7.68-1.6-3.253-2.4-6.907-2.4-10.96 0-4.053.827-7.68 2.48-10.88 1.654-3.253 3.894-5.787 6.72-7.6 2.88-1.813 6.054-2.72 9.52-2.72 3.2 0 6.134.773 8.8 2.32 2.667 1.547 4.667 3.573 6 6.08V45.6c0-.693.214-1.28.64-1.76.48-.48 1.067-.72 1.76-.72zm-16.64 37.2c2.774 0 5.254-.72 7.44-2.16 2.24-1.493 3.974-3.52 5.2-6.08 1.28-2.613 1.92-5.52 1.92-8.72 0-3.093-.64-5.92-1.92-8.48-1.226-2.56-2.96-4.56-5.2-6-2.186-1.493-4.666-2.24-7.44-2.24-2.773 0-5.28.72-7.52 2.16-2.186 1.44-3.92 3.44-5.2 6-1.226 2.507-1.84 5.36-1.84 8.56s.614 6.107 1.84 8.72c1.227 2.56 2.934 4.587 5.12 6.08 2.24 1.44 4.774 2.16 7.6 2.16z" fill="#4D4D4D"/><path d="M52.172 139.352c.308 0 .574.098.798.294.224.224.336.504.336.84 0 .476-.252.938-.756 1.386-.476.448-1.12.854-1.932 1.218-.784.392-1.624.686-2.52.882a9.922 9.922 0 01-2.478.336c-1.652 0-3.038-.182-4.158-.546-1.12-.364-2.1-.784-2.94-1.26a24.096 24.096 0 00-2.562-1.26c-.868-.364-1.904-.546-3.108-.546-.504 0-.952.084-1.344.252-.364.168-.714.322-1.05.462a2.071 2.071 0 01-1.008.252c-.336 0-.63-.126-.882-.378a1.341 1.341 0 01-.336-.924c0-.504.238-.854.714-1.05l7.224-2.604 3.864.126-6.678 2.268.546-.588c1.176 0 2.226.168 3.15.504.924.336 1.806.728 2.646 1.176.868.476 1.778.882 2.73 1.218.952.364 2.044.546 3.276.546 1.092 0 1.988-.168 2.688-.504a18.032 18.032 0 001.764-.84c.42-.252.77-.532 1.05-.84.308-.28.63-.42.966-.42zM50.156 122.3c0 2.212-.35 4.242-1.05 6.09-.672 1.82-1.638 3.416-2.898 4.788a13.443 13.443 0 01-4.494 3.15c-1.708.728-3.584 1.092-5.628 1.092s-3.934-.364-5.67-1.092a13.558 13.558 0 01-4.452-3.15c-1.26-1.372-2.24-2.968-2.94-4.788-.672-1.848-1.008-3.878-1.008-6.09 0-2.212.336-4.228 1.008-6.048.7-1.848 1.68-3.444 2.94-4.788a12.785 12.785 0 014.452-3.15c1.736-.756 3.626-1.134 5.67-1.134s3.92.378 5.628 1.134a12.69 12.69 0 014.494 3.15c1.26 1.344 2.226 2.94 2.898 4.788.7 1.82 1.05 3.836 1.05 6.048zm-2.688 0c0-2.492-.49-4.676-1.47-6.552-.952-1.904-2.282-3.388-3.99-4.452-1.708-1.064-3.682-1.596-5.922-1.596-2.212 0-4.186.532-5.922 1.596-1.708 1.064-3.052 2.548-4.032 4.452-.952 1.876-1.428 4.06-1.428 6.552s.476 4.69 1.428 6.594c.98 1.876 2.324 3.346 4.032 4.41 1.736 1.064 3.71 1.596 5.922 1.596 2.24 0 4.214-.532 5.922-1.596 1.708-1.064 3.038-2.534 3.99-4.41.98-1.904 1.47-4.102 1.47-6.594zm25.72-6.636c.364 0 .658.126.882.378.252.252.378.546.378.882v11.844c0 2.772-.784 4.886-2.352 6.342-1.568 1.456-3.682 2.184-6.342 2.184-2.632 0-4.732-.728-6.3-2.184-1.54-1.456-2.31-3.57-2.31-6.342v-11.844c0-.336.112-.63.336-.882.252-.252.56-.378.924-.378s.658.126.882.378c.252.252.378.546.378.882v11.844c0 2.016.532 3.556 1.596 4.62 1.092 1.036 2.59 1.554 4.494 1.554 1.932 0 3.444-.518 4.536-1.554 1.092-1.064 1.638-2.604 1.638-4.62v-11.844c0-.336.112-.63.336-.882.224-.252.532-.378.924-.378zm11.564 20.076c0 .336-.126.63-.377.882a1.209 1.209 0 01-.882.378c-.364 0-.672-.126-.924-.378a1.286 1.286 0 01-.337-.882v-19.32c0-.336.112-.63.337-.882.251-.252.56-.378.924-.378s.657.126.882.378c.251.252.377.546.377.882v19.32zm-1.26-23.394c-.588 0-1.035-.126-1.344-.378-.28-.28-.42-.672-.42-1.176v-.42c0-.504.154-.882.463-1.134.335-.28.784-.42 1.343-.42.532 0 .938.14 1.218.42.309.252.463.63.463 1.134v.42c0 .504-.154.896-.463 1.176-.28.252-.7.378-1.26.378zm18.517 2.688c1.344 0 2.576.154 3.696.462 1.12.28 2.016.672 2.688 1.176.7.504 1.05 1.05 1.05 1.638 0 .28-.098.56-.294.84a.957.957 0 01-.798.378c-.336 0-.616-.084-.84-.252a11.312 11.312 0 01-.63-.588c-.196-.224-.49-.434-.882-.63-.364-.168-.882-.322-1.554-.462s-1.442-.21-2.31-.21c-1.568 0-2.982.392-4.242 1.176-1.26.784-2.254 1.848-2.982 3.192-.728 1.316-1.092 2.8-1.092 4.452 0 1.68.35 3.192 1.05 4.536.7 1.344 1.666 2.408 2.898 3.192 1.232.756 2.674 1.134 4.326 1.134 1.12 0 1.988-.098 2.604-.294a8.551 8.551 0 001.596-.672c.532-.308.91-.602 1.134-.882.252-.308.574-.462.966-.462.364 0 .63.112.798.336.196.196.294.462.294.798 0 .448-.336.952-1.008 1.512-.644.532-1.54 1.008-2.688 1.428-1.148.392-2.464.588-3.948.588-2.1 0-3.948-.49-5.544-1.47-1.568-.98-2.8-2.31-3.696-3.99-.868-1.708-1.302-3.626-1.302-5.754 0-2.044.448-3.906 1.344-5.586a10.568 10.568 0 013.738-4.032c1.624-1.036 3.5-1.554 5.628-1.554zM117.069 137c-.364 0-.672-.126-.924-.378a1.286 1.286 0 01-.336-.882v-28.56c0-.336.112-.63.336-.882.252-.252.56-.378.924-.378s.658.126.882.378c.252.252.378.546.378.882v28.56c0 .336-.126.63-.378.882-.224.252-.518.378-.882.378zm14.28-21.546c.308 0 .588.14.84.42.252.252.378.532.378.84 0 .364-.154.686-.462.966l-14.112 12.012-.126-2.982 12.6-10.836c.252-.28.546-.42.882-.42zm.336 21.546c-.364 0-.672-.154-.924-.462l-9.576-10.164 1.89-1.722 9.492 10.122c.252.28.378.602.378.966 0 .392-.154.7-.462.924-.308.224-.574.336-.798.336zm6.186-3.402c-.224-.336-.336-.658-.336-.966.028-.336.21-.602.546-.798a.962.962 0 01.756-.252c.308.028.588.168.84.42a9.307 9.307 0 002.73 2.394c1.092.588 2.38.882 3.864.882a7.26 7.26 0 002.31-.378c.784-.28 1.428-.686 1.932-1.218.504-.56.756-1.26.756-2.1 0-.868-.252-1.568-.756-2.1s-1.162-.952-1.974-1.26a20.46 20.46 0 00-2.52-.798 40.055 40.055 0 01-2.772-.84 11.285 11.285 0 01-2.394-1.218 6.284 6.284 0 01-1.638-1.806c-.42-.7-.63-1.554-.63-2.562 0-1.176.322-2.212.966-3.108.644-.896 1.512-1.596 2.604-2.1 1.12-.504 2.38-.756 3.78-.756.7 0 1.456.098 2.268.294.812.168 1.61.462 2.394.882s1.484.994 2.1 1.722c.252.252.378.546.378.882 0 .308-.14.588-.42.84-.224.168-.49.252-.798.252a.915.915 0 01-.714-.336 6.632 6.632 0 00-2.394-1.722 7.556 7.556 0 00-2.982-.588c-.812 0-1.582.14-2.31.42a4.26 4.26 0 00-1.764 1.176c-.476.532-.714 1.232-.714 2.1.056.812.336 1.47.84 1.974.532.504 1.218.924 2.058 1.26.868.336 1.834.644 2.898.924.896.224 1.75.49 2.562.798.84.308 1.568.7 2.184 1.176a4.718 4.718 0 011.512 1.722c.392.7.588 1.582.588 2.646 0 1.232-.35 2.296-1.05 3.192-.672.896-1.582 1.582-2.73 2.058-1.148.476-2.422.714-3.822.714a11.48 11.48 0 01-4.41-.882c-1.4-.588-2.646-1.568-3.738-2.94zm40.091-18.06c.364 0 .658.126.882.378.252.252.378.56.378.924v18.9c0 .336-.126.63-.378.882a1.209 1.209 0 01-.882.378c-.364 0-.672-.126-.924-.378a1.286 1.286 0 01-.336-.882v-4.998l.714-.336c0 .784-.224 1.582-.672 2.394-.42.812-1.008 1.568-1.764 2.268-.756.7-1.652 1.274-2.688 1.722-1.008.42-2.1.63-3.276.63-1.904 0-3.612-.49-5.124-1.47-1.484-.98-2.66-2.324-3.528-4.032-.84-1.708-1.26-3.626-1.26-5.754 0-2.184.434-4.102 1.302-5.754.868-1.68 2.044-2.996 3.528-3.948s3.164-1.428 5.04-1.428c1.204 0 2.324.21 3.36.63a8.745 8.745 0 012.772 1.722 7.595 7.595 0 011.806 2.52c.448.924.672 1.89.672 2.898l-.882-.63v-5.334c0-.364.112-.672.336-.924.252-.252.56-.378.924-.378zm-8.736 19.53c1.484 0 2.8-.378 3.948-1.134 1.148-.784 2.044-1.848 2.688-3.192.672-1.372 1.008-2.898 1.008-4.578 0-1.652-.336-3.136-1.008-4.452-.644-1.316-1.54-2.366-2.688-3.15-1.148-.784-2.464-1.176-3.948-1.176-1.456 0-2.772.378-3.948 1.134-1.148.756-2.058 1.792-2.73 3.108-.644 1.316-.966 2.828-.966 4.536 0 1.68.322 3.206.966 4.578.672 1.344 1.582 2.408 2.73 3.192 1.148.756 2.464 1.134 3.948 1.134zm27.991-20.034c1.848 0 3.318.378 4.41 1.134 1.12.728 1.918 1.736 2.394 3.024.504 1.26.756 2.66.756 4.2v12.348c0 .336-.126.63-.378.882a1.209 1.209 0 01-.882.378c-.392 0-.7-.126-.924-.378a1.286 1.286 0 01-.336-.882v-12.222c0-1.12-.182-2.142-.546-3.066a4.685 4.685 0 00-1.806-2.226c-.812-.56-1.89-.84-3.234-.84-1.204 0-2.352.28-3.444.84a7.46 7.46 0 00-2.604 2.226 5.094 5.094 0 00-1.008 3.066v12.222c0 .336-.126.63-.378.882a1.209 1.209 0 01-.882.378c-.392 0-.7-.126-.924-.378a1.286 1.286 0 01-.336-.882v-18.816c0-.336.112-.63.336-.882.252-.252.56-.378.924-.378s.658.126.882.378c.252.252.378.546.378.882v3.528l-.966 1.512c.056-.896.336-1.75.84-2.562a8.928 8.928 0 012.016-2.226 9.228 9.228 0 012.688-1.554 8.29 8.29 0 013.024-.588zm33.017-9.114c.364 0 .658.126.882.378.252.224.378.518.378.882v28.56c0 .336-.126.63-.378.882a1.209 1.209 0 01-.882.378c-.364 0-.672-.126-.924-.378a1.286 1.286 0 01-.336-.882v-4.998l.714-.588c0 .784-.21 1.61-.63 2.478-.42.84-1.022 1.624-1.806 2.352a8.957 8.957 0 01-2.688 1.764c-1.008.448-2.1.672-3.276.672-1.876 0-3.57-.49-5.082-1.47-1.484-.98-2.66-2.31-3.528-3.99-.868-1.68-1.302-3.598-1.302-5.754 0-2.128.434-4.032 1.302-5.712.868-1.708 2.044-3.038 3.528-3.99 1.484-.98 3.164-1.47 5.04-1.47 1.148 0 2.24.21 3.276.63a8.866 8.866 0 012.73 1.722 7.85 7.85 0 011.89 2.52c.476.924.714 1.89.714 2.898l-.882-.63V107.18c0-.336.112-.63.336-.882.252-.252.56-.378.924-.378zm-8.736 29.148c1.512 0 2.828-.378 3.948-1.134 1.148-.784 2.044-1.834 2.688-3.15.672-1.344 1.008-2.87 1.008-4.578 0-1.68-.336-3.178-1.008-4.494-.644-1.344-1.54-2.394-2.688-3.15-1.148-.784-2.464-1.176-3.948-1.176-1.456 0-2.772.392-3.948 1.176-1.148.756-2.058 1.806-2.73 3.15-.644 1.316-.966 2.814-.966 4.494 0 1.68.322 3.192.966 4.536.672 1.344 1.582 2.408 2.73 3.192 1.176.756 2.492 1.134 3.948 1.134z" fill="#7D7D7D"/></svg>