<svg width="56" height="56" viewBox="0 0 56 56" xmlns="http://www.w3.org/2000/svg"><g fill="none" fill-rule="evenodd"><rect fill="#157DD1" width="56" height="56" rx="28"/><path d="M47.198 19.631a4.72 4.72 0 01-.294 2.472l-3.463 11.773a14.013 14.013 0 01-1.154 2.336 11.728 11.728 0 01-1.868 2.02c-.713.634-1.553 1.088-2.287 1.542a6.667 6.667 0 01-2.288.476H9.611l1.867-6.056h23.653l3.735-12.385H15.214l1.868-6.057H43.19a3.955 3.955 0 012.014.476 2.75 2.75 0 011.427 1.384c.336.613.525 1.316.567 2.019zm-22.666 5.557l-1.72 5.603H8.75l1.868-5.603h13.914z" fill="#FFF"/></g></svg>