<svg width="56" height="56" viewBox="0 0 56 56" xmlns="http://www.w3.org/2000/svg"><g fill="none" fill-rule="evenodd"><circle fill="#6FB92C" cx="28" cy="28" r="28"/><path d="M12.026 15.523c.058-.002.105.03.155.054l1.88.917c.13.064.254.143.383.209.402.203.807.4 1.214.594.362.172.72.354 1.08.527.795.38 1.594.753 2.385 1.141 1.792.878 3.587 1.751 5.38 2.626l.014.006c.126.036.16.116.16.252-.005 2.049-.003 4.097-.004 6.146l-.003 18.78v.156c-.002.06-.032.07-.08.049-.087-.04-.173-.082-.26-.124-1.815-.888-3.63-1.776-5.447-2.662-2.224-1.087-4.45-2.172-6.674-3.258-.058-.028-.113-.07-.183-.05V15.524zm19.151-7.406c.031.044.082.057.127.079l12.127 6.001c.048.024.101.041.145.086-.041.038-.084.047-.125.062L32.113 18.54l-5.089 1.882c-.578.213-1.156.426-1.734.643a.261.261 0 01-.228-.008c-1.855-.921-3.71-1.84-5.566-2.76-.027-.013-.053-.03-.08-.044.015-.09-.036-.15-.097-.197-.198-.153-.328-.372-.495-.555-.157-.172-.296-.361-.445-.541-.143-.173-.288-.343-.43-.515l-.466-.565c-.146-.176-.295-.35-.44-.526-.2-.243-.398-.49-.598-.732-.146-.176-.3-.346-.442-.525-.05-.065-.105-.125-.154-.19-.038-.049-.025-.077.042-.076.096 0 .085-.063.08-.126l1.487-.551 2.142-.787L30.974 8.19c.05-.019.11-.02.142-.074h.06zm12.753 6.754v25.607c-.067.015-.115-.021-.165-.041l-12.813-5.155c-.144-.058-.134-.033-.134-.198l-.001-15.217c0-.145 0-.146.15-.202 1.426-.53 2.853-1.058 4.28-1.587l8.519-3.158c.051-.02.1-.046.164-.049" fill="#FFF"/><path d="M15.971 13.705c.005.063.016.126-.08.126-.067 0-.08.027-.042.077.049.064.104.124.154.189.142.18.296.349.442.525.2.243.397.489.597.732.146.177.295.35.441.526l.465.565c.143.172.288.342.43.515.15.18.29.369.446.541.167.183.297.402.495.555.061.047.112.106.098.197-.173-.083-.347-.163-.519-.248l-6.04-2.992c-.053-.027-.112-.045-.16-.093.023-.046.07-.048.11-.062l3.062-1.125c.032-.012.067-.019.101-.028" fill="#FFF"/></g></svg>