<svg width="56" height="56" viewBox="0 0 56 56" xmlns="http://www.w3.org/2000/svg"><g fill="none" fill-rule="evenodd"><circle fill="#2E9AD0" cx="28" cy="28" r="28"/><path d="M46.962 40.429a2.036 2.036 0 00-1.347.498L41.94 37.75l2.825-8.738h.1c.37 0 .703-.136.996-.41.282-.271.424-.618.424-1.04 0-.398-.142-.739-.424-1.024-.293-.27-.625-.41-.996-.41h-.1l-2.474-7.64a1.37 1.37 0 00.483-.498c.113-.194.18-.429.19-.703 0-.398-.142-.74-.424-1.024a1.405 1.405 0 00-1.025-.425 1.93 1.93 0 00-.497.09 1.13 1.13 0 00-.425.264l-6.528-4.728c.03-.08.06-.16.09-.25.006-.08.01-.182.01-.292 0-.399-.143-.74-.425-1.025-.293-.282-.626-.425-.996-.425a1.69 1.69 0 00-.907.307 1.23 1.23 0 00-.498.791h-7.92a1.49 1.49 0 00-.497-.775 1.376 1.376 0 00-.878-.323c-.41 0-.754.143-1.025.425a1.394 1.394 0 00-.424 1.025c0 .11.006.208.03.293.022.09.04.171.07.249l-6.528 4.728a1.785 1.785 0 00-.41-.263c-.168-.05-.34-.08-.512-.09-.41 0-.754.142-1.025.424a1.393 1.393 0 00-.424 1.024c0 .274.062.51.19.703.113.216.278.384.483.498h.028l-2.474 7.597H9.92c-.41 0-.753.142-1.024.424a1.391 1.391 0 00-.425 1.025c0 .41.14.754.425 1.025.27.285.615.424 1.024.424h.074l2.503 7.67a1.318 1.318 0 00-.513.498c-.128.205-.19.443-.19.703 0 .41.14.754.425 1.024.27.286.614.425 1.024.425.172 0 .344-.03.513-.09.135-.05.27-.125.41-.234l6.528 4.698c-.03.091-.05.183-.07.265-.022.09-.03.19-.03.277 0 .407.139.75.424 1.025.27.282.615.425 1.024.425.319 0 .616-.107.879-.308.26-.186.428-.45.497-.79h7.92c.05.34.222.604.497.79.253.201.556.308.908.308.369 0 .702-.143.995-.425.282-.274.425-.618.425-1.025 0-.09-.006-.182-.01-.277-.03-.08-.06-.17-.09-.265l7.45-5.372 3.646 3.148c-.1.146-.172.315-.22.497-.06.205-.08.399-.07.571-.01.579.193 1.062.615 1.464.398.407.893.616 1.478.616a2.02 2.02 0 001.464-.616c.398-.402.604-.885.615-1.464a2.152 2.152 0 00-.615-1.492c-.41-.399-.9-.6-1.464-.6h-.001zM41.765 19.13l2.328 7.23c-.169.101-.3.224-.396.367-.11.14-.186.3-.234.483h-1.2a1.394 1.394 0 00-.337-.644 2.247 2.247 0 00-.615-.41l.454-7.026zm-.673-.469l-.498 7.465h-.04a.155.155 0 00-.06.031l-2.972-5.65c.143-.106.267-.264.367-.469.08-.183.12-.384.131-.6 0-.006-.006-.04-.009-.102a.171.171 0 01-.01-.147l2.401-1.025c.08.11.183.21.323.294.09.109.212.168.35.175l.017.028zm-8.095 7.495c-.021.009-.05.006-.102-.01a1.556 1.556 0 00-.147-.009c-.07 0-.14.006-.205.01a.748.748 0 01-.22.04l-3.952-6.88a.785.785 0 00.19-.234c.051-.08.103-.175.162-.264l6.396.805c.006.205.07.378.176.513.08.169.205.304.351.41l-2.649 5.619zm3.294-5.3c.03 0 .08.007.146.01.031.022.07.03.132.01.05.008.102.005.16-.01.05-.006.11-.03.191-.06l2.972 5.665c-.129.11-.223.222-.278.337a.75.75 0 00-.147.395h-5.328l-.176-.395a2.46 2.46 0 00-.293-.337l2.62-5.614zm-4.567 5.68c-.1.1-.172.201-.22.307-.06.11-.114.231-.16.367h-7.92a.871.871 0 00-.146-.367l-.234-.307 3.981-6.88c.05 0 .102.007.16.01.051.021.118.03.206.009a.49.49 0 00.19-.01c.05-.005.11-.008.191-.008l3.952 6.88zm-9.28-.35a.693.693 0 01-.205-.041 1.893 1.893 0 00-.191-.01c-.06 0-.11.007-.147.01-.06.021-.106.03-.131.01l-2.65-5.622c.136-.106.252-.242.352-.41.08-.135.135-.306.175-.512l6.397-.85c.05.14.102.243.16.308.04.1.103.18.191.234l-3.952 6.882zm-1.318.292a.994.994 0 00-.293.307.79.79 0 00-.16.425h-5.3c-.058-.125-.12-.252-.175-.38a1.86 1.86 0 00-.293-.323l2.971-5.65c.05 0 .103.006.16.01.051.02.11.03.192.009.04.009.09.006.146-.01.04-.006.09-.009.147-.009l2.605 5.621zm-5.753 1.45h5.255a.99.99 0 00.205.424c.07.128.165.23.293.307l-2.65 5.621h-.438c-.061.01-.114.03-.162.04l-2.971-5.694c.113-.08.212-.194.293-.322.055-.114.117-.242.176-.38v.003zm6.397 1.053c.03 0 .07.006.132.01.04.03.09.04.146.009.07.021.136.009.205-.01a.87.87 0 00.19-.04l3.953 6.85a.741.741 0 00-.19.25c-.06.11-.114.202-.162.278l-6.396-.805a2.82 2.82 0 00-.176-.512 2.66 2.66 0 00-.351-.41l2.649-5.62zm1.273-.38c.08-.08.154-.19.234-.307a.794.794 0 00.147-.367h7.92c.005.139.06.26.146.367.07.117.146.223.234.307l-3.952 6.85a.421.421 0 01-.176-.009.696.696 0 00-.205-.03.524.524 0 00-.205.03.573.573 0 01-.19.04v-.03l-3.953-6.851zm9.28.351c.081.022.148.04.206.04.05.031.11.04.19.01.05.021.118.009.176-.01.04-.006.09-.009.147-.009h-.04l2.65 5.621c-.14.129-.254.267-.338.41-.09.168-.14.34-.147.511l-6.44.805a.724.724 0 01-.132-.278c-.06-.08-.12-.168-.176-.249l3.905-6.85zm1.318-.293c.107-.08.205-.18.293-.307a1.7 1.7 0 00.205-.425h5.328c.05.139.107.267.176.38a.55.55 0 00.293.294l-3.044 5.723c-.06-.021-.114-.03-.161-.04h-.439l-2.65-5.625zm.03-16.643l6.5 4.742c-.03.08-.05.165-.06.25-.03.109-.04.201-.04.278-.01.06-.006.1.009.117.021.04.03.08.03.132v-.04l-2.415 1.068a2.42 2.42 0 00-.482-.41 1.383 1.383 0 00-.645-.16h-.131c-.07.01-.12.03-.147.04h.03l-2.678-5.972v-.01c0-.02.006-.03.03-.03v-.005zm-1.477.249c.08.04.164.07.264.07.08.022.164.03.264.03.04.022.09.01.146-.008.03-.007.07-.01.132-.01l2.693 5.973a.652.652 0 00-.278.264c-.08.11-.143.223-.19.336l-6.427-.85a1.303 1.303 0 00-.09-.38 2.031 2.031 0 00-.19-.322l3.676-5.103zm-8.769-.98h7.92c.006.1.04.193.102.277.05.11.106.201.176.279l-3.748 5.05a1.5 1.5 0 01-.22-.04c-.1-.007-.186-.01-.264-.01-.109 0-.208.006-.293.01-.09.02-.171.05-.249.09v-.04l-3.703-5.05c.05-.081.117-.165.176-.265a.7.7 0 00.102-.293l.001-.009zm-1.375 1.082c.08 0 .168-.006.278-.03a.7.7 0 00.249-.07l3.718 5.094a.825.825 0 00-.22.322c-.06.128-.09.256-.103.38l-6.426.85a22.53 22.53 0 01-.175-.337 2.87 2.87 0 00-.25-.264l2.68-5.972c.005 0 .04.006.102.009.04.03.09.04.146.01v.008zm-.923-.35v.03c0 .021.01.03.04.009l-2.693 5.972c-.06-.021-.1-.03-.117-.04h-.132c-.245 0-.46.05-.644.16-.205.118-.37.257-.483.41l-2.445-1.068c.019-.007.034-.04.045-.103v-.131c-.013-.08-.028-.18-.045-.279a1 1 0 01-.058-.22l6.532-4.74zm-6.748 6.147l2.445 1.025a.321.321 0 00-.04.146v.147c-.01.198.03.384.131.556a.93.93 0 00.366.469l-2.971 5.65h-.075l-.527-7.524c.136-.04.267-.106.395-.205a1.14 1.14 0 00.278-.263l-.002-.001zm-1.346 17.843l-2.357-7.23a1.32 1.32 0 00.395-.367 1.47 1.47 0 00.234-.483h1.274c.066.234.183.443.351.615.154.187.344.326.571.41h.028l-.496 7.055zm-.454-8.797h-1.274a1.18 1.18 0 00-.205-.512 4.44 4.44 0 00-.395-.366l2.328-7.202.497 7.055c-.245.1-.446.238-.6.41a1.577 1.577 0 00-.351.615zm1.127 9.295l.527-7.524h.072l2.971 5.65a1.29 1.29 0 00-.366.47 1.17 1.17 0 00-.132.6v.117c0 .04.01.08.04.131l-2.444 1.025a2.693 2.693 0 00-.293-.293c-.11-.05-.238-.118-.38-.176h.005zm7.421 6.616L14.6 38.424a.99.99 0 01.058-.25 2.54 2.54 0 00.044-.292v-.132l-.044-.147v.04l2.415-1.068c.125.169.285.304.483.41.194.109.41.16.644.16h.147a.3.3 0 00.132-.04l2.693 5.972-.04.04-.004.005zm1.45-.249a.723.723 0 01-.25-.07c-.11-.006-.2-.021-.278-.03-.06 0-.11.006-.146.009-.06.021-.107.03-.132.009h.03l-2.678-5.972c.08-.07.16-.154.249-.264.05-.09.117-.21.176-.336h.03l6.397.804c.006.147.04.283.103.396.05.128.12.245.22.351l-.645.85-3.077 4.253zm8.767.981h-7.919c-.021-.08-.05-.18-.102-.293a1.77 1.77 0 00-.176-.264l3.703-5.123c.08.06.161.09.25.09.08.021.182.03.293.009.08.01.168.006.278-.01a.6.6 0 00.278-.09h-.03l3.703 5.124c-.07.106-.129.198-.176.278a.808.808 0 00-.103.278l.001.001zm1.654-1.054c-.06.01-.106.006-.131-.01a1.904 1.904 0 00-.147-.008c-.1.009-.187.021-.264.03-.1.04-.187.07-.264.07l-3.718-5.093c.08-.107.165-.223.234-.352.05-.113.08-.249.09-.395l6.426-.805c.05.128.11.238.191.322.07.11.147.2.234.278l-2.576 5.753-.075.21zm.674.322h-.03v-.04l.07-.176 2.605-5.796c.006.03.05.04.117.04h.132c.223 0 .44-.05.644-.147.183-.08.345-.208.483-.395v-.03l3.118 1.346-7.14 5.198zm4.318-7.172a.235.235 0 01.01-.132.495.495 0 00.008-.117 1.538 1.538 0 00-.131-.585 2.48 2.48 0 00-.366-.483l3.015-5.68h.05l.541 8.373-3.127-1.376zm3.323-7.041c.223-.08.424-.205.6-.38.143-.154.249-.356.307-.6h1.244c.05.197.125.358.234.482.09.158.227.282.396.366l-2.328 7.232-.453-7.1z" fill="#FFF" fill-rule="nonzero"/></g></svg>