<svg width="56" height="56" viewBox="0 0 56 56" xmlns="http://www.w3.org/2000/svg"><defs><linearGradient x1="34.219%" y1="9.174%" x2="87.291%" y2="91.13%" id="a"><stop stop-color="#00AAE4" offset="0%"/><stop stop-color="#006097" offset="100%"/></linearGradient></defs><g fill="none" fill-rule="evenodd"><rect fill="url(#a)" width="56" height="56" rx="28"/><path d="M30.734 11.009c-2.414 1.343-3.9 3.825-3.9 6.511 0 1.457.537 2.798 1.223 4.041.577 1.046.869 2.987-1.11 4.088-1.472.819-3.308.3-4.226-1.115-.774-1.196-1.71-2.316-3.02-3.045-3.73-2.076-8.5-.844-10.655 2.752A7.278 7.278 0 008 27.996c.004 2.603 1.402 5.125 3.901 6.516a8.053 8.053 0 007.8 0c1.31-.729 2.245-1.848 3.02-3.043.636-.98 2.224-2.231 4.226-1.116 1.47.818 1.924 2.611 1.11 4.088-.686 1.244-1.223 2.584-1.223 4.04 0 4.153 3.492 7.519 7.8 7.519 4.307 0 7.8-3.366 7.8-7.519 0-2.686-1.487-5.168-3.9-6.51-1.32-.736-2.808-.949-4.28-.998-1.236-.042-3.08-.805-3.08-2.972 0-1.615 1.358-2.914 3.08-2.972 1.473-.05 2.96-.263 4.28-.998 2.499-1.39 3.897-3.913 3.9-6.508a7.277 7.277 0 00-1.045-3.762c-1.44-2.404-4.05-3.752-6.736-3.761a8.04 8.04 0 00-3.92 1.009z" fill="#FFF"/></g></svg>