<svg width="900" height="580" viewBox="0 0 900 580" fill="none" xmlns="http://www.w3.org/2000/svg"><path d="M608.929 53.055c-1.062-3.134-14.371-13.787-6.216-15.577l6.689 8.918 30.749-30.75 3.093 3.093-34.315 34.316zm0 104.56c-1.062-3.134-14.371-13.787-6.216-15.578l6.689 8.918 30.749-30.749 3.093 3.093-34.315 34.316zm0 106.053c-1.062-3.134-14.371-13.787-6.216-15.577l6.689 8.918 30.749-30.749 3.093 3.092-34.315 34.316z" fill="#8D8D92"/><path d="M580.614 177.927c5.24 0 9.488-4.249 9.488-9.489 0-5.241-4.248-9.489-9.488-9.489a9.49 9.49 0 000 18.978zm0-103.427c5.24 0 9.488-4.248 9.488-9.489a9.488 9.488 0 00-9.488-9.488 9.489 9.489 0 00-9.489 9.488 9.489 9.489 0 009.489 9.489zm243.385-31.313H671.23v1.897h152.769v-1.898zM585.358 288.181a9.49 9.49 0 100-18.978 9.49 9.49 0 000 18.978zm238.641-140.435H671.23v1.898h152.769v-1.898zm0 106.055H671.23v1.898h152.769v-1.898z" fill="#3F3D56"/><path d="M632.897 277.807h-47.444v-48.393h32.262v1.898h-30.364v44.597h43.648v-21.824h1.898v23.722zm0-106.274h-47.444v-48.392h32.262v1.897h-30.364v44.597h43.648v-21.824h1.898v23.722zm0-108.172h-47.444V14.97h32.262v1.897h-30.364v44.598h43.648V39.639h1.898v23.722z" fill="#3F3D56"/><path d="M68.982 442.023c4.252-43.408 29.956-86.739 70.853-101.895a200.957 200.957 0 003.606 137.922c6.788 16.986 16.106 35.172 10.593 52.614-3.431 10.852-12.294 19.318-22.308 24.728s-21.213 8.157-32.272 10.85l-2.141 1.867c-18.695-39.406-32.584-82.678-28.331-126.086z" fill="#F0F0F0"/><path d="M140.267 340.935c-23.091 27.255-37.625 62.064-40.166 97.748-.55 7.715-.435 15.589 1.445 23.13a42.423 42.423 0 0011.06 19.395c4.89 5.1 10.483 9.749 14.049 15.949 3.758 6.534 4.092 14.061 1.821 21.165-2.779 8.692-8.515 15.868-14.368 22.689-6.499 7.575-13.37 15.339-15.958 25.224-.314 1.197-2.154.641-1.84-.555 4.503-17.198 20.819-27.325 28.32-42.904 3.5-7.269 4.831-15.638 1.177-23.12-3.196-6.543-8.959-11.343-13.955-16.463-5.246-5.376-9.316-11.319-11.521-18.561-2.256-7.408-2.679-15.294-2.329-22.989a166.616 166.616 0 0110.847-50.941 174.794 174.794 0 0130.109-51.175c.797-.941 2.101.473 1.309 1.408z" fill="#fff"/><path d="M100.315 427.041a25.77 25.77 0 01-20.312-26.475.964.964 0 01.983-.905.964.964 0 01.939.951A23.862 23.862 0 00100.87 425.2c1.211.255.649 2.094-.555 1.841zm9.47 51.909a49.667 49.667 0 0021.427-29.174c.318-1.197 2.158-.641 1.841.554a51.666 51.666 0 01-22.359 30.314c-1.049.659-1.952-1.038-.909-1.694zm7.939-105.124a14.585 14.585 0 0013.8-1.062c1.04-.673 1.943 1.026.909 1.694a16.353 16.353 0 01-15.264 1.208.993.993 0 01-.643-1.197.961.961 0 011.198-.643z" fill="#fff"/><path d="M267.631 414.13c-.637.438-1.275.877-1.913 1.332a192.075 192.075 0 00-24.054 19.81 83.965 83.965 0 00-1.742 1.685 202.504 202.504 0 00-42.398 61.333 196.579 196.579 0 00-10.043 28.144c-3.63 13.289-6.509 27.987-14.094 38.977a33.586 33.586 0 01-2.543 3.312l-71.085 1.854c-.164-.077-.328-.138-.493-.215l-2.834.204c.1-.506.216-1.028.317-1.534.057-.293.13-.587.188-.881.043-.196.087-.392.115-.571a2.39 2.39 0 01.044-.18c.027-.179.072-.343.1-.506a640.668 640.668 0 011.979-8.766c0-.017 0-.017.015-.033 5.247-22.258 12.397-44.273 22.662-64.503.309-.608.617-1.233.959-1.843a187.587 187.587 0 0116.185-25.999 165.819 165.819 0 0110.715-12.922 137.956 137.956 0 0133.838-26.752c25.145-14.126 54.528-20.053 81.99-12.541.702.193 1.389.386 2.092.595z" fill="#F0F0F0"/><path d="M267.495 415.036c-34.847 7.859-67.408 26.902-90.922 53.864-5.083 5.829-9.733 12.185-12.772 19.338a42.42 42.42 0 00-2.846 22.145c.834 7.016 2.5 14.096 1.615 21.192-.934 7.48-5.199 13.691-11.289 17.996-7.452 5.267-16.352 7.543-25.133 9.466-9.749 2.134-19.909 4.198-27.927 10.531-.972.768-2.106-.785-1.136-1.551 13.95-11.019 33.075-9.282 48.444-17.205 7.171-3.697 13.272-9.578 14.859-17.752 1.388-7.148-.324-14.45-1.23-21.546-.952-7.451-.623-14.647 1.976-21.757 2.659-7.273 7.07-13.824 11.982-19.758a166.64 166.64 0 0139.33-34.143 174.804 174.804 0 0154.851-22.732c1.204-.272 1.394 1.643.198 1.912z" fill="#fff"/><path d="M183.753 459.733a25.77 25.77 0 01-.279-33.368c.796-.947 2.304.246 1.507 1.194a23.863 23.863 0 00.323 31.039c.813.932-.742 2.062-1.551 1.135zm-23.69 47.149a49.67 49.67 0 0034.673-10.394c.974-.764 2.108.788 1.135 1.551a51.66 51.66 0 01-36.102 10.742c-1.235-.105-.935-2.004.294-1.899zm69.628-79.157a14.595 14.595 0 0011.659 7.461c1.235.089.933 1.988-.294 1.899a16.344 16.344 0 01-12.916-8.225.994.994 0 01.208-1.343.964.964 0 011.343.208z" fill="#fff"/><path d="M389.551 187.447s-12.68 53.537 2.818 53.537c15.497 0 52.127-60.581 52.127-60.581l-12.679-15.498-22.759 31.598-1.192-16.1-18.315 7.044z" fill="#A0616A"/><path d="M441.117 182.73c6.812 0 12.335-5.522 12.335-12.335 0-6.813-5.523-12.335-12.335-12.335-6.813 0-12.336 5.522-12.336 12.335 0 6.813 5.523 12.335 12.336 12.335zm-62.316 369.347l16.418-.001 7.812-63.334-24.234.001.004 63.334z" fill="#A0616A"/><path d="M378.221 569.205l50.493-.002v-.638a19.654 19.654 0 00-19.653-19.653h-.001l-9.223-6.997-17.209 6.998h-4.407v20.292z" fill="#2F2E41"/><path d="M202.18 531.591l14.691 7.331 35.272-53.179-21.684-10.821-28.279 56.669z" fill="#A0616A"/><path d="M194.014 546.659l45.179 22.546.285-.571a19.656 19.656 0 00-8.809-26.361l-.001-.001-5.127-10.379-18.523-1.423-3.943-1.968-9.061 18.157zm78.628-262.089s-6.561 78.897-7.97 95.804a120.252 120.252 0 01-7.044 30.995s-2.818 5.635-2.818 11.27l-31.934 58.037s-9.759 7.173-8.35 12.809c1.409 5.635-5.883 9.015-5.883 9.015l33.629 6.482s-1.409-4.227 2.818-5.635c4.226-1.409 7.591-13.629 7.591-13.629l47.212-76.941 33.813-70.442s19.724 63.398 23.95 70.442c0 0 15.498 78.896 18.316 85.941 2.817 7.044 4.226 7.044 2.817 9.862-1.409 2.818-1.409 5.635 0 7.044 1.409 1.409 28.177 0 28.177 0l-7.044-100.029-12.68-119.753-64.807-19.724-49.793 8.452z" fill="#2F2E41"/><path d="M336.094 96.223c16.34 0 29.586-13.246 29.586-29.586 0-16.34-13.246-29.586-29.586-29.586-16.34 0-29.586 13.246-29.586 29.586 0 16.34 13.246 29.586 29.586 29.586z" fill="#A0616A"/><path d="M390.061 139.459l-35.22-21.338s-.976-13.251-11.012-13.875c-5.038-.313-12.598-.791-23.944-1.523-2.398-.155-4.016 12.964-6.764 12.786l-37.177 9.862 5.635 95.802s-8.453 38.039-5.635 45.084c2.817 7.044-7.045 9.862-4.227 11.27 2.818 1.409 0 11.271 0 11.271s54.945 28.177 115.526 7.045l-5.635-18.316a14.782 14.782 0 00-2.818-14.088s5.636-8.453-1.409-15.498c0 0 2.818-12.679-4.226-18.315l-1.409-19.724 4.226-9.862 14.089-60.581z" fill="#E6E6E6"/><path d="M310.421 83.538l-.827-1.92c-.107-.249-10.57-24.983-1.296-40.24 4.294-7.064 12.1-11.052 23.202-11.852 17.371-1.256 29.26 2.865 35.346 12.239a10.502 10.502 0 01.378 10.724 10.516 10.516 0 01-9.235 5.465h-.234l-3.192-4.145-.185.403c-1.156 2.5-3.81 3.87-6.918 3.57-.529-.039-.997.418-1.373 1.394a2.484 2.484 0 01-1.858 1.722c-2.297.447-5.57-2.446-7.036-3.888a2.344 2.344 0 01-1.096 1.614c-1.544.891-3.947-.273-4.637-.643-5.496 1.167-9.053.855-10.577-.928-1.033 7.31-3.251 20.468-5.909 21.197a1.331 1.331 0 01-1.452-.635c-.64-.83-1.212-1.245-1.569-1.129-.865.276-1.376 3.124-1.449 4.962l-.083 2.09z" fill="#2F2E41"/><path d="M374.565 140.868l14.054-2.283a68.612 68.612 0 0119.758 36.096c4.227 22.542 5.636 26.768 5.636 26.768l-33.813 8.453-18.315-35.221 12.68-33.813z" fill="#E6E6E6"/><path d="M312.201 170.187l-8.685 110.102 221.642 17.484 8.685-110.102-221.642-17.484z" fill="#fff"/><path d="M335.881 178.719c-5.424-3.874-12.311-4.154-14.942-4.098.803 2.505 3.297 8.93 8.721 12.805 5.437 3.884 12.316 4.155 14.942 4.101-.802-2.504-3.296-8.932-8.721-12.808zm21.398 70.059l-35.589-2.808a8.029 8.029 0 00-7.788 4.36 8.02 8.02 0 00-.484 6.129 8.032 8.032 0 007.008 5.526l35.59 2.808a8.036 8.036 0 008.639-7.376 8.035 8.035 0 00-7.376-8.639z" fill="#8D8D92"/><path d="M525.105 176.969l-199.538-15.741a17.735 17.735 0 00-12.905 4.192 17.736 17.736 0 00-6.16 12.089l-7.674 97.213a17.737 17.737 0 0016.284 19.074l199.539 15.742a17.728 17.728 0 0019.064-16.282l7.293-92.397.147-1.888.232-2.937a17.73 17.73 0 00-9.624-17.187 17.74 17.74 0 00-6.658-1.878zm-5.892 84.581l-1.264 16.016a10.74 10.74 0 01-11.521 9.831l-26.695-2.104a10.734 10.734 0 01-9.831-11.521l1.264-16.015a10.74 10.74 0 0111.521-9.831l26.686 2.105a10.749 10.749 0 019.84 11.519zm-207.93-8.351a9.819 9.819 0 0110.546-9.006l35.588 2.809a9.827 9.827 0 016.7 3.403 9.811 9.811 0 01-8.226 16.165l-.019.005-35.588-2.809a9.817 9.817 0 01-6.692-3.417 9.811 9.811 0 01-2.309-7.15zm7.619-79.214l-.244-.995 1.024-.094c.4-.043 9.867-.893 17.236 4.371 7.37 5.264 9.629 14.499 9.727 14.886l.235.998-1.022.103c-1.45.107-2.906.098-4.354-.029a25.75 25.75 0 01-12.884-4.352c-7.37-5.264-9.629-14.499-9.718-14.888z" fill="#8D8D92"/><path d="M489.276 272.172l-11.566-.913a3.126 3.126 0 00-3.355 2.869 3.124 3.124 0 002.863 3.359l11.567.913a3.125 3.125 0 002.617-5.141 3.118 3.118 0 00-2.126-1.087zm21.353 1.684l-11.566-.912a3.121 3.121 0 00-3.352 2.869 3.122 3.122 0 002.861 3.359l11.566.912a3.121 3.121 0 003.352-2.869 3.122 3.122 0 00-2.861-3.359zm-20.72-9.691l-11.567-.913a3.124 3.124 0 00-.491 6.228l11.566.913a3.126 3.126 0 003.355-2.869 3.124 3.124 0 00-2.863-3.359zm21.353 1.684l-11.566-.912a3.123 3.123 0 00-.491 6.228l11.566.913a3.128 3.128 0 003.354-2.869 3.127 3.127 0 00-2.863-3.36zm-20.722-9.692l-11.567-.912a3.12 3.12 0 00-3.354 2.868 3.123 3.123 0 002.863 3.36l11.567.912a3.124 3.124 0 00.491-6.228zm21.353 1.684l-11.566-.912a3.125 3.125 0 00-.492 6.228l11.567.913a3.122 3.122 0 003.352-2.869 3.124 3.124 0 00-2.861-3.36z" fill="#8D8D92"/><path d="M303.537 208.184l-.148 1.892 234.232 18.4.148-1.892-234.232-18.4z" fill="#fff"/><path d="M541.154 198.972l-.147 1.888-8.152-.64-86.853-6.822.157-1.89 86.843 6.824 8.152.64z" fill="#3F3D56"/><path d="M254.813 178.908s-12.68 53.537 2.817 53.537c15.498 0 52.128-60.581 52.128-60.581l-12.68-15.498-22.758 31.598-1.192-16.1-18.315 7.044z" fill="#A0616A"/><path d="M306.378 174.19c6.813 0 12.336-5.522 12.336-12.335 0-6.813-5.523-12.335-12.336-12.335-6.812 0-12.335 5.522-12.335 12.335 0 6.813 5.523 12.335 12.335 12.335z" fill="#A0616A"/><path d="M286.206 133.824l-8.453-8.453s-16.907 9.862-18.315 19.724c-1.409 9.862-8.454 40.857-8.454 40.857l26.064 2.113 8.453-12.679.705-41.562z" fill="#E6E6E6"/></svg>