<svg width="900" height="580" viewBox="0 0 900 580" fill="none" xmlns="http://www.w3.org/2000/svg"><path d="M265.97 323.935c-5.661-30.299 3.252-64.768 28.024-83.108a142.012 142.012 0 0029.605 92.897c7.952 10.192 17.857 20.7 17.55 33.623-.192 8.042-4.54 15.533-10.271 21.176-5.731 5.644-12.791 9.713-19.766 13.718l-1.086 1.689c-20.448-23.063-38.395-49.697-44.056-79.995z" fill="#F0F0F0"/><path d="M294.447 241.29a121.383 121.383 0 00-8.014 74.25 52.292 52.292 0 005.535 15.414 29.984 29.984 0 0011.326 10.986c4.323 2.498 9.035 4.552 12.675 8.058a18.348 18.348 0 015.404 14.006c-.174 6.446-2.655 12.446-5.284 18.228-2.919 6.421-6.053 13.043-5.864 20.262.023.874-1.336.859-1.358-.015-.33-12.558 8.75-22.644 10.773-34.695.944-5.623.199-11.564-3.754-15.923-3.457-3.811-8.314-5.934-12.713-8.426a31.98 31.98 0 01-11.474-10.329 48.301 48.301 0 01-6.107-15.144 117.763 117.763 0 01-2.67-36.709 123.545 123.545 0 0110.359-40.661c.356-.796 1.519-.093 1.165.698h.001z" fill="#fff"/><path d="M284.285 307.596a18.213 18.213 0 01-18.999-13.968c-.199-.852 1.115-1.2 1.314-.348a16.861 16.861 0 0017.699 12.958c.872-.066.853 1.293-.014 1.358zm16.65 33.366a35.103 35.103 0 008.798-24.02c-.02-.874 1.338-.859 1.358.015a36.51 36.51 0 01-9.206 24.976c-.582.654-1.529-.32-.95-.971zm-15.313-72.911c1.692.23 3.414.037 5.012-.564a10.296 10.296 0 004.145-2.874c.574-.661 1.52.314.951.971a11.56 11.56 0 01-10.122 3.826.702.702 0 01-.672-.687.68.68 0 01.686-.672z" fill="#fff"/><path d="M395.3 265.889c-.346.423-.693.846-1.036 1.281a135.721 135.721 0 00-12.425 18.181c-.289.49-.575.99-.85 1.487a143.088 143.088 0 00-16.699 49.975 138.87 138.87 0 00-1.274 21.079c.153 9.734 1.093 20.276-1.891 29.229a23.945 23.945 0 01-1.073 2.748l-47.881 15.255c-.126-.02-.25-.028-.376-.048l-1.884.696c-.031-.363-.056-.74-.087-1.103-.019-.211-.027-.425-.046-.635a6.97 6.97 0 00-.034-.411 1.612 1.612 0 01-.006-.13c-.016-.127-.018-.247-.031-.363a413.195 413.195 0 01-.384-6.34c-.003-.011-.003-.011.004-.025-.822-16.139-.303-32.489 2.68-48.24.09-.474.176-.959.288-1.439a132.518 132.518 0 015.865-20.833 116.975 116.975 0 014.728-10.88 97.49 97.49 0 0117.698-24.82c14.284-14.538 33.059-24.347 53.177-24.656a71.456 71.456 0 011.537-.008z" fill="#F0F0F0"/><path d="M395.387 266.531a121.373 121.373 0 00-51.102 54.46 52.282 52.282 0 00-4.861 15.639 29.978 29.978 0 002.429 15.59c1.948 4.598 4.473 9.075 5.269 14.065a18.349 18.349 0 01-4.118 14.437c-4.02 5.042-9.613 8.339-15.194 11.373-6.196 3.369-12.686 6.77-16.881 12.647-.508.712-1.583-.118-1.076-.829 7.299-10.226 20.621-12.813 29.491-21.216 4.139-3.921 7.122-9.114 6.59-14.974-.466-5.125-3.065-9.744-5.078-14.381a31.998 31.998 0 01-2.943-15.156 48.322 48.322 0 014.242-15.768 117.77 117.77 0 0119.97-30.918 123.563 123.563 0 0132.751-26.229c.764-.421 1.269.841.511 1.26z" fill="#fff"/><path d="M347.353 313.355a18.217 18.217 0 01-6.76-22.592c.354-.799 1.613-.286 1.258.514a16.863 16.863 0 006.331 21.002c.736.473-.098 1.546-.829 1.076zm-6.795 36.664a35.103 35.103 0 0021.486-13.882c.511-.71 1.586.12 1.076.83a36.509 36.509 0 01-22.388 14.399c-.859.172-1.029-1.176-.174-1.347zm31.67-67.434a10.31 10.31 0 009.381 2.768c.856-.182 1.025 1.166.175 1.348a11.561 11.561 0 01-10.386-3.04.705.705 0 01-.123-.952.685.685 0 01.953-.124z" fill="#fff"/><path d="M470.509 100.206c.161.705.265 1.421.313 2.143l56.138 32.386 13.646-7.855 14.546 19.043-22.805 16.254a10.453 10.453 0 01-12.543-.305l-57.888-45.669a13.72 13.72 0 11-2.967-26.465 13.717 13.717 0 0111.56 10.468z" fill="#FFB6B6"/><path d="M527.741 131.159a5.868 5.868 0 012.932-3.921l25.919-14.121a16.33 16.33 0 0119.745 26.02l-20.773 21.103a5.885 5.885 0 01-6.985 1.049 5.893 5.893 0 01-1.901-1.634l-17.884-23.713a5.866 5.866 0 01-1.053-4.783z" fill="#3F3D56"/><path d="M574.043 49.062c3.729-11.885 12.209-22.785 23.937-26.802 11.728-4.018 28.902 2.102 37.719 10.89 16.128 16.073 20.064 71.293 8.983 88.743-2.204-.117-9.809-.203-12.04-.287l-3.155-10.517v10.413c-17.412-.538-35.539-.201-53.675.148-1.626-12.355-5.498-60.704-1.769-72.588z" fill="#2F2E41"/><path d="M569.054 547.91h-15.88l-7.555-61.255 23.438.001-.003 61.254zm139.02-9.875l-15.367 4.005-22.762-57.369 22.681-5.91 15.448 59.274zm-87.515-366.344l3.599 9.356-.72 9.355-70.424 24.392 3.494-40.944 7.916-9.357 56.135 7.198z" fill="#FFB6B6"/><path d="M598.291 87.498c13.892 0 25.153-11.261 25.153-25.153 0-13.891-11.261-25.153-25.153-25.153-13.891 0-25.152 11.262-25.152 25.153 0 13.892 11.261 25.153 25.152 25.153z" fill="#FFB7B7"/><path d="M581.01 29.591a31.593 31.593 0 0148.032 27.572c-13.711 3.505-28.322 4.97-43.805.844l-3.54-8.662-2.086 8.669c-4.737 3.332-9.309 3.326-13.716-.018A32.251 32.251 0 01581.01 29.59zm-4.853 548.474h-11.268l-2.012-10.639-5.151 10.639h-29.888a6.72 6.72 0 01-3.818-12.247l23.868-16.484v-10.756l25.104 1.498 3.165 37.989zm147.791-13.006l-10.905 2.842-4.63-9.787-2.301 11.594-28.921 7.539a6.724 6.724 0 01-8.394-7.019 6.723 6.723 0 011.61-3.869l18.938-21.971-2.713-10.408 24.671-4.882 12.645 35.961zm-17.823-65.545l-46.55-95.674-14.613-116.448c10.075-18.712-8.636-56.786-8.636-56.786V214.62l-72.484 13.674v.001a347.942 347.942 0 00-21.202 126.332l2.921 154.792h-.916a5.733 5.733 0 100 11.465h28.663a5.732 5.732 0 000-11.465h-.739l20.576-196.923 23.926 97.176 57.819 89.474a5.72 5.72 0 00-5.27 5.93 5.72 5.72 0 005.728 5.489h28.663a5.73 5.73 0 005.631-4.651 5.728 5.728 0 00-3.517-6.4z" fill="#2F2E41"/><path d="M642.879 240.406a4.569 4.569 0 00-4.134-3.434c-.955-10.923-7.268-80.977-7.508-83.033l-.01-.086-1.827-39.048a5.776 5.776 0 00-5.392-5.493l-9.655-.631a.51.51 0 01-.493-.51 8.12 8.12 0 00-8.119-8.119h-28.584a7.602 7.602 0 00-7.539 6.654.505.505 0 01-.514.454h-.003a13.582 13.582 0 00-13.662 11.264c-3.908 22.737-11.739 74.34-7.867 103.029 1.348 9.987.735 25.007.225 33.363a6.163 6.163 0 001.532 4.46 4.577 4.577 0 00-3.172 5.512 4.588 4.588 0 005.568 3.326l87.828-22.141a4.583 4.583 0 003.326-5.567z" fill="#3F3D56"/><path d="M497.724 404.568a10.848 10.848 0 00-9.109-10.641l-155.714-25.57a10.83 10.83 0 00-4.487.199l-36.493 9.436-20.938 5.42-38.641 9.989a10.887 10.887 0 00-8.149 10.533V567.1a10.934 10.934 0 008.611 10.632l158.606-1.796c.745.16 1.505.239 2.266.236 1.11.002 2.214-.166 3.272-.499l94.232 2.345a10.833 10.833 0 007.605-10.46l-1.061-162.99z" fill="#fff"/><path d="M497.724 404.568a10.848 10.848 0 00-9.109-10.641l-155.714-25.57a10.83 10.83 0 00-4.487.199l-36.493 9.436-20.938 5.42-38.641 9.989a10.887 10.887 0 00-8.149 10.533V567.1a10.934 10.934 0 008.611 10.632l158.606-1.796c.745.16 1.505.239 2.266.236 1.11.002 2.214-.166 3.272-.499l94.232 2.345a10.833 10.833 0 007.605-10.46l-1.061-162.99zm-7.36 170.858l-94.231 2.241a8.27 8.27 0 01-4.152.2l-158.615-2.79a8.206 8.206 0 01-6.453-7.977V403.934a8.165 8.165 0 015.348-7.66c.248-.093.503-.172.761-.235l40.88-10.569 24.174-6.254 31.018-8.022a7.756 7.756 0 012.039-.263c.443 0 .886.036 1.323.109l155.715 25.57a8.176 8.176 0 015.928 4.287 8.164 8.164 0 01.906 3.689l1.061 162.99a8.134 8.134 0 01-5.702 7.85z" fill="#CCC"/><path d="M494.099 400.896a1.15 1.15 0 01-.345.154l-45.801 12.382-14.258 3.852-40.553 10.959a1.568 1.568 0 01-.599.027l-163.518-29.812-.544-.1a1.361 1.361 0 01-1.09-1.585 1.367 1.367 0 011.58-1.098l3.29.598 160.473 29.26 34.951-9.445 19.552-5.285 45.094-12.191.716-.19a1.363 1.363 0 011.587.743c.035.069.062.142.081.217a1.363 1.363 0 01-.616 1.514z" fill="#CCC"/><path d="M394.147 576.489c-.745 0-1.353-.601-1.36 3.238l-1.359-148.2c-.007-5.336.596-5.951 1.347-5.958h.012c.746 0 1.353.6 1.36 5.934l1.36 148.2c.007-3.836-.597-3.222-1.348-3.214h-.012z" fill="#CCC"/><path d="M448.338 578.209l-14.644.155-6.009-162.275-153.34-30.51a3.594 3.594 0 01-.444-.109 5.407 5.407 0 01-2.919-2.057l20.939-5.421 6.154 1.224 145.499 28.942a5.408 5.408 0 013.662 2.647c.453.788 1.093 166.462 1.102 167.404z" fill="#CCC"/><path d="M565.63 107.551a8.18 8.18 0 00-6.866-8.02L441.41 80.261a8.18 8.18 0 00-3.382.15l-27.502 7.11-15.781 4.086-29.121 7.528a8.204 8.204 0 00-6.142 7.938v96.184a8.238 8.238 0 006.49 8.013l119.534 25.433a7.97 7.97 0 001.708.178 8.187 8.187 0 002.466-.376l71.018-22.427a8.161 8.161 0 005.731-7.883l-.799-98.644z" fill="#fff"/><path d="M440.08 87.322a.999.999 0 00-.254.033l-72.405 18.725a1.023 1.023 0 00-.767.99v96.183a1.031 1.031 0 00.811 1.002l119.533 25.432c.173.036.353.028.522-.025l71.019-22.427a1.016 1.016 0 00.715-.984l-.796-98.644a1.022 1.022 0 00-.858-1.001l-117.354-19.27a1.07 1.07 0 00-.166-.014z" fill="#3F3D56"/><path d="M565.63 107.551a8.18 8.18 0 00-6.866-8.02L441.41 80.261a8.18 8.18 0 00-3.382.15l-27.502 7.11-15.781 4.086-29.121 7.528a8.204 8.204 0 00-6.142 7.938v96.184a8.238 8.238 0 006.49 8.013l119.534 25.433a7.97 7.97 0 001.708.178 8.187 8.187 0 002.466-.376l71.018-22.427a8.161 8.161 0 005.731-7.883l-.799-98.644zm-5.547 104.573l-71.018 22.427a6.23 6.23 0 01-3.129.151l-119.54-25.433a6.182 6.182 0 01-4.864-6.012v-96.184a6.159 6.159 0 014.03-5.772c.188-.071.379-.13.574-.178l30.809-7.965 18.219-4.714 23.377-6.046a6.072 6.072 0 012.534-.116l117.355 19.271a6.17 6.17 0 014.467 3.232 6.14 6.14 0 01.684 2.78l.799 98.644a6.127 6.127 0 01-4.297 5.915z" fill="#3F3D56"/><path d="M562.898 104.784a.92.92 0 01-.26.116l-34.518 9.331-10.746 2.904-30.563 8.259a1.198 1.198 0 01-.267.034 1.628 1.628 0 01-.184-.014l-123.236-22.468-.41-.075a1.029 1.029 0 01.369-2.022l2.48.451 120.941 22.051 26.341-7.118 14.735-3.983 33.986-9.188.539-.143a1.03 1.03 0 011.257.724 1.028 1.028 0 01-.464 1.141z" fill="#3F3D56"/><path d="M487.569 237.12a1.025 1.025 0 01-1.025-1.016l-1.024-111.691a1.023 1.023 0 011.015-1.034h.009a1.028 1.028 0 011.025 1.015l1.025 111.692a1.03 1.03 0 01-1.016 1.034h-.009z" fill="#3F3D56"/><path d="M528.118 223.531l-10.745 2.904-4.53-110.203-115.564-22.994a2.64 2.64 0 01-.335-.082 4.076 4.076 0 01-2.2-1.55l15.78-4.085 4.639.922 109.656 21.812a4.09 4.09 0 011.598.695c.476.345.872.788 1.161 1.3.342.594.533 110.571.54 111.281z" fill="#3F3D56"/><path d="M523.305 160.699c.55.47 1.061.983 1.53 1.533l64.373-7.518 6.261-14.446 23.037 6.598-8.598 26.652a10.458 10.458 0 01-10.247 7.241l-73.704-2.095a13.72 13.72 0 01-25.07-5.477 13.715 13.715 0 016.895-13.988 13.725 13.725 0 0115.523 1.5z" fill="#FFB6B6"/><path d="M587.7 151.379a5.878 5.878 0 01.013-4.896l12.368-26.8a16.332 16.332 0 0131.373 9.095l-4.073 29.329a5.887 5.887 0 01-4.979 5.011 5.886 5.886 0 01-2.5-.177l-28.503-8.352a5.872 5.872 0 01-3.699-3.21z" fill="#3F3D56"/><path d="M803.635 579.403H97.041a1.364 1.364 0 010-2.73h706.594a1.365 1.365 0 010 2.73z" fill="#CACACA"/><path d="M233.386 434.348c22.676 0 41.058-18.383 41.058-41.058 0-22.676-18.382-41.059-41.058-41.059s-41.058 18.383-41.058 41.059c0 22.675 18.382 41.058 41.058 41.058z" fill="#3F3D56"/><path d="M227.786 414.658a4.57 4.57 0 01-3.654-1.827l-11.201-14.935a4.567 4.567 0 017.307-5.48l7.329 9.77 18.821-28.232a4.57 4.57 0 016.342-1.279 4.57 4.57 0 011.259 6.346l-22.403 33.604a4.577 4.577 0 01-3.673 2.032l-.127.001zm180.424-239.45a1.783 1.783 0 01-.379-.043l-35.543-8.026a1.718 1.718 0 01.757-3.355l35.543 8.025a1.725 1.725 0 011.33 1.868 1.724 1.724 0 01-1.708 1.531z" fill="#fff"/><path d="M271.424 498.223a1.736 1.736 0 01-.38.036l-36.432-.613a1.727 1.727 0 01-1.206-.525 1.722 1.722 0 011.263-2.915l36.432.614a1.721 1.721 0 011.355 2.74 1.714 1.714 0 01-1.032.663zm12.611 19.492a1.73 1.73 0 01-.38.035l-36.432-.613a1.72 1.72 0 01.057-3.44l36.432.614a1.721 1.721 0 01.323 3.404z" fill="#E6E6E6"/></svg>