<svg width="900" height="580" viewBox="0 0 900 580" fill="none" xmlns="http://www.w3.org/2000/svg"><path d="M696.103 335.671c-7.341 2.706-20.235 4.93-35.158 6.718-40.576 4.869-96.18 6.597-96.18 6.597S278.923 372.693 64.69 284.523c0 0-31.16-16.335-2.254-38.321a94.144 94.144 0 0114.142-8.626l.353-.353a75.014 75.014 0 0110.617-8.183c11.099-7.176 29.838-15.682 52.651-11.827l562.667 91.002s20.55 17.365-6.763 27.456z" fill="#3F3D56"/><path d="M583.992 294.426l117.79-83.572 51.915 8.98-50.833 88.38s-117.519.939-118.872-13.788zm-296.547-50.772l234.626-65.8 37.818 7.904-105.985 47.677-33.122 37.059-133.337-26.84z" fill="#3F3D56"/><path d="M660.945 342.388c-40.576 4.87-96.18 6.598-96.18 6.598S278.923 372.693 64.69 284.523c0 0-31.16-16.336-2.254-38.322l.098.406s46.226 31.243 267.094 57.325l331.317 38.456z" fill="#8D8D92"/><path d="M623.233 340.586l104.896 42.83 26.352-2.923-62.743-47.159s-75.892-16.192-68.505 7.252z" fill="#3F3D56"/><path d="M100.57 251.183c-5.004.083-16.47-8.311-23.601-13.961a75.077 75.077 0 0110.617-8.183c5.748 4.411 15.975 11.549 21.663 11.271 8.213-.338-1.142 10.738-8.679 10.873z" fill="#8D8D92"/><path d="M577.118 488.634l-67.348 3.524L320.416 364.48l-35.151-23.707-17.072-11.519c32.033-27.051 162.724 10.256 162.724 10.256 2.503 2.112 3.299 5.621 3.186 9.498-.217 7.259-3.629 15.78-4.944 18.845-.315.752-.511 1.15-.511 1.15l148.47 119.631z" fill="#3F3D56"/><path d="M355.32 422.435l-11.685 7.394 7.079-12.872a11.537 11.537 0 00-7.049-2.517h-.187a12.903 12.903 0 01-2.42-.181l-3.952 2.51 1.69-3.081a14.109 14.109 0 01-6.913-5.259l-7.07 4.508 4.463-8.13c-4.133-4.967-9.708-8.01-15.847-8.01-7.356 0-13.909 4.373-18.139 11.196a13.565 13.565 0 01-12.022 6.462h-.391c-8.123 0-14.705 9.205-14.705 20.566 0 11.361 6.582 20.566 14.705 20.566a10.977 10.977 0 005.117-1.285 21.25 21.25 0 0117.801-.346 18.559 18.559 0 0015.133 0 21.25 21.25 0 0117.635.338 11.054 11.054 0 005.072 1.255c8.123 0 14.705-9.205 14.705-20.566a26.124 26.124 0 00-3.02-12.548z" fill="#F2F2F2"/><path opacity=".03" d="M333.339 452.528a21.8 21.8 0 00-12.601 1.368 18.51 18.51 0 01-15.125 0 21.2 21.2 0 00-17.801.346 11.074 11.074 0 01-5.125 1.284c-7.213 0-13.217-7.273-14.464-16.861a13.718 13.718 0 003.606-3.885c4.231-6.815 10.783-11.188 18.139-11.188 7.357 0 13.841 4.283 18.064 11.045a13.896 13.896 0 0011.985 6.59h.188c5.741-.015 10.715 4.584 13.134 11.301z" fill="#000"/><path d="M685.187 412.667l-11.684 7.394 7.078-12.872a11.542 11.542 0 00-7.048-2.517h-.188a12.903 12.903 0 01-2.42-.18l-3.952 2.51 1.691-3.081a14.106 14.106 0 01-6.913-5.26l-7.071 4.508 4.463-8.13c-4.132-4.967-9.708-8.01-15.847-8.01-7.356 0-13.908 4.373-18.139 11.196a13.572 13.572 0 01-12.022 6.462h-.391c-8.123 0-14.705 9.205-14.705 20.566 0 11.361 6.582 20.566 14.705 20.566a10.977 10.977 0 005.117-1.285 21.25 21.25 0 0117.801-.345 18.575 18.575 0 0015.133 0 21.22 21.22 0 018.855-1.748 21.23 21.23 0 018.781 2.086 11.073 11.073 0 005.072 1.255c8.122 0 14.705-9.205 14.705-20.566a26.14 26.14 0 00-3.021-12.549z" fill="#F2F2F2"/><path opacity=".03" d="M663.207 442.761a21.795 21.795 0 00-12.602 1.367 18.492 18.492 0 01-15.125 0 21.206 21.206 0 00-17.801.346 11.06 11.06 0 01-5.125 1.285c-7.213 0-13.217-7.274-14.464-16.862a13.732 13.732 0 003.607-3.884c4.23-6.816 10.782-11.189 18.138-11.189 7.357 0 13.841 4.283 18.064 11.046a13.898 13.898 0 0012.023 6.59h.188c5.703-.015 10.677 4.583 13.097 11.301z" fill="#000"/><path d="M685.187 166.206l-11.684 7.394 7.078-12.871a11.537 11.537 0 00-7.048-2.518h-.188a12.903 12.903 0 01-2.42-.18l-3.952 2.51 1.691-3.081a14.106 14.106 0 01-6.913-5.26l-7.071 4.509 4.463-8.131c-4.132-4.966-9.708-8.01-15.847-8.01-7.356 0-13.908 4.374-18.139 11.196a13.572 13.572 0 01-12.022 6.462h-.391c-8.123 0-14.705 9.205-14.705 20.566 0 11.362 6.582 20.566 14.705 20.566a10.953 10.953 0 005.117-1.285 21.25 21.25 0 0117.801-.345 18.564 18.564 0 0015.133.037 21.25 21.25 0 0117.636.338 11.048 11.048 0 005.072 1.255c8.122 0 14.705-9.204 14.705-20.566a26.132 26.132 0 00-3.021-12.586z" fill="#F2F2F2"/><path opacity=".03" d="M663.207 196.301a21.795 21.795 0 00-12.602 1.367 18.492 18.492 0 01-15.125 0 21.206 21.206 0 00-17.801.346 11.06 11.06 0 01-5.125 1.285c-7.213 0-13.217-7.274-14.464-16.862a13.732 13.732 0 003.607-3.884c4.23-6.816 10.782-11.189 18.138-11.189 7.357 0 13.841 4.283 18.064 11.046a13.898 13.898 0 0012.023 6.59h.188c5.703-.015 10.677 4.583 13.097 11.301z" fill="#000"/><path d="M202.77 139.614l-5.824 3.689 3.532-6.417a5.722 5.722 0 00-3.517-1.262h-.09a7.21 7.21 0 01-1.21-.09l-1.968 1.247.841-1.503a7.031 7.031 0 01-3.449-2.622l-3.524 2.254 2.254-4.05a10.298 10.298 0 00-7.904-3.998c-3.667 0-6.936 2.179-9.017 5.583a6.761 6.761 0 01-6.011 3.224h-.196c-4.05 0-7.333 4.598-7.333 10.264 0 5.666 3.283 10.257 7.333 10.257a5.497 5.497 0 002.555-.639 10.565 10.565 0 018.882-.173 9.24 9.24 0 007.514 0 10.582 10.582 0 018.799.173c.78.404 1.645.618 2.524.624 4.05 0 7.334-4.591 7.334-10.257a13.097 13.097 0 00-1.525-6.304z" fill="#F2F2F2"/><path opacity=".03" d="M191.807 154.628a10.795 10.795 0 00-6.289.684 9.332 9.332 0 01-3.757.796 9.2 9.2 0 01-3.795-.819 10.604 10.604 0 00-8.881.181 5.468 5.468 0 01-2.548.638c-3.599 0-6.597-3.629-7.221-8.408a7.06 7.06 0 001.804-1.938c2.104-3.404 5.372-5.583 9.017-5.583 3.644 0 6.898 2.156 9.016 5.515a6.939 6.939 0 006.012 3.284h.097c2.833 0 5.335 2.299 6.545 5.65z" fill="#000"/><path d="M721.236 507.05l-5.823 3.69 3.532-6.417a5.725 5.725 0 00-3.517-1.263h-.09a7.21 7.21 0 01-1.21-.09l-1.969 1.247.842-1.502a7.04 7.04 0 01-3.449-2.623l-3.524 2.254 2.254-4.05a10.29 10.29 0 00-3.501-2.891 10.287 10.287 0 00-4.404-1.106c-3.666 0-6.935 2.179-9.016 5.583a6.772 6.772 0 01-6.012 3.223h-.195c-4.05 0-7.334 4.599-7.334 10.264 0 5.666 3.284 10.257 7.334 10.257a5.5 5.5 0 002.555-.639 10.58 10.58 0 018.881-.172 9.263 9.263 0 007.514 0 10.57 10.57 0 018.799.172 5.578 5.578 0 002.525.624c4.05 0 7.334-4.591 7.334-10.257a13.087 13.087 0 00-1.526-6.304z" fill="#F2F2F2"/><path opacity=".03" d="M710.274 522.064a10.779 10.779 0 00-6.289.684 9.366 9.366 0 01-3.757.796 9.213 9.213 0 01-3.795-.819 10.59 10.59 0 00-8.882.18 5.462 5.462 0 01-2.547.639c-3.599 0-6.597-3.629-7.221-8.408a7.078 7.078 0 001.804-1.939c2.103-3.404 5.372-5.583 9.016-5.583 3.645 0 6.898 2.157 9.017 5.516a6.928 6.928 0 006.011 3.283h.098c2.833 0 5.335 2.299 6.545 5.651z" fill="#000"/><path d="M180.227 526.586l-5.824 3.69 3.532-6.417a5.729 5.729 0 00-3.517-1.263h-.09a7.21 7.21 0 01-1.21-.09l-1.968 1.247.841-1.502a7.033 7.033 0 01-3.449-2.623l-3.524 2.254 2.254-4.05a10.295 10.295 0 00-7.904-3.997c-3.667 0-6.936 2.179-9.017 5.583a6.758 6.758 0 01-6.011 3.223h-.196c-4.05 0-7.333 4.599-7.333 10.265 0 5.665 3.283 10.256 7.333 10.256a5.508 5.508 0 002.555-.638 10.565 10.565 0 018.882-.173 9.256 9.256 0 007.514 0 10.566 10.566 0 018.799.173 5.57 5.57 0 002.524.623c4.05 0 7.334-4.591 7.334-10.256a13.087 13.087 0 00-1.525-6.305z" fill="#F2F2F2"/><path opacity=".03" d="M169.264 541.601a10.78 10.78 0 00-6.289.684 9.35 9.35 0 01-3.757.796 9.2 9.2 0 01-3.795-.819 10.59 10.59 0 00-8.881.18 5.469 5.469 0 01-2.548.639c-3.599 0-6.597-3.629-7.221-8.408a7.078 7.078 0 001.804-1.939c2.104-3.404 5.372-5.583 9.017-5.583 3.644 0 6.898 2.157 9.017 5.516a6.92 6.92 0 006.011 3.283h.097c2.833 0 5.335 2.3 6.545 5.651z" fill="#000"/><path d="M449.245 63.264l-11.684 7.394 7.078-12.872a11.533 11.533 0 00-7.048-2.517h-.188c-.81.016-1.62-.045-2.419-.18l-3.953 2.51 1.691-3.081a14.112 14.112 0 01-6.913-5.26l-7.07 4.508 4.463-8.13c-4.133-4.967-9.708-8.01-15.847-8.01-7.357 0-13.909 4.373-18.139 11.196a13.574 13.574 0 01-12.023 6.462h-.39c-8.123 0-14.705 9.205-14.705 20.566 0 11.361 6.582 20.566 14.705 20.566a10.972 10.972 0 005.117-1.285 21.247 21.247 0 0117.8-.346 18.571 18.571 0 0015.134.038 21.241 21.241 0 0117.635.338 11.062 11.062 0 005.072 1.255c8.123 0 14.705-9.205 14.705-20.566a26.119 26.119 0 00-3.021-12.586z" fill="#F2F2F2"/><path opacity=".03" d="M427.267 93.358a21.79 21.79 0 00-12.601 1.367 18.506 18.506 0 01-15.126 0 21.193 21.193 0 00-17.801.346 11.065 11.065 0 01-5.124 1.285c-7.214 0-13.217-7.274-14.465-16.862a13.708 13.708 0 003.607-3.885c4.231-6.815 10.783-11.188 18.139-11.188s13.841 4.283 18.064 11.045a13.897 13.897 0 0012.022 6.59h.188c5.703-.015 10.678 4.584 13.097 11.302z" fill="#000"/><path d="M847.475 192.212l-5.824 3.69 3.532-6.417a5.729 5.729 0 00-3.517-1.263h-.09a7.21 7.21 0 01-1.21-.09l-1.968 1.247.841-1.502a7.033 7.033 0 01-3.449-2.623l-3.524 2.254 2.255-4.05a10.308 10.308 0 00-7.905-3.997c-3.667 0-6.936 2.179-9.017 5.583a6.758 6.758 0 01-6.011 3.223h-.196c-4.05 0-7.333 4.599-7.333 10.265 0 5.665 3.283 10.256 7.333 10.256a5.508 5.508 0 002.555-.638 10.565 10.565 0 018.882-.173 9.256 9.256 0 007.514 0 10.566 10.566 0 018.799.173 5.57 5.57 0 002.524.623c4.05 0 7.334-4.591 7.334-10.256a13.087 13.087 0 00-1.525-6.305z" fill="#F2F2F2"/><path opacity=".03" d="M836.512 207.226a10.782 10.782 0 00-6.29.684 9.346 9.346 0 01-3.757.796 9.222 9.222 0 01-3.757-.819 10.604 10.604 0 00-8.881.18 5.468 5.468 0 01-2.547.639c-3.6 0-6.598-3.629-7.221-8.408a7.074 7.074 0 001.803-1.939c2.104-3.404 5.373-5.583 9.017-5.583 3.644 0 6.898 2.157 9.017 5.516a6.919 6.919 0 005.973 3.283h.098c2.833 0 5.335 2.3 6.545 5.651z" fill="#000"/></svg>