<svg width="900" height="580" viewBox="0 0 900 580" fill="none" xmlns="http://www.w3.org/2000/svg"><path d="M174.585 522.79a23.086 23.086 0 0022.295-3.927c7.809-6.554 10.257-17.349 12.249-27.347l5.892-29.574-12.336 8.494c-8.871 6.109-17.942 12.413-24.085 21.261-6.142 8.847-8.821 20.926-3.888 30.499" fill="#E6E6E6"/><path d="M176.49 560.652c-1.552-11.311-3.15-22.769-2.058-34.202.967-10.154 4.065-20.07 10.372-28.203 3.348-4.309 7.421-8 12.037-10.909 1.204-.759 2.312 1.148 1.113 1.905a44.6 44.6 0 00-17.643 21.286c-3.841 9.77-4.458 20.42-3.796 30.798.4 6.276 1.249 12.511 2.103 18.738a1.144 1.144 0 01-.77 1.356 1.111 1.111 0 01-1.357-.77l-.001.001z" fill="#F2F2F2"/><path d="M187.666 542.502a16.993 16.993 0 0014.809 7.646c7.498-.356 13.747-5.587 19.372-10.556l16.64-14.691-11.013-.528c-7.92-.379-16.044-.735-23.587 1.71-7.543 2.446-14.5 8.321-15.879 16.129" fill="#E6E6E6"/><path d="M172.102 567.155c7.475-13.226 16.145-27.926 31.637-32.624a35.302 35.302 0 0113.306-1.374c1.413.122 1.06 2.3-.35 2.178a32.806 32.806 0 00-21.235 5.618c-5.988 4.076-10.65 9.743-14.596 15.751-2.417 3.681-4.582 7.518-6.747 11.349-.692 1.225-2.715.34-2.015-.898z" fill="#F2F2F2"/><path d="M770.211 403.881H358.106a4.797 4.797 0 01-4.79-4.79V16.381a4.798 4.798 0 014.79-4.79h412.105a4.796 4.796 0 014.79 4.79V399.09a4.8 4.8 0 01-4.79 4.79v.001z" fill="#fff"/><path d="M770.211 403.881H358.106a4.797 4.797 0 01-4.79-4.79V16.381a4.798 4.798 0 014.79-4.79h412.105a4.796 4.796 0 014.79 4.79V399.09a4.8 4.8 0 01-4.79 4.79v.001zM358.106 13.504a2.876 2.876 0 00-2.871 2.871V399.09a2.88 2.88 0 002.871 2.872h412.105a2.876 2.876 0 002.871-2.872V16.382a2.88 2.88 0 00-2.871-2.872l-412.105-.006z" fill="#CACACA"/><path d="M552.836 111.041a3.254 3.254 0 00-3.246 3.252 3.253 3.253 0 003.246 3.252h178.435a3.252 3.252 0 000-6.504H552.836zm-.002 19.512a3.249 3.249 0 00-3.244 3.252 3.249 3.249 0 003.244 3.251h91.095a3.249 3.249 0 003.244-3.251 3.254 3.254 0 00-3.244-3.252h-91.095zM396.875 235.486a3.254 3.254 0 00-2.295 5.549 3.257 3.257 0 002.295.955h334.567a3.253 3.253 0 000-6.504H396.875zm0 19.513a3.253 3.253 0 000 6.504h247.227a3.25 3.25 0 003.243-3.252 3.253 3.253 0 00-3.243-3.252H396.875zm0 19.072a3.254 3.254 0 00-2.295 5.549 3.257 3.257 0 002.295.955h334.567a3.253 3.253 0 000-6.504H396.875zm0 19.513a3.253 3.253 0 000 6.504h247.227a3.25 3.25 0 003.243-3.252 3.253 3.253 0 00-3.243-3.252H396.875zm0 19.58a3.253 3.253 0 000 6.504h334.567a3.253 3.253 0 000-6.504H396.875zm0 19.512a3.253 3.253 0 00-2.295 5.548c.609.61 1.434.953 2.295.955h247.227a3.249 3.249 0 003.243-3.251 3.253 3.253 0 00-3.243-3.252H396.875z" fill="#E4E4E4"/><path d="M449.865 170.768a46.724 46.724 0 01-43.164-28.84 46.728 46.728 0 01-2.659-26.994 46.72 46.72 0 0192.543 9.114 46.773 46.773 0 01-46.72 46.72z" fill="#8D8D92"/><path d="M308.046 347.421a11.673 11.673 0 00-9.196-10.861 11.677 11.677 0 00-5.061.027l-15.443-21.763-15.514 6.159 22.24 30.428a11.74 11.74 0 0022.974-3.99z" fill="#A0616A"/><path d="M277.95 345.808l-46.727-60.62 17.508-55.025c1.283-13.835 9.94-17.698 10.308-17.856l.562-.241 15.236 40.63-11.187 29.83 27.457 46.179-13.157 17.103z" fill="#3F3D56"/><path d="M440.228 158.938a11.681 11.681 0 00-9.699 15.052l-20.504 17.079 7.34 14.992 28.617-24.526a11.737 11.737 0 007.16-13.854 11.736 11.736 0 00-12.914-8.743z" fill="#A0616A"/><path d="M440.942 189.07l-56.825 51.274-56.215-13.201c-13.892-.21-18.413-8.542-18.599-8.897l-.283-.542 39.329-18.331 30.606 8.846 43.918-30.945 18.069 11.796z" fill="#3F3D56"/><path d="M342.513 553.581l15.268-.001 7.262-58.891-22.533.001.003 58.891z" fill="#A0616A"/><path d="M387.227 567.755l-47.985.002-.001-18.539 34.523-.002a13.462 13.462 0 0113.462 13.462l.001 5.077z" fill="#2F2E41"/><path d="M281.49 553.581l15.268-.001 7.264-58.891-22.534.001.002 58.891z" fill="#A0616A"/><path d="M326.205 567.755l-47.984.002-.001-18.539 34.522-.002a13.458 13.458 0 0112.438 8.31 13.472 13.472 0 011.025 5.152v5.077zm-50.144-229.13l1.245 87.175 1.246 114.573 27.397-2.491 13.699-158.16 17.436 158.16h28.284l2.849-159.405-9.962-34.87-82.194-4.982z" fill="#2F2E41"/><path d="M329.684 350.331c-29.81.003-57.251-13.49-57.621-13.675l-.308-.154-2.501-60.036c-.726-2.122-15.01-43.985-17.43-57.291-2.451-13.481 33.075-25.312 37.389-26.696l.979-10.844 39.811-4.29 5.045 13.876 14.283 5.356a7.063 7.063 0 014.378 8.299l-7.938 32.281 19.387 106.801-4.173.18c-10.005 4.519-20.803 6.193-31.301 6.193z" fill="#3F3D56"/><path d="M325.405 166.962c13.891-7.594 18.996-25.01 11.402-38.901-7.593-13.89-25.009-18.995-38.9-11.402-13.891 7.594-18.996 25.01-11.402 38.9 7.593 13.891 25.009 18.996 38.9 11.403z" fill="#A0616A"/><path d="M288.441 169.561c5.463 5.819 15.608 2.695 16.32-5.254a9.662 9.662 0 00-.013-1.855c-.367-3.521-2.401-6.718-1.914-10.436a5.477 5.477 0 011.001-2.562c4.354-5.829 14.572 2.607 18.68-2.67 2.519-3.235-.442-8.33 1.491-11.946 2.552-4.773 10.109-2.419 14.848-5.033 5.273-2.908 4.957-10.998 1.487-15.919-4.233-6.001-11.655-9.203-18.984-9.665-7.33-.461-14.609 1.52-21.451 4.187-7.775 3.029-15.484 7.217-20.269 14.053-5.818 8.313-6.378 19.49-3.468 29.211 1.77 5.914 7.811 13.137 12.272 17.889z" fill="#2F2E41"/><path d="M490.066 568.494H126.793a.956.956 0 01-.953-.954.954.954 0 01.953-.953h363.273a.952.952 0 01.674 1.628.956.956 0 01-.674.279z" fill="#CACACA"/><path d="M447.167 141.695a3.325 3.325 0 01-2.27-.892l-15.406-14.31a3.336 3.336 0 012.149-5.777 3.336 3.336 0 012.393.887l13.049 12.121 25.817-25.817a3.317 3.317 0 011.083-.728 3.324 3.324 0 012.56-.005 3.343 3.343 0 012.063 3.091 3.343 3.343 0 01-.987 2.362l-28.09 28.09a3.334 3.334 0 01-2.361.978z" fill="#fff"/></svg>