<svg width="900" height="580" viewBox="0 0 900 580" fill="none" xmlns="http://www.w3.org/2000/svg"><g clip-path="url(#clip0_793_14)"><path d="M374.083 523.036l-17.553 16.16 13.95-23.407c-10.991-19.93-28.966-37.155-28.966-37.155s-37.291 35.728-37.291 63.813 16.696 37.891 37.291 37.891c20.596 0 37.292-9.806 37.292-37.891 0-6.251-1.85-12.88-4.723-19.411z" fill="#F2F2F2"/><path d="M352.014 540.071v1.384c-.082 16.092-2.796 28.647-8.121 37.487-.075.131-.157.254-.233.384l-.596-.363-.569-.356c5.908-9.547 7.998-23.041 8.073-37.076.007-.453.014-.912.007-1.371-.02-5.942-.384-11.952-.966-17.791-.041-.452-.089-.911-.137-1.371-.809-7.703-1.974-15.063-3.166-21.457a87.291 87.291 0 00-.261-1.35c-2.063-10.814-4.167-18.648-4.646-20.382-.055-.212-.089-.328-.096-.356l.651-.185.007-.007.658-.185c.006.028.123.418.315 1.145.733 2.714 2.638 10.081 4.509 19.799.082.438.172.891.254 1.343a278.95 278.95 0 012.679 17.071c.192 1.529.364 3.036.514 4.523.055.459.103.919.144 1.371.631 6.312.957 12.226.98 17.743z" fill="#fff"/><path d="M347.445 498.02c-.459.061-.925.123-1.398.171a37.795 37.795 0 01-3.865.199 36.787 36.787 0 01-15.9-3.591c-.287.363-.575.726-.87 1.096a38.13 38.13 0 0016.77 3.866 39.229 39.229 0 004.126-.22c.466-.048.932-.109 1.391-.178a37.842 37.842 0 0010.931-3.31c-.295-.377-.583-.747-.864-1.11a36.666 36.666 0 01-10.321 3.077zm3.447 22.938c-.473.027-.946.041-1.419.041-.144.007-.294.007-.438.007a36.976 36.976 0 01-30.346-15.852c-.275.405-.549.809-.816 1.22a38.352 38.352 0 0031.162 16.002c.192 0 .383 0 .575-.006.48-.007.953-.021 1.426-.042a38.14 38.14 0 0020.32-7.127c-.22-.404-.439-.809-.665-1.213a36.72 36.72 0 01-19.799 6.97z" fill="#fff"/><path d="M352.015 540.071a37.774 37.774 0 01-2.981.123 37.072 37.072 0 01-35.54-26.673c-.309.556-.617 1.104-.912 1.659a38.437 38.437 0 0013.96 19.086 38.437 38.437 0 0022.492 7.299c.514 0 1.028-.007 1.535-.034.487-.014.967-.042 1.446-.076a38.32 38.32 0 0025.289-12.342c-.144-.508-.309-1.008-.473-1.515a36.956 36.956 0 01-24.816 12.473z" fill="#fff"/><path d="M750 5H134.076v326.325H750V5z" fill="#F0F0F0"/><path d="M749.999 66.083v-3.2H630.104V5h-3.201v57.883H507.007V5h-3.2v57.883H383.911V5h-3.2v57.883H260.814V5h-3.2v57.883H134.076v3.2h123.538v63.945H134.076v3.2h123.538v63.946H134.076v3.2h123.538v63.933H134.076v3.201h123.538v63.817h3.2v-63.817h119.897v63.817h3.2v-63.817h119.896v63.817h3.2v-63.817h119.896v63.817h3.201v-63.817h119.895v-3.201H630.104v-63.933h119.895v-3.2H630.104v-63.946h119.895v-3.2H630.104V66.083h119.895zM380.711 264.307H260.814v-63.933h119.897v63.933zm0-67.133H260.814v-63.946h119.897v63.946zm0-67.146H260.814V66.083h119.897v63.945zm123.096 134.28H383.911v-63.934h119.896v63.934zm0-67.134H383.911v-63.946h119.896v63.946zm0-67.146H383.911V66.083h119.896v63.945zm123.096 134.28H507.007v-63.934h119.896v63.934zm0-67.134H507.007v-63.946h119.896v63.946zm0-67.146H507.007V66.083h119.896v63.945z" fill="#fff"/><path d="M325.872 81.634h-41.206v39.892h41.206V81.634zm379.367 129.171h-41.206v39.892h41.206v-39.892zm-366.567 66.331h-41.205v39.892h41.205v-39.892z" fill="#CACACA"/><path d="M350.85 74.232h-41.205v39.892h41.205V74.232z" fill="#3F3D56"/><path d="M544.551 240.056l48.897-43.566 14.426 7.148-58.646 61.511-4.677-25.093z" fill="#FFB6B6"/><path d="M599.883 211.463c6.427 0 11.637-5.21 11.637-11.637 0-6.426-5.21-11.637-11.637-11.637-6.427 0-11.637 5.211-11.637 11.637 0 6.427 5.21 11.637 11.637 11.637zM498.782 567.964h-11.571l-5.504-44.628 17.076.001-.001 44.627z" fill="#FFB6B6"/><path d="M501.731 579.179l-37.307-.001v-.472a14.52 14.52 0 0114.521-14.52h22.786v14.993z" fill="#2F2E41"/><path d="M456.889 567.964h-11.57l-5.505-44.628 17.077.001-.002 44.627z" fill="#FFB6B6"/><path d="M459.838 579.179l-37.307-.001v-.472a14.52 14.52 0 0114.521-14.52h22.787l-.001 14.993zm48.66-266.318s29.093-2.327 19.783 48.875c-9.309 51.203-28.593 191.268-28.593 191.268l-17.483 2.403-10.328-186.843-7.815 186.843-22.235-2.403-21.77-200.577s-6.99-16.127-.004-27.265c6.986-11.137 88.445-12.301 88.445-12.301z" fill="#2F2E41"/><path d="M489.877 186.018l8.077-4.328s19.901-1.697 28.022 21.68l21.539 32.532 34.911-30.256 15.128 10.473-43.998 52.512-18.295 2.337-39.566-51.203-5.818-33.747z" fill="#3F3D56"/><path d="M460.569 91.603c-33.186 0-42.475 36.455-42.475 57.021 0 20.566 19.016 17.455 42.475 17.455 10.069 0 19.313.569 26.593-.403l3.501-8.55 2.818 7.084c5.975-2.195 9.563-6.658 9.563-15.586 0-20.566-8.146-57.021-42.475-57.021z" fill="#2F2E41"/><path d="M460.427 166.045c15.786 0 28.582-12.796 28.582-28.581 0-15.786-12.796-28.582-28.582-28.582-15.785 0-28.581 12.796-28.581 28.582 0 15.785 12.796 28.581 28.581 28.581z" fill="#FFB6B6"/><path d="M427.404 134.66h11.305l4.987-13.965.997 13.965h5.403l2.91-8.146.582 8.146h40.147a30.253 30.253 0 00-30.256-30.257h-5.818a30.257 30.257 0 00-30.257 30.257z" fill="#2F2E41"/><path d="M618.502 155.691h-41.205v39.892h41.205v-39.892zm-100.961 146.64c-4.389.056-17.607-78.375-17.607-78.375l-1.978-42.266-14.443-.485v-.951a7.194 7.194 0 00-7.193-7.192h-27.508a7.183 7.183 0 00-7.169 6.735l-11.326-.381-19.616 62.321s18.075 57.906 9.351 83.425c0 0 84.995 7.299 101.266-8.902 0 0 .611-13.986-3.777-13.929z" fill="#3F3D56"/><path d="M435.185 187.182l-4.868-7.765s-15.838-3.915-22.359 6.58c-6.52 10.495-25.687 67.361-25.687 67.361l19.783 6.982 22.45-31.473 10.681-41.685zm49.491 40.659h-41.205v39.892h41.205v-39.892z" fill="#3F3D56"/><path d="M411.856 242.259l-14.335-1.517a14.071 14.071 0 00.181 12.31 14.055 14.055 0 009.8 7.45l56.723 11.321-5.917-18.222-46.452-11.342z" fill="#FFB6B6"/><path d="M464.397 272.033c6.427 0 11.637-5.21 11.637-11.637 0-6.427-5.21-11.637-11.637-11.637-6.427 0-11.637 5.21-11.637 11.637 0 6.427 5.21 11.637 11.637 11.637z" fill="#FFB6B6"/><path d="M449.869 272.388l-43.213-9.875a18.667 18.667 0 01-13.537-12.382l-1.746-5.386 11.215-8.825 51.381 14.361-4.1 22.107z" fill="#3F3D56"/></g><defs><clipPath id="clip0_793_14"><path fill="#fff" d="M0 0h900v580H0z"/></clipPath></defs></svg>