<svg width="900" height="580" viewBox="0 0 900 580" fill="none" xmlns="http://www.w3.org/2000/svg"><path d="M485.556 247.968h-71.114a21.357 21.357 0 01-21.335-21.334V93.456a21.36 21.36 0 0121.335-21.334h71.114a21.357 21.357 0 0121.335 21.334v133.178a21.358 21.358 0 01-21.335 21.334z" fill="#F2F2F2"/><path d="M813.331 19.755H86.669A42.71 42.71 0 0044 62.424v199.121a42.711 42.711 0 0042.669 42.668H813.33A42.71 42.71 0 00856 261.545V62.424a42.709 42.709 0 00-42.669-42.67zm40.083 241.79a40.13 40.13 0 01-40.083 40.082H86.669a40.13 40.13 0 01-40.083-40.082V62.424A40.134 40.134 0 0186.669 22.34H813.33a40.133 40.133 0 0140.083 40.083v199.121z" fill="#3F3D56"/><path d="M158.752 207.886a15.515 15.515 0 1115.516-15.516 15.536 15.536 0 01-15.516 15.516zm0-28.446a12.927 12.927 0 00-11.945 7.982 12.928 12.928 0 0016.893 16.894 12.934 12.934 0 007.982-11.946 12.943 12.943 0 00-12.93-12.93zm-.51-6.465a1.29 1.29 0 01-.914-.379 1.29 1.29 0 01-.379-.914v-14.869a1.294 1.294 0 112.586 0v14.869c0 .343-.136.672-.379.914a1.29 1.29 0 01-.914.379zm-20.177 20.179h-14.87a1.294 1.294 0 01-1.293-1.293 1.295 1.295 0 011.293-1.293h14.87a1.294 1.294 0 010 2.586zm54.306 0h-14.869a1.293 1.293 0 110-2.586h14.869a1.294 1.294 0 010 2.586zm-15.279-14.138a1.294 1.294 0 01-.9-2.221l6.226-6.041a1.296 1.296 0 011.829.027 1.293 1.293 0 01-.028 1.829l-6.227 6.041a1.284 1.284 0 01-.9.365zm-37.972 0c-.337 0-.66-.131-.901-.365l-6.227-6.041a1.29 1.29 0 01-.301-1.405 1.28 1.28 0 01.689-.71 1.276 1.276 0 01.989-.015c.158.062.302.155.424.274l6.227 6.041a1.288 1.288 0 01.298 1.414 1.295 1.295 0 01-1.198.807zm-4.935 35.334a1.295 1.295 0 01-1.19-.789 1.292 1.292 0 01.263-1.405l6.227-6.412a1.291 1.291 0 012.22.882c.006.343-.126.674-.365.92l-6.227 6.412a1.283 1.283 0 01-.928.392zm50.427 1.294a1.295 1.295 0 01-.926-.39l-7.52-7.706a1.293 1.293 0 011.851-1.806l7.52 7.706a1.294 1.294 0 01-.925 2.196zm-26.37 12.93a1.294 1.294 0 01-1.293-1.293v-14.87c0-.343.136-.672.379-.914a1.29 1.29 0 011.828 0c.243.242.379.571.379.914v14.87a1.291 1.291 0 01-1.293 1.293zm169.135-11.638h-43.163a16.811 16.811 0 010-33.617h3.301a20.312 20.312 0 0118.281-11.637 20.51 20.51 0 0120.296 19.395h1.285a12.926 12.926 0 0112.718 12.929 12.933 12.933 0 01-12.718 12.93zm-43.163-31.031a14.221 14.221 0 00-13.94 14.222 14.227 14.227 0 0013.94 14.223h43.163a10.345 10.345 0 000-20.687h-2.539a1.294 1.294 0 01-1.293-1.293 17.949 17.949 0 00-17.749-18.102 17.738 17.738 0 00-16.259 10.854 1.296 1.296 0 01-1.188.783h-4.135zm187.34 6.538l-1.007-2.382a12.93 12.93 0 004.07-21.096 12.926 12.926 0 00-11.665-3.492 12.939 12.939 0 00-5.667 2.697 12.945 12.945 0 00-3.729 5.048l-2.39-.986a15.524 15.524 0 0111.274-9.294 15.524 15.524 0 0113.997 4.19 15.514 15.514 0 014.312 13.96 15.516 15.516 0 01-9.195 11.355z" fill="#3F3D56"/><path d="M473.486 216.936h-43.162a16.807 16.807 0 01-16.527-16.809 16.808 16.808 0 0116.527-16.808h3.301a20.309 20.309 0 0118.28-11.637 20.512 20.512 0 0120.296 19.395h1.285a12.934 12.934 0 019.006 21.998 12.929 12.929 0 01-9.006 3.861zm-43.162-31.031a14.223 14.223 0 00-9.874 24.18 14.218 14.218 0 009.874 4.265h43.162a10.347 10.347 0 007.178-17.583 10.343 10.343 0 00-7.178-3.104h-2.539a1.295 1.295 0 01-1.293-1.293 17.945 17.945 0 00-17.749-18.102 17.74 17.74 0 00-16.259 10.854 1.296 1.296 0 01-1.188.783h-4.134zm189.27 24.567h-5.19a1.294 1.294 0 010-2.586h5.19a10.346 10.346 0 000-20.688h-2.539a1.294 1.294 0 01-1.293-1.293 17.95 17.95 0 00-17.75-18.102 17.743 17.743 0 00-16.259 10.854 1.287 1.287 0 01-1.188.783h-4.134a14.222 14.222 0 00-13.94 14.223 14.226 14.226 0 0013.94 14.223h4.009a1.294 1.294 0 011.293 1.293 1.295 1.295 0 01-1.293 1.293h-4.009a16.815 16.815 0 01-16.527-16.809 16.813 16.813 0 0116.527-16.809h3.301a20.312 20.312 0 0118.28-11.637 20.517 20.517 0 0120.297 19.395h1.285a12.932 12.932 0 010 25.86z" fill="#3F3D56"/><path d="M597.797 216.053a1.29 1.29 0 01-.914-.379 1.29 1.29 0 01-.379-.914v-14.869a1.294 1.294 0 112.586 0v14.869c0 .343-.136.672-.379.914a1.29 1.29 0 01-.914.379zm-9.051 7.758a1.29 1.29 0 01-.914-.379 1.29 1.29 0 01-.379-.914v-14.87a1.293 1.293 0 012.586 0v14.87c0 .343-.136.672-.379.914a1.29 1.29 0 01-.914.379zm18.104 3.879a1.294 1.294 0 01-1.293-1.293v-14.87a1.294 1.294 0 011.293-1.293 1.295 1.295 0 011.293 1.293v14.87a1.294 1.294 0 01-1.293 1.293zm158.853-17.218h-5.19a1.294 1.294 0 010-2.586h5.19a10.346 10.346 0 000-20.688h-2.539a1.294 1.294 0 01-1.293-1.293 17.95 17.95 0 00-17.749-18.102 17.746 17.746 0 00-16.259 10.854 1.296 1.296 0 01-1.188.783h-4.134a14.226 14.226 0 000 28.446h4.008a1.293 1.293 0 110 2.586h-4.008a16.812 16.812 0 010-33.618h3.301a20.309 20.309 0 0118.28-11.637 20.514 20.514 0 0120.296 19.395h1.285a12.93 12.93 0 010 25.86z" fill="#3F3D56"/><path d="M741.894 207.239a2.91 2.91 0 100-5.818 2.91 2.91 0 000 5.818zm9.697 3.879a2.908 2.908 0 10.001-5.817 2.908 2.908 0 00-.001 5.817zm-16.162 4.526a2.91 2.91 0 10-.002-5.82 2.91 2.91 0 00.002 5.82zm10.344 6.465a2.91 2.91 0 10-.002-5.82 2.91 2.91 0 00.002 5.82z" fill="#3F3D56"/><path d="M195.281 112.205h-74.994a10.344 10.344 0 010-20.688h74.994a10.344 10.344 0 010 20.688zm146.107 0h-74.993a10.345 10.345 0 110-20.688h74.993a10.345 10.345 0 110 20.688zm146.11 0h-74.994a10.344 10.344 0 010-20.688h74.994a10.344 10.344 0 010 20.688zm146.107 0h-74.993a10.345 10.345 0 110-20.688h74.993a10.34 10.34 0 0110.344 10.344 10.344 10.344 0 01-10.344 10.344zm146.108 0h-74.994a10.344 10.344 0 010-20.688h74.994a10.344 10.344 0 010 20.688z" fill="#8D8D92"/><path d="M227.605 233.746a1.293 1.293 0 01-1.293-1.293v-98.267a1.296 1.296 0 012.208-.915c.242.243.378.572.378.915v98.267a1.293 1.293 0 01-1.293 1.293zm146.108-1.293a1.29 1.29 0 01-.914-.379 1.29 1.29 0 01-.379-.914v-98.267a1.294 1.294 0 112.586 0v98.267c0 .343-.136.672-.379.914a1.29 1.29 0 01-.914.379zm153.867 0a1.29 1.29 0 01-.914-.379 1.29 1.29 0 01-.379-.914v-98.267a1.294 1.294 0 112.586 0v98.267c0 .343-.136.672-.379.914a1.29 1.29 0 01-.914.379zm146.108 0a1.294 1.294 0 01-1.293-1.293v-98.267c0-.343.136-.672.378-.915a1.297 1.297 0 011.829 0c.242.243.379.572.379.915v98.267a1.294 1.294 0 01-1.293 1.293z" fill="#E6E6E6"/><path d="M657.144 559.106c-9.915-.411-18.949-4.413-23.036-10.613-.191-.29-.371-.584-.54-.882-1.492-2.642-1.958-5.679-.327-8.281 1.632-2.603 5.707-4.58 9.799-4.17 4.093.411 7.288 3.675 5.595 6.259-.379-5.222-.688-10.708 3.521-15.253a15.392 15.392 0 018.618-4.454c8.483-1.491 14.115 3.305 15.243 8.148.832 3.575-.318 7.211-1.462 10.745 3.527-4.172 11.918-6.028 18.344-4.058 6.425 1.971 9.991 7.493 7.795 12.073-2.586 5.395-11.208 8.184-19.217 9.658-6.613 1.217-16.53 1.152-24.333.828zm-345.228 0c-9.916-.411-18.95-4.413-23.036-10.613-.191-.29-.372-.584-.54-.882-1.493-2.642-1.958-5.679-.327-8.281 1.631-2.603 5.706-4.58 9.799-4.17 4.093.411 7.288 3.675 5.594 6.259-.378-5.222-.688-10.708 3.522-15.253a15.388 15.388 0 018.618-4.454c8.482-1.491 14.114 3.305 15.242 8.148.833 3.575-.317 7.211-1.462 10.745 3.528-4.172 11.919-6.028 18.344-4.058 6.426 1.971 9.991 7.493 7.796 12.073-2.587 5.395-11.209 8.184-19.218 9.658-6.613 1.217-16.53 1.152-24.332.828z" fill="#F2F2F2"/><path d="M431.002 544.938h-15.851l-7.542-61.143 23.396.001-.003 61.142z" fill="#FFB8B8"/><path d="M435.042 560.305l-51.112-.002v-.646a19.885 19.885 0 015.827-14.068 19.894 19.894 0 0114.067-5.826h.002l31.217.001-.001 20.541z" fill="#2F2E41"/><path d="M608.084 530.108l-14.943 5.291-27.522-55.117 22.053-7.809 20.412 57.635z" fill="#FFB8B8"/><path d="M617.022 543.242l-48.18 17.063-.216-.61a19.889 19.889 0 01.796-15.205 19.89 19.89 0 0111.315-10.189l.001-.001 29.427-10.421 6.857 19.363zM430.56 524.41c-.356 0-.711-.032-1.061-.096l-19.384-3.524a5.84 5.84 0 01-4.781-5.607c-2.818-130.482 11.035-218.165 41.173-281.014a5.786 5.786 0 016.066-3.209l69.707 10.064a5.828 5.828 0 014.95 5.103l6.146 54.181a4.6 4.6 0 00.184.861l66.834 200.245a5.847 5.847 0 01-3.706 7.281l-18.061 6.02a5.847 5.847 0 01-7.045-2.918l-90.404-170.464a1.946 1.946 0 00-1.974-1.057 1.936 1.936 0 00-1.655 1.509l-41.326 178.052a5.79 5.79 0 01-5.663 4.573z" fill="#2F2E41"/><path d="M375.468 128.492c.159.698.262 1.407.31 2.121l55.543 32.043 13.501-7.773 14.393 18.842-22.564 16.082a10.341 10.341 0 01-12.41-.302l-57.275-45.185a13.571 13.571 0 01-18.2-11.217 13.569 13.569 0 017.302-13.592 13.573 13.573 0 0115.296 2.019 13.567 13.567 0 014.104 6.962z" fill="#FFB8B8"/><path d="M432.083 159.453a5.827 5.827 0 012.86-3.912l25.488-14.252a16.161 16.161 0 0119.818 25.529l-20.323 21.103a5.81 5.81 0 01-4.509 1.774 5.824 5.824 0 01-4.288-2.256l-17.952-23.266a5.817 5.817 0 01-1.094-4.72z" fill="#8D8D92"/><path d="M491.439 125.298c17.539 0 31.757-14.218 31.757-31.758 0-17.539-14.218-31.757-31.757-31.757s-31.757 14.218-31.757 31.757c0 17.54 14.218 31.758 31.757 31.758z" fill="#FFB8B8"/><path d="M522.362 247.798a5.946 5.946 0 01-.942-.077l-68.726-11.267a5.815 5.815 0 01-3.862-2.458 5.83 5.83 0 01-.889-4.491l3.344-15.763c-1.712-2.553-15.649-24.755 1.326-45.61a28.456 28.456 0 0126.42-29.638l35.517-2.698a28.602 28.602 0 0124.228 10.313 28.614 28.614 0 015.539 25.742l-16.282 71.421a5.835 5.835 0 01-5.673 4.526z" fill="#8D8D92"/><path d="M586.542 307.522a13.904 13.904 0 002.042-11.575 13.904 13.904 0 00-2.784-5.338 13.875 13.875 0 00-4.78-3.658l-39.13-120.309-22.677 10.76 42.815 117.143a13.965 13.965 0 0024.514 12.977z" fill="#FFB8B8"/><path d="M550.546 186.671l-30.112 9.096a6.232 6.232 0 01-5.138-.703 6.228 6.228 0 01-2.824-4.35l-4.572-31.026a17.3 17.3 0 0111.631-21.486 17.294 17.294 0 0121.514 11.58l13.334 28.272a6.233 6.233 0 01-3.833 8.617z" fill="#8D8D92"/><path d="M460.57 94.767a39.363 39.363 0 0041.648-8.746c-3.331 8.8-2.4 46.126-2.4 46.126s29.541-14.025 33.549-16.477c23.671-14.487-8.976-77.506-36.135-67.568-4.6 1.684-8.441 3.664-10.302 8.195-4.055-5.002-11.732-6.087-17.637-3.518-5.904 2.57-10.102 8.138-12.359 14.169a35.441 35.441 0 002.577 29.885l1.059-2.066z" fill="#000"/></svg>