<svg width="900" height="580" viewBox="0 0 900 580" fill="none" xmlns="http://www.w3.org/2000/svg"><path d="M436.044 329.856a2.752 2.752 0 011.475 1.516 2.752 2.752 0 01-.029 2.115l-3.753 8.719.425.217-2.559 5.917-.41-.227-13.446 31.233a4.795 4.795 0 01-5.713 2.715l-20.907-5.94a3.624 3.624 0 01-2.636-3.539 3.64 3.64 0 01.359-1.527l21.074-43.699a4.489 4.489 0 015.056-2.424l20.573 4.765c.168.037.333.091.491.159z" fill="#3F3D56"/><path d="M418.645 328.299l10.815 2.505a.907.907 0 001.006-.457 1.036 1.036 0 011.14-.518l2.278.528a2.18 2.18 0 011.512 2.985l-19.461 45.296a2.493 2.493 0 01-3.007 1.401l-20.76-6.264a1.929 1.929 0 01-1.202-1.061 1.932 1.932 0 01.02-1.603l20.569-43.42a3.106 3.106 0 013.503-1.694l2.402.556a1.548 1.548 0 001.185 1.746z" fill="#3F3D56"/><path d="M367.157 565.908l12.85-.001 6.111-49.565-18.966.001.005 49.565z" fill="#FFB8B8"/><path d="M404.791 577.837l-40.386.004-.002-15.604 24.783-.003a15.605 15.605 0 0115.605 15.603z" fill="#2F2E41"/><path d="M297.891 565.908l12.851-.001 6.111-49.565-18.966.001.004 49.565z" fill="#FFB8B8"/><path d="M335.527 577.837l-40.386.004-.001-15.604 24.782-.003a15.604 15.604 0 0115.605 15.603z" fill="#2F2E41"/><path d="M335.525 213.55c15.248 0 27.608-12.36 27.608-27.608 0-15.247-12.36-27.607-27.608-27.607-15.247 0-27.607 12.36-27.607 27.607 0 15.248 12.36 27.608 27.607 27.608zm94.399 152.439a10.542 10.542 0 00-13.592-8.745l-15.429-18.495-13.526 6.635 22.155 25.813a10.599 10.599 0 0020.392-5.208zm-132.786 18.706a10.535 10.535 0 00.036-8.919 10.54 10.54 0 00-6.815-5.753l-3.097-23.886-14.975-1.658 4.848 33.671a10.6 10.6 0 0014.615 11.803 10.59 10.59 0 005.388-5.258z" fill="#FFB8B8"/><path d="M276.183 370.089a5.062 5.062 0 01-5.003-4.316l-7.371-49.636a35.675 35.675 0 012.171-18.493l22.629-56.472a14.136 14.136 0 0111.151-8.745 14.148 14.148 0 0113.138 5.315 14.111 14.111 0 011.753 14.464l-10.667 23.861a162.835 162.835 0 00-13.066 85.392 5.054 5.054 0 01-3.539 5.424l-9.71 2.983a5.063 5.063 0 01-1.486.223z" fill="#CCC"/><path d="M328.805 213.55a29.462 29.462 0 01-28.529-19.981 29.452 29.452 0 0110.47-33.218 29.454 29.454 0 0123.578-5.055c6.071-3.686 13.129-6.167 20.204-5.536 7.075.631 14.071 4.831 16.717 11.423 2.645 6.591-.197 15.28-6.775 17.959-4.217 1.717-8.98.884-13.48.192-4.501-.693-9.41-1.145-13.327 1.177-3.917 2.323-5.678 8.549-2.17 11.453a12.063 12.063 0 013.467 13.286c-1.763 4.559-6.575 8.222-10.155 8.3zM294.15 555.921a5.062 5.062 0 01-5.058-5.191l4.911-186.383.535-.013 81.185-1.77L389.741 543.8a5.078 5.078 0 01-3.351 5.128l-.154.031-15.934.974a5.05 5.05 0 01-5.677-1.776 5.056 5.056 0 01-.876-1.914l-25.974-116.221a1.69 1.69 0 00-1.698-1.318 1.691 1.691 0 00-1.613 1.421l-19.188 120.709a5.09 5.09 0 01-1.619 2.963 5.089 5.089 0 01-3.119 1.295l-16.132.823a5.499 5.499 0 01-.256.006z" fill="#2F2E41"/><path d="M318.044 379.774c-10.103 0-18.926-1.526-23.797-5.881-3.131-2.799-4.485-6.605-4.025-11.312 1.732-17.695-1.268-56.481-4.09-85.902a52.256 52.256 0 0112.05-38.527 49.78 49.78 0 0134.697-17.727c9.294-.662 31.059-2.206 37.824 15.122 10.162 26.028 5.192 37.964.385 49.508-4.084 9.806-8.307 19.948-3.13 38.991a284.513 284.513 0 0010.371 31.021c2.803 7.187 4.21 10.795 2.911 13.151-1.025 1.859-3.581 2.669-7.939 3.512-1.424.276-3.305.676-5.545 1.152-11.389 2.421-32.424 6.892-49.712 6.892z" fill="#CCC"/><path d="M400.989 363.461l-.117-.001a5.048 5.048 0 01-3.794-1.848l-28.617-34.872a54.425 54.425 0 01-11.659-25.903l-8.812-55.068a14.153 14.153 0 012.593-10.643 14.135 14.135 0 019.414-5.6 14.136 14.136 0 0110.59 2.801 14.16 14.16 0 015.414 9.522l3.503 29.208a150.922 150.922 0 0030.286 74.112l2.002 2.598a5.053 5.053 0 01-.248 6.472l-6.797 7.549a5.05 5.05 0 01-3.758 1.673zm121.06-53.226a47.207 47.207 0 01-43.616-29.144 47.205 47.205 0 0110.234-51.448 47.205 47.205 0 0151.449-10.234 47.211 47.211 0 0129.143 43.616 47.267 47.267 0 01-47.21 47.21zm0-92.171a44.957 44.957 0 00-41.539 27.755 44.962 44.962 0 1086.501 17.206 45.01 45.01 0 00-44.962-44.961z" fill="#CCC"/><path d="M543.037 237.17l-41.661.003a4.078 4.078 0 00-3.885 2.341 4.09 4.09 0 00-.38 1.547l.004 41.753a4.393 4.393 0 004.266 4.277l41.648-.003a4.17 4.17 0 004.004-4.278l-.004-41.753a3.824 3.824 0 00-3.992-3.887zm-30.449 41.611l-7.151.001-.002-22.235h7.151l.002 22.234zm-3.33-25.615h-.052a3.885 3.885 0 01-3.862-3.901 3.886 3.886 0 013.888-3.875 3.89 3.89 0 013.888 3.875 3.886 3.886 0 01-3.862 3.901zm29.466 25.613l-7.151.001-.002-12.158c0-2.912-1.041-4.902-3.628-4.902a3.906 3.906 0 00-3.667 2.64 4.823 4.823 0 00-.247 1.756l.001 12.664-7.151.001-.002-22.235h7.151l.001 3.094a7.245 7.245 0 016.448-3.615c4.695-.001 8.246 3.093 8.247 9.764v12.99zm21.958 43.789c10.509 0 19.029-8.519 19.029-19.029s-8.52-19.029-19.029-19.029c-10.51 0-19.03 8.519-19.03 19.029s8.52 19.029 19.03 19.029z" fill="#3F3D56"/><path d="M558.327 298.783a2.42 2.42 0 00.625 1.775 2.21 2.21 0 001.664.636 2.255 2.255 0 001.684-.643 2.44 2.44 0 00.632-1.782 2.367 2.367 0 00-.624-1.714 2.195 2.195 0 00-1.652-.643 2.258 2.258 0 00-1.697.65 2.36 2.36 0 00-.632 1.721zm-.342 8.51a3.562 3.562 0 00.783 2.452 2.507 2.507 0 001.954.881 2.431 2.431 0 001.895-.847c.543-.695.81-1.566.749-2.446a3.216 3.216 0 00-.762-2.241 2.484 2.484 0 00-1.935-.848 2.295 2.295 0 00-2.02.962 3.598 3.598 0 00-.664 2.087zm-.421-4.675a4.337 4.337 0 01-2.086-1.715 4.568 4.568 0 01-.651-2.39 4.874 4.874 0 011.506-3.673 7.036 7.036 0 018.554 0 4.865 4.865 0 011.52 3.673 4.353 4.353 0 01-2.659 4.105 5.039 5.039 0 013.278 4.877 5.893 5.893 0 01-1.729 4.497 5.867 5.867 0 01-4.509 1.696 6.721 6.721 0 01-4.383-1.422 5.617 5.617 0 01-2.065-4.609 5.814 5.814 0 01.776-2.958 5.03 5.03 0 012.448-2.081z" fill="#fff"/><path d="M628.833 138.257a47.214 47.214 0 01-26.229-7.956 47.216 47.216 0 01-20.074-48.464 47.215 47.215 0 0137.092-37.092 47.21 47.21 0 0156.42 46.303 47.259 47.259 0 01-47.209 47.209zm0-92.171a44.963 44.963 0 1044.961 44.962 45.01 45.01 0 00-44.961-44.962z" fill="#CCC"/><path d="M655.81 78.118l5.62-1.124s-4.721 5.283-5.62 5.62a22.593 22.593 0 000 3.373c-10.791 46.31-50.581 25.852-50.581 25.852 14.5.338 15.736-5.62 15.736-5.62-8.43-1.236-10.116-6.744-10.116-6.744a3.473 3.473 0 004.496-1.124c-9.105-2.36-7.868-11.24-7.868-11.24a11.685 11.685 0 005.507 2.135c-1.011-1.236-9.554-11.465-4.383-16.748 0 0 6.294 11.24 22.818 12.252l1.124-.225a8.829 8.829 0 01-.225-2.473A11.8 11.8 0 01644.12 70.25c7.869 0 9.555 4.496 9.555 4.496l5.62-3.372c-.113 0-.675 5.62-3.485 6.744zm7.434 74.949c10.51 0 19.029-8.519 19.029-19.029s-8.519-19.029-19.029-19.029c-10.509 0-19.029 8.519-19.029 19.029s8.52 19.029 19.029 19.029z" fill="#3F3D56"/><path d="M660.981 137.149a4.458 4.458 0 00.816 2.867 2.367 2.367 0 001.866 1.011 2.082 2.082 0 001.684-.827c.52-.805.757-1.758.675-2.712a4.516 4.516 0 00-.727-2.841 2.272 2.272 0 00-2.786-.68 2.262 2.262 0 00-.803.639 3.859 3.859 0 00-.725 2.543zm8.254-8.312l-3.525.408a2.743 2.743 0 00-.675-1.681 1.913 1.913 0 00-1.412-.542 2.35 2.35 0 00-1.95 1.084 9.48 9.48 0 00-1.005 4.517 4.181 4.181 0 013.383-1.684 5.069 5.069 0 013.906 1.819 6.764 6.764 0 011.626 4.691 6.91 6.91 0 01-1.71 4.895 6.049 6.049 0 01-7.151 1.153 6.064 6.064 0 01-1.97-1.649c-1.236-1.559-1.854-4.115-1.854-7.667 0-3.644.644-6.27 1.931-7.878a6.129 6.129 0 015.015-2.414 5.18 5.18 0 013.583 1.267 6.045 6.045 0 011.808 3.681z" fill="#fff"/><path d="M446.739 94.42a47.208 47.208 0 01-43.616-29.144 47.21 47.21 0 1190.825-18.066 47.26 47.26 0 01-47.209 47.21zm0-92.172A44.957 44.957 0 00405.2 30.004a44.96 44.96 0 1086.5 17.206 45.01 45.01 0 00-44.961-44.962z" fill="#CCC"/><path d="M482.01 105.47c10.395 0 18.823-8.52 18.823-19.03 0-10.51-8.428-19.029-18.823-19.029s-18.822 8.52-18.822 19.03c0 10.509 8.427 19.029 18.822 19.029z" fill="#3F3D56"/><path fill-rule="evenodd" clip-rule="evenodd" d="M477.601 47.395a30.866 30.866 0 00-17.947-28.023 30.86 30.86 0 10-17.737 58.512V56.319h-7.839v-8.924h7.839v-6.8c0-7.734 4.608-12.009 11.657-12.009a47.41 47.41 0 016.909.604v7.595h-3.893c-3.832 0-5.03 2.378-5.03 4.822v5.79h8.558l-1.367 8.923h-7.191v21.566a30.874 30.874 0 0026.041-30.49z" fill="#3F3D56"/><path d="M485.775 96.59h-3.833V81.987a13.183 13.183 0 01-4.952 2.937v-3.516a11.06 11.06 0 003.26-1.882 7.138 7.138 0 002.414-3.234h3.111V96.59z" fill="#fff"/></svg>