<svg width="900" height="580" viewBox="0 0 900 580" fill="none" xmlns="http://www.w3.org/2000/svg"><path d="M216.388 568.934c-.009.028-.009.065-.019.093h-63.025a109.89 109.89 0 01-3.5-2.222 117.227 117.227 0 01-19.517-15.907c-6.749-6.903-12.324-14.782-16.522-23.348-8.315-17.028-10.872-36.399-4.435-53.903l.001-.004.002-.003.003-.002h.004c.156-.439.331-.887.506-1.335.262.438.515.868.787 1.297l.01.01a126.554 126.554 0 0012.253 16.589v.009a60.253 60.253 0 001.061 1.199l.002.003.003.002h.004c11.028 12.378 24.352 22.684 39.296 30.397.049.028.088.046.136.074.05.029.102.054.156.075.01.009.019.009.029.019a126.47 126.47 0 0010.182 4.705v.009a137.701 137.701 0 008.285 3.109c5.951 2.007 12.37 3.837 18.068 6.478 5.543 2.568 10.425 5.9 13.605 10.914.243.41.486.812.71 1.222l-1.858 12.342 3.705-.019-.35 6.068-.097 1.755.515.374z" fill="#F0F0F0"/><path d="M200.828 569.027h-1.332a82.927 82.927 0 00-.399-2.221 45.976 45.976 0 00-1.537-5.966 27.934 27.934 0 00-1.001-2.586c-2.149-4.835-5.845-9.083-11.31-10.502a21.615 21.615 0 00-4.872-.663c-3.257-.131-6.564.271-9.802.439-.797.037-1.605.065-2.382.056h-.02a30.241 30.241 0 01-12.243-2.371 46.247 46.247 0 01-12.817-8.738 96.974 96.974 0 01-6.934-7.058v-.009a29.153 29.153 0 01-.855-.952 112.769 112.769 0 01-13.43-19.194 105.782 105.782 0 01-5.183-10.624.562.562 0 01-.049-.102 109.846 109.846 0 01-7.293-24.889l.001-.003.002-.003.003-.002.004-.001c-.078-.383-.136-.775-.195-1.158-.126-.793 1.187-.83 1.303-.037.059.392.117.766.185 1.158l.01.009a109.028 109.028 0 006.904 23.861v.01c.166.392.331.775.496 1.157 4.565 10.629 10.814 20.517 18.525 29.314l.01.018c.078.094.165.178.253.271a.035.035 0 01.008.013c.002.005.002.01.002.015.009-.009.009 0 .009 0a103.182 103.182 0 005.65 5.909 50.175 50.175 0 0012.487 9.224 28.713 28.713 0 0012.515 2.931c.438 0 .875.009 1.313 0 .35 0 .7-.009 1.05-.028 3.297-.149 6.642-.551 9.958-.495 1.508.028 3.011.178 4.493.448a18.01 18.01 0 016.737 2.903 17.207 17.207 0 014.913 5.294 29.074 29.074 0 012.936 6.376c.243.728.448 1.466.652 2.212v.01a56.83 56.83 0 01.817 3.631c.011.04.017.081.019.122.146.737.272 1.484.399 2.221z" fill="#fff"/><path d="M136.68 529.067c-3.334 2.383-7.441 3.551-11.588 3.295-4.148-.255-8.066-1.918-11.054-4.69-.603-.563.28-1.489.883-.925 2.778 2.587 6.428 4.135 10.291 4.365 3.863.231 7.684-.872 10.774-3.109.672-.485 1.362.581.694 1.064zm30.808 17.65c1.305-8.059-.602-16.295-5.341-23.064-.47-.67.638-1.335 1.108-.666 4.918 7.053 6.884 15.627 5.507 24.011-.132.799-1.405.514-1.274-.281zm-50.253-49.069a9.847 9.847 0 003.768-2.936 9.336 9.336 0 001.866-4.301c.121-.8 1.394-.514 1.274.281a10.439 10.439 0 01-2.069 4.751 11.026 11.026 0 01-4.145 3.268.701.701 0 01-.492.072.678.678 0 01-.409-.271.612.612 0 01.207-.864z" fill="#fff"/><path d="M225.899 527.961l-.535 4.733-8.509-.121-1.284 8.532-.223 1.466v.009l-.876 5.835-1.857 12.341 3.705-.018-.35 6.068-.097 1.755.515.373.117.094.039.028c-.107.205-.224.41-.341.625a8.22 8.22 0 00.166-.653h-24.623c-.457-.738-.904-1.475-1.342-2.222a160.454 160.454 0 01-10.026-19.717c-.175-.42-.359-.84-.515-1.269v-.01a118.958 118.958 0 01-6.058-19.119v-.009a102.62 102.62 0 01-1.819-10.81 86.552 86.552 0 011.449-28.109c.016-.046.029-.093.039-.14 3.88-17.635 13.342-33.935 28.327-44.26a38.2 38.2 0 011.916-1.279c.01-.009.01-.009.02-.009l.003-.001c.002 0 .003-.001.003-.002l.003-.003v-.003c.409-.252.807-.504 1.216-.756-.059.504-.127 1.008-.175 1.512a119.168 119.168 0 00-.623 20.314v.018c.01.523.039 1.046.078 1.578v.019c1.06 16.281 5.251 32.233 12.36 47.05a.508.508 0 00.049.112c.019.047.039.084.058.131a124.48 124.48 0 009.19 15.917z" fill="#F0F0F0"/><path d="M205.368 441.77c-.195.344-.398.7-.582 1.052a105.477 105.477 0 00-4.01 8.078 107.287 107.287 0 00-5.433 14.963c-.116.398-.231.805-.336 1.211a107.078 107.078 0 00-3.594 34.162c.001.114.009.217.019.329.155 2.683.423 5.358.805 8.023a46.863 46.863 0 004.178 14.58c.306.603.629 1.194.967 1.763a25.577 25.577 0 002.923 3.923 26.428 26.428 0 002.559 2.504c.55.478 1.116.943 1.709 1.386.342.256.693.51 1.044.765.291.189.573.389.864.578 3.019 1.983 6.275 3.748 9.089 6.021l-.221 1.467c-2.743-2.37-6.053-4.164-9.098-6.124a36.659 36.659 0 01-5.336-4.122c-.215-.21-.44-.42-.647-.641a25.211 25.211 0 01-2.997-3.569 25.905 25.905 0 01-1.274-1.988 43.448 43.448 0 01-4.743-14.373 92.744 92.744 0 01-1.117-9.657c-.036-.421-.06-.833-.077-1.257-.381-7.717.06-15.452 1.315-23.083a111.07 111.07 0 0112.368-35.695c.176-.342.363-.675.558-1.02.396-.71 1.463.014 1.067.724z" fill="#fff"/><path d="M190.757 502.118c-4.156-.024-8.168-1.465-11.319-4.067-3.151-2.601-5.237-6.193-5.884-10.134-.128-.798 1.157-1.026 1.286-.228.595 3.672 2.538 7.017 5.478 9.434 2.94 2.416 6.682 3.745 10.553 3.745.841.001.723 1.251-.114 1.25zm13.53 31.899c6.096-5.681 9.738-13.359 10.2-21.503.045-.807 1.347-.697 1.302.109-.497 8.474-4.304 16.456-10.662 22.354-.606.562-1.444-.402-.84-.96zm-9.348-68.226a10.32 10.32 0 004.85-.166 10.016 10.016 0 004.187-2.356c.599-.569 1.436.396.841.961a11.23 11.23 0 01-4.631 2.598c-1.742.49-3.582.564-5.36.213a.681.681 0 01-.437-.226.632.632 0 01-.158-.453.627.627 0 01.232-.425.679.679 0 01.476-.146z" fill="#fff"/><path d="M396.155 569.784a1.097 1.097 0 01-.338.786 1.149 1.149 0 01-.375.241 1.203 1.203 0 01-.444.084H122.431a1.195 1.195 0 01-.819-.326 1.106 1.106 0 01-.339-.785 1.11 1.11 0 01.339-.786 1.17 1.17 0 01.819-.325h272.567a1.183 1.183 0 01.819.324 1.097 1.097 0 01.338.787z" fill="#CCC"/><path d="M741.445 112.546H565.222a5.95 5.95 0 01-2.202-.418 5.757 5.757 0 01-1.867-1.195 5.502 5.502 0 01-1.248-1.791 5.332 5.332 0 01-.438-2.113c0-.725.149-1.443.438-2.113a5.502 5.502 0 011.248-1.791 5.757 5.757 0 011.867-1.195 5.95 5.95 0 012.202-.418h176.223a5.954 5.954 0 012.202.418 5.768 5.768 0 011.867 1.195 5.532 5.532 0 011.248 1.791c.289.67.438 1.388.438 2.113 0 .725-.149 1.443-.438 2.113a5.532 5.532 0 01-1.248 1.791 5.768 5.768 0 01-1.867 1.195 5.954 5.954 0 01-2.202.418zm-.001 21.803H565.221a5.871 5.871 0 01-4.06-1.619 5.408 5.408 0 01-1.681-3.899 5.41 5.41 0 011.681-3.899 5.875 5.875 0 014.06-1.619h176.223a5.873 5.873 0 014.059 1.619 5.406 5.406 0 011.681 3.899 5.404 5.404 0 01-1.681 3.899 5.869 5.869 0 01-4.059 1.619zm-99.835 21.8h-76.388a5.87 5.87 0 01-4.06-1.618 5.41 5.41 0 01-1.681-3.899c0-1.462.605-2.865 1.681-3.899a5.871 5.871 0 014.06-1.619h76.388a5.95 5.95 0 012.202.418 5.76 5.76 0 011.867 1.196 5.491 5.491 0 011.248 1.791c.289.67.438 1.388.438 2.113 0 .725-.149 1.443-.438 2.113a5.502 5.502 0 01-1.248 1.791 5.757 5.757 0 01-1.867 1.195 5.95 5.95 0 01-2.202.418z" fill="#8D8D92"/><path d="M741.443 236.535H565.22a5.875 5.875 0 01-4.064-1.616 5.407 5.407 0 01-1.683-3.902c0-1.463.605-2.866 1.683-3.901a5.87 5.87 0 014.064-1.616h176.223c1.525 0 2.986.581 4.064 1.616a5.408 5.408 0 011.684 3.901 5.408 5.408 0 01-1.684 3.902 5.873 5.873 0 01-4.064 1.616zm.001 21.801H565.22a5.87 5.87 0 01-4.064-1.616 5.407 5.407 0 01-1.683-3.902c0-1.463.605-2.866 1.683-3.901a5.87 5.87 0 014.064-1.616h176.224a5.87 5.87 0 014.064 1.616 5.407 5.407 0 011.683 3.901 5.407 5.407 0 01-1.683 3.902 5.87 5.87 0 01-4.064 1.616zm-99.835 21.801H565.22a5.875 5.875 0 01-4.064-1.616 5.41 5.41 0 01-1.683-3.902c0-1.463.605-2.867 1.683-3.901a5.87 5.87 0 014.064-1.616h76.389a5.958 5.958 0 012.202.418 5.768 5.768 0 011.867 1.195 5.532 5.532 0 011.248 1.791c.289.67.438 1.388.438 2.113 0 .725-.149 1.443-.438 2.113a5.522 5.522 0 01-1.248 1.791 5.77 5.77 0 01-1.867 1.196 5.958 5.958 0 01-2.202.418zm99.834 87.201H565.22a5.937 5.937 0 01-2.199-.42 5.751 5.751 0 01-1.865-1.196 5.497 5.497 0 01-1.246-1.79 5.318 5.318 0 010-4.222 5.497 5.497 0 011.246-1.79 5.751 5.751 0 011.865-1.196 5.937 5.937 0 012.199-.42h176.223c.755 0 1.502.142 2.2.42a5.747 5.747 0 011.864 1.196c.534.512.957 1.12 1.246 1.79a5.319 5.319 0 010 4.222 5.497 5.497 0 01-1.246 1.79 5.747 5.747 0 01-1.864 1.196 5.946 5.946 0 01-2.2.42zm.001 21.802H565.221a5.871 5.871 0 01-4.06-1.619 5.408 5.408 0 01-1.681-3.899 5.41 5.41 0 011.681-3.899 5.875 5.875 0 014.06-1.619h176.223a5.873 5.873 0 014.059 1.619 5.406 5.406 0 011.681 3.899 5.404 5.404 0 01-1.681 3.899 5.869 5.869 0 01-4.059 1.619zm-99.835 21.801H565.22a5.87 5.87 0 01-4.064-1.616 5.405 5.405 0 01-1.683-3.901 5.41 5.41 0 011.683-3.902 5.875 5.875 0 014.064-1.616h76.389a5.958 5.958 0 012.202.418 5.77 5.77 0 011.867 1.196 5.522 5.522 0 011.248 1.791c.289.67.438 1.388.438 2.113 0 .725-.149 1.443-.438 2.113a5.532 5.532 0 01-1.248 1.791 5.768 5.768 0 01-1.867 1.195 5.958 5.958 0 01-2.202.418zm-146.691-114.42h-106.09c-2.844-.004-5.569-1.089-7.58-3.019-2.01-1.93-3.141-4.547-3.144-7.276v-66.814c.003-2.729 1.134-5.346 3.144-7.276 2.011-1.93 4.736-3.016 7.58-3.019h106.09c2.843.003 5.569 1.089 7.579 3.019 2.011 1.93 3.142 4.547 3.145 7.276v66.814c-.003 2.729-1.134 5.346-3.145 7.276-2.01 1.93-4.736 3.015-7.579 3.019z" fill="#E6E6E6"/><path d="M487.461 217.465h-91.176c-2.589.002-5.071.99-6.902 2.747-1.831 1.757-2.862 4.14-2.865 6.625v51.959c.003 2.486 1.033 4.869 2.864 6.627 1.831 1.757 4.314 2.747 6.903 2.75h58.14c11.347-.011 22.226-4.343 30.25-12.046 8.024-7.703 12.537-18.147 12.548-29.04v-20.25c-.002-2.485-1.032-4.867-2.862-6.624-1.83-1.757-4.312-2.746-6.9-2.748z" fill="#fff"/><path d="M461.694 235.032l-.272.472c2.425-5.738.22-12.809-4.107-17.136-4.326-4.327-10.341-6.305-16.264-7.09-4.397-.582-8.96-.565-13.141.981-6.054 2.239-10.679 7.421-14.541 12.813-1.767 2.466-3.503 5.277-3.327 8.36.163 2.86 1.932 5.287 3.38 7.714 1.449 2.427 2.658 5.438 1.619 8.087-.62 1.578-1.929 2.715-2.991 4.006-1.063 1.291-1.937 3.036-1.423 4.656.227.62.619 1.173 1.136 1.604a4.02 4.02 0 001.812.856c1.3.208 2.629.178 3.917-.089l33.759-4.896a14.72 14.72 0 006.343-2.508 13.965 13.965 0 004.412-5.042 13.345 13.345 0 001.479-6.431 13.38 13.38 0 00-1.791-6.357z" fill="#2F2E41"/><path d="M436.584 255.143c9.115 0 16.505-7.094 16.505-15.845 0-8.751-7.39-15.845-16.505-15.845-9.116 0-16.506 7.094-16.506 15.845 0 8.751 7.39 15.845 16.506 15.845z" fill="#FFB9B9"/><path d="M479.654 280.256c-7.315 5.154-16.156 7.928-25.23 7.918h-50.648c-.102-.08-.199-.159-.301-.243l4.723-12.653a13.764 13.764 0 014.873-5.571 14.566 14.566 0 017.167-2.366l3.005-.177 7.165-5.932s19.307-.662 19.021-.979l11.695 6.753-.01-.047 4.597.271c2.569.148 5.046.966 7.168 2.364a13.757 13.757 0 014.872 5.572l1.903 5.09z" fill="#8D8D92"/><path d="M452.242 224.592c-.426-2.164-2.725-3.154-4.695-3.633a47.047 47.047 0 00-17.494-.922c-4.256.582-8.613 1.867-11.701 5.056-2.49 2.686-3.901 6.135-3.979 9.73a11.21 11.21 0 001.444 6.181 5.835 5.835 0 002.058 2.165c.869.538 1.87.85 2.903.904l.198.662c8.287-1.109 15.985-6.059 20.833-13.396-.91 3.119-2.721 5.927-5.223 8.1 5.595-2.15 10.458-5.748 14.048-10.394.98-1.249 1.932-2.807 1.608-4.453z" fill="#2F2E41"/><path d="M494.918 172.533h-106.09c-2.844-.003-5.569-1.088-7.58-3.019-2.01-1.93-3.141-4.546-3.144-7.276V95.425c.003-2.73 1.134-5.346 3.144-7.276 2.011-1.93 4.736-3.016 7.58-3.02h106.09c2.843.004 5.569 1.09 7.579 3.02 2.011 1.93 3.142 4.546 3.145 7.276v66.813c-.003 2.73-1.134 5.346-3.145 7.276-2.01 1.931-4.736 3.016-7.579 3.019z" fill="#CCC"/><path d="M487.461 93.478h-91.176c-2.589.004-5.07.992-6.901 2.749-1.831 1.756-2.862 4.138-2.866 6.624v51.959c.003 2.486 1.033 4.869 2.864 6.626 1.831 1.758 4.314 2.747 6.903 2.751h58.14c11.348-.009 22.228-4.341 30.253-12.044 8.024-7.703 12.536-18.149 12.545-29.043v-20.249c-.002-2.485-1.032-4.867-2.862-6.625-1.83-1.757-4.312-2.745-6.9-2.748z" fill="#fff"/><path d="M419.959 103.558c4.294 0 7.775-3.342 7.775-7.464s-3.481-7.464-7.775-7.464c-4.294 0-7.775 3.342-7.775 7.464s3.481 7.464 7.775 7.464z" fill="#2F2E41"/><path d="M432.398 131.922c10.879 0 19.697-8.465 19.697-18.909 0-10.443-8.818-18.909-19.697-18.909-10.878 0-19.697 8.466-19.697 18.909 0 10.444 8.819 18.909 19.697 18.909z" fill="#2F2E41"/><path d="M434.029 131.917c8.84 0 16.007-6.88 16.007-15.366s-7.167-15.365-16.007-15.365c-8.839 0-16.006 6.879-16.006 15.365s7.167 15.366 16.006 15.366z" fill="#9E616A"/><path d="M444.898 100.888a18.906 18.906 0 00-9.302-2.571 18.931 18.931 0 00-9.37 2.335c-2.849 1.57-5.206 3.845-6.825 6.589a17.051 17.051 0 00-2.378 9.008c8.156 1.966 16.724 3.47 25.422.47l2.054-4.826 1.211 4.83c2.648 1.039 5.304 1.918 7.96-.01a17.398 17.398 0 00-2.184-9.038 18.29 18.29 0 00-6.588-6.787z" fill="#2F2E41"/><path d="M412.72 75.831a16.513 16.513 0 00-8.665-1.047 16.208 16.208 0 00-7.934 3.502 17.249 17.249 0 00-4.882 6.991 16.61 16.61 0 00-.859 8.376c.882 5.73 4.51 10.665 7.855 15.486 3.345 4.821 6.613 10.104 6.609 15.896-.002 4.172-1.728 8.173-4.799 11.125-3.071 2.952-7.236 4.615-11.582 4.623 5.101 2.108 10.424 4.257 15.971 4.007 5.548-.249 11.362-3.673 12.267-8.933.652-3.789-1.285-7.485-2.901-10.999a75.525 75.525 0 01-5.664-17.901c-.54-2.942-.891-6.034.108-8.863.796-2.096 2.272-3.892 4.211-5.122a11.184 11.184 0 016.56-1.708l1.832-1.583c.314-2.834-.3-5.69-1.757-8.173-1.456-2.482-3.683-4.467-6.37-5.677z" fill="#2F2E41"/><path d="M476.369 158.361c-6.627 3.822-14.213 5.836-21.944 5.826h-54.867l-.087-.07 4.723-12.658a13.764 13.764 0 014.874-5.57 14.558 14.558 0 017.166-2.362l3.005-.177 7.165-5.933s19.307-.666 19.021-.983l11.695 6.753-.01-.042 4.597.27a14.55 14.55 0 017.168 2.36 13.743 13.743 0 014.872 5.572l2.622 7.014z" fill="#8D8D92"/><path d="M494.918 427.325h-106.09c-2.844-.003-5.569-1.088-7.58-3.019-2.01-1.93-3.141-4.546-3.144-7.276v-66.813c.003-2.73 1.134-5.346 3.144-7.276 2.011-1.93 4.736-3.016 7.58-3.019h106.09c2.843.003 5.569 1.089 7.579 3.019 2.011 1.93 3.142 4.546 3.145 7.276v66.813c-.003 2.73-1.134 5.346-3.145 7.276-2.01 1.931-4.736 3.016-7.579 3.019z" fill="#E6E6E6"/><path d="M487.46 348.27h-91.175c-2.589.002-5.071.99-6.902 2.747-1.831 1.757-2.862 4.139-2.865 6.625v51.959c.003 2.486 1.033 4.869 2.864 6.626 1.831 1.758 4.314 2.747 6.903 2.751h58.14c11.347-.011 22.227-4.343 30.25-12.046 8.024-7.703 12.537-18.147 12.548-29.041v-20.249c-.002-2.485-1.032-4.868-2.862-6.625-1.83-1.757-4.312-2.745-6.901-2.747z" fill="#fff"/><path d="M441.791 381.323c12.128 0 21.96-9.438 21.96-21.082 0-11.643-9.832-21.082-21.96-21.082-12.129 0-21.961 9.439-21.961 21.082 0 11.644 9.832 21.082 21.961 21.082z" fill="#2F2E41"/><path d="M441.802 384.093c10.835 0 19.618-8.432 19.618-18.834 0-10.401-8.783-18.833-19.618-18.833-10.835 0-19.618 8.432-19.618 18.833 0 10.402 8.783 18.834 19.618 18.834z" fill="#FFB8B8"/><path d="M481.041 410.045c-7.559 5.792-16.946 8.943-26.618 8.934h-48.925l4.641-12.429a13.76 13.76 0 014.873-5.572 14.565 14.565 0 017.167-2.365l3.005-.177 7.165-5.933s19.307-.662 19.021-.979l11.695 6.753-.01-.046 4.597.27a14.56 14.56 0 017.167 2.364 13.755 13.755 0 014.873 5.573l1.349 3.607z" fill="#8D8D92"/><path d="M462.499 358.654c.137-1.406.201-2.818.189-4.23a19.214 19.214 0 00-1.565-8.154c-1.367-2.859-3.805-5.12-6.828-6.333a12.948 12.948 0 00-9.342.008 19.313 19.313 0 00-8.873-3.101 10.28 10.28 0 00-4.67.727 9.903 9.903 0 00-3.789 2.719c-.435.655-.93 1.272-1.478 1.844-1.567 1.393-3.949 1.192-6.032.907l2.803 2.307-3.393.851 3.96 2.305c-3.832 2.208-5.574 7.027-5.114 11.404.435 4.144 2.519 7.934 5.011 11.302.993-2.014.779-4.423.763-6.69-.009-.736.038-1.471.14-2.2 8.419 1.938 17.216 3.181 26.137.104l1.791-4.206.754.073 1.037 4.137c2.351.923 4.708 1.729 7.065.882.115.639.184 1.291.237 1.917.202-.749.378-1.504.536-2.263.312-.16.61-.343.893-.547a17.702 17.702 0 00-.232-3.763z" fill="#2F2E41"/><path d="M791.437 28.394H333.858a2.62 2.62 0 01-1.812-.721 2.417 2.417 0 01-.751-1.74V11.46a2.417 2.417 0 01.751-1.739A2.622 2.622 0 01333.858 9h457.579c.679 0 1.331.26 1.811.721.481.462.751 1.087.752 1.74v14.473a2.414 2.414 0 01-.752 1.739 2.62 2.62 0 01-1.811.721z" fill="#E4E4E4"/><path d="M346.168 21.485c2.01 0 3.639-1.564 3.639-3.494 0-1.929-1.629-3.493-3.639-3.493s-3.639 1.564-3.639 3.493c0 1.93 1.629 3.494 3.639 3.494zm13.813 0c2.009 0 3.639-1.564 3.639-3.494 0-1.929-1.63-3.493-3.639-3.493-2.01 0-3.639 1.564-3.639 3.493 0 1.93 1.629 3.494 3.639 3.494zm13.812 0c2.01 0 3.639-1.564 3.639-3.494 0-1.929-1.629-3.493-3.639-3.493-2.009 0-3.639 1.564-3.639 3.493 0 1.93 1.63 3.494 3.639 3.494zm404.111-5.898h-15.906c-.312 0-.612-.119-.833-.331a1.108 1.108 0 01-.345-.8c0-.3.124-.587.345-.8.221-.212.521-.33.833-.33h15.906c.312 0 .612.118.833.33.221.213.345.5.345.8 0 .3-.124.588-.345.8a1.204 1.204 0 01-.833.331zm0 4.241h-15.906a1.218 1.218 0 01-.833-.33 1.131 1.131 0 01-.255-.368 1.096 1.096 0 01.255-1.232 1.22 1.22 0 01.833-.331h15.906a1.22 1.22 0 01.833.33c.109.106.196.23.255.368a1.096 1.096 0 01-.255 1.232 1.191 1.191 0 01-.833.331zm0 4.242h-15.906c-.312 0-.612-.12-.833-.332a1.108 1.108 0 01-.345-.8c0-.3.124-.587.345-.8.221-.211.521-.33.833-.33h15.906c.312 0 .612.119.833.33.221.213.345.5.345.8 0 .3-.124.588-.345.8a1.204 1.204 0 01-.833.332z" fill="#fff"/><path d="M698.026 157.652c3.635 0 6.581-2.829 6.581-6.318 0-3.489-2.946-6.317-6.581-6.317-3.634 0-6.581 2.828-6.581 6.317 0 3.489 2.947 6.318 6.581 6.318zm21.371 0c3.635 0 6.581-2.829 6.581-6.318 0-3.489-2.946-6.317-6.581-6.317-3.634 0-6.581 2.828-6.581 6.317 0 3.489 2.947 6.318 6.581 6.318zm21.369 0c3.635 0 6.581-2.829 6.581-6.318 0-3.489-2.946-6.317-6.581-6.317-3.634 0-6.58 2.828-6.58 6.317 0 3.489 2.946 6.318 6.58 6.318z" fill="#8D8D92"/><path d="M698.026 280.746c3.635 0 6.581-2.828 6.581-6.317 0-3.489-2.946-6.318-6.581-6.318-3.634 0-6.581 2.829-6.581 6.318 0 3.489 2.947 6.317 6.581 6.317zm21.371 0c3.635 0 6.581-2.828 6.581-6.317 0-3.489-2.946-6.318-6.581-6.318-3.634 0-6.581 2.829-6.581 6.318 0 3.489 2.947 6.317 6.581 6.317zm21.369 0c3.635 0 6.581-2.828 6.581-6.317 0-3.489-2.946-6.318-6.581-6.318-3.634 0-6.58 2.829-6.58 6.318 0 3.489 2.946 6.317 6.58 6.317zm-42.74 131.037c3.635 0 6.581-2.829 6.581-6.318 0-3.489-2.946-6.318-6.581-6.318-3.634 0-6.581 2.829-6.581 6.318 0 3.489 2.947 6.318 6.581 6.318zm21.371 0c3.635 0 6.581-2.829 6.581-6.318 0-3.489-2.946-6.318-6.581-6.318-3.634 0-6.581 2.829-6.581 6.318 0 3.489 2.947 6.318 6.581 6.318zm21.369 0c3.635 0 6.581-2.829 6.581-6.318 0-3.489-2.946-6.318-6.581-6.318-3.634 0-6.58 2.829-6.58 6.318 0 3.489 2.946 6.318 6.58 6.318z" fill="#E6E6E6"/><path d="M510.713 156.785l-33.921-20.618a4.401 4.401 0 00-2.16-.633 4.402 4.402 0 00-2.194.515 4.185 4.185 0 00-1.613 1.518 3.964 3.964 0 00-.579 2.096l.334 35.551c.009.944.358 1.857.988 2.583a4.303 4.303 0 002.469 1.4 4.418 4.418 0 002.833-.418 4.16 4.16 0 001.919-2.046l4.413-10.306 12.305 23.29a4.817 4.817 0 002.826 2.32 5.05 5.05 0 003.707-.275 4.732 4.732 0 002.421-2.709 4.5 4.5 0 00-.281-3.559l-12.585-23.819 16.129 2.606a4.417 4.417 0 002.824-.482 4.15 4.15 0 001.867-2.091 3.936 3.936 0 00.064-2.753 4.126 4.126 0 00-1.766-2.17z" fill="#3F3D56"/><path d="M207.639 378.131a7.923 7.923 0 001.809-2.999 7.688 7.688 0 00.317-3.452 7.78 7.78 0 00-1.234-3.257 8.165 8.165 0 00-2.553-2.45l6.827-27.653-14.449 5.068-4.268 25.482a7.76 7.76 0 00-.815 5.659c.459 1.918 1.635 3.608 3.306 4.75a8.639 8.639 0 005.757 1.443 8.496 8.496 0 005.303-2.591z" fill="#FFB8B8"/><path d="M242.387 262.254l-5.799 14.315s2.486 14.314-1.657 17.495c-4.142 3.181-2.485 3.181-2.485 5.567a11.871 11.871 0 01-1.515 4.882 12.393 12.393 0 01-3.455 3.866c-3.314 2.386-18.225 50.897-18.225 50.897H194.34a43.135 43.135 0 000-11.134c-.829-5.567 2.485-19.882 4.142-22.267 1.657-2.386 0-5.567 0-10.339 0-4.771 3.313-7.157 3.313-15.11 0-7.952 9.941-69.983 9.113-77.14-.829-7.157 8.284-13.519 8.284-13.519h8.284l14.911 52.487z" fill="#E6E6E6"/><path d="M212.126 552.303h10.733l5.108-39.744h-15.842l.001 39.744z" fill="#FFB6B6"/><path d="M208.623 545.246l17.148-.982v7.053l16.303 10.809a4.428 4.428 0 011.731 2.189c.319.888.335 1.85.043 2.747a4.416 4.416 0 01-1.661 2.238 4.72 4.72 0 01-2.72.857h-20.416l-3.519-6.977-1.374 6.977h-7.697l2.162-24.911z" fill="#2F2E41"/><path d="M272.417 552.303h10.733l5.108-39.744h-15.842l.001 39.744z" fill="#FFB6B6"/><path d="M268.916 545.246l17.148-.982v7.053l16.303 10.809a4.428 4.428 0 011.731 2.189c.319.888.334 1.85.043 2.747a4.416 4.416 0 01-1.661 2.238 4.72 4.72 0 01-2.72.857h-20.416l-3.519-6.977-1.374 6.977h-7.697l2.162-24.911zm-61.421-27.216h.117l5.954-64.623a16.353 16.353 0 01-1.974-8.012c.04-2.786.798-5.519 2.205-7.956l.295-.514-.766-3.41a20.914 20.914 0 011.293-13.072l-1.964-60.281c-6.88-42.804 25.908-70.72 25.908-70.72h49.116l10.545 34.78c3.959 37.03 16.34 75.979 14.7 111.877-1.247 27.308-15.277 51.817-20.056 78.411l.302.147c1.086.359 1.551 1.804 1.04 3.225-.511 1.422-1.806 2.283-2.891 1.923l-25.94-.866c-1.086-.36-1.551-1.804-1.04-3.226.511-1.421 1.806-2.282 2.891-1.922l1.764.856 12.77-65.159.418-11.391-.86-12.922-20.508-55.322-15.049 71.475-15.373 77.421c.424.369.721.852.853 1.386a2.617 2.617 0 01-.114 1.607c-.207.512-.57.952-1.043 1.261a2.904 2.904 0 01-1.603.473h-20.99c-.373 0-.742-.07-1.086-.207a2.843 2.843 0 01-.92-.59 2.729 2.729 0 01-.615-.884 2.635 2.635 0 010-2.084c.143-.33.352-.631.615-.883.263-.253.576-.454.92-.591a2.936 2.936 0 011.086-.207z" fill="#2F2E41"/><path d="M203.424 318.514c-1.613 0-2.529-.303-2.884-.954-.52-.956.383-2.204 1.429-3.65a11.084 11.084 0 001.812-3.133c.625-2.401 4.846-63.058 2.321-75.178-.584-2.804-.081-6.398 1.494-10.683 4.302-11.702 10.175-15.299 21.874-22.463.95-.581 1.939-1.189 2.967-1.822 1.33-.821 1.256-3.541 1.178-6.422-.087-3.202-.178-6.513 1.456-8.582l.107-.135.171-.039c3.952-.877 17.244-2.505 25.116.012l.108.036.082.077c1.869 1.795 2.04 5.273 2.205 8.635.134 2.76.262 5.367 1.32 6.499 8.088 8.654 17.261 8.486 17.354 8.484l.454-.013.045.434c3.518 34.352 9.19 86.201 10.395 88.242a.585.585 0 01.02.631c-1.77 3.173-82.947 20.024-89.024 20.024z" fill="#E6E6E6"/><path d="M256.251 175.729c13.248 0 23.988-10.31 23.988-23.028 0-12.718-10.74-23.028-23.988-23.028s-23.987 10.31-23.987 23.028c0 12.718 10.739 23.028 23.987 23.028z" fill="#FFB8B8"/><path d="M190.354 142.42c4.056-4.54 5.984-10.564 9.227-15.72 3.242-5.156 8.884-9.77 14.845-8.571 4.109.828 7.284 4.308 8.892 8.189 1.607 3.88 1.908 8.16 2.19 12.352-.099-8.615 5.813-16.968 13.958-19.717 8.145-2.749 17.892.318 23.01 7.239 2.234-1.987 5.149-3.118 8.193-3.18 3.045-.061 6.007.952 8.326 2.847 4.577 3.928 5.59 11.404 2.224 16.414-1.691 2.438-4.25 4.199-7.197 4.954a13 13 0 01-8.811-.856l-1.892 1.67a7.586 7.586 0 01-.506 5.351 8.053 8.053 0 01-3.965 3.793c-2.814 1.091-6.787.909-7.841 3.745-.736 1.981.64 4.096 2.103 5.618 1.463 1.522 3.201 3.094 3.376 5.201.266 3.179-3.156 5.406-6.266 6.076a20.293 20.293 0 01-11.356-1.083c-3.589-1.438-6.649-3.871-8.789-6.988a5.788 5.788 0 00-.272-.368 27.383 27.383 0 01-5.194-10.054 26.722 26.722 0 01-.632-11.206c.244-1.469-.001-2.561-1.056-2.909-4.559-1.503-17.332 1.652-21.197 4.504-3.866 2.851-6.961 6.625-10.685 9.661-3.723 3.035-8.468 5.377-13.196 4.55-3.786-.662-7.007-3.301-9.174-6.484a38.154 38.154 0 01-4.53-10.581c8.372 4.644 19.832 2.7 26.215-4.447z" fill="#2F2E41"/><path d="M294.707 378.131a7.923 7.923 0 01-1.809-2.999 7.688 7.688 0 01-.317-3.452 7.78 7.78 0 011.234-3.257 8.165 8.165 0 012.553-2.45l-6.827-27.653 14.449 5.068 4.268 25.482a7.76 7.76 0 01.815 5.659c-.46 1.918-1.636 3.608-3.306 4.75a8.639 8.639 0 01-5.757 1.443c-2.039-.211-3.926-1.133-5.303-2.591z" fill="#FFB8B8"/><path d="M259.961 262.254l5.799 14.315s-2.485 14.314 1.657 17.495c4.142 3.181 2.485 3.181 2.485 5.567a11.871 11.871 0 001.515 4.882 12.393 12.393 0 003.455 3.866c3.314 2.386 18.225 50.897 18.225 50.897h14.911a43.135 43.135 0 010-11.134c.829-5.567-2.485-19.882-4.142-22.267-1.656-2.386 0-5.567 0-10.339 0-4.771-3.313-7.157-3.313-15.11 0-7.952-9.941-69.983-9.113-77.14.829-7.157-8.284-13.519-8.284-13.519h-8.284l-14.911 52.487z" fill="#E6E6E6"/></svg>