<svg width="900" height="580" viewBox="0 0 900 580" fill="none" xmlns="http://www.w3.org/2000/svg"><path d="M432.686 14.661l-18.348 10.011-226.06 123.344-18.349 10.011a38.323 38.323 0 00-15.268 51.937l168.342 308.531a38.323 38.323 0 0051.936 15.268l.047-.026 262.663-143.314.047-.026a38.322 38.322 0 0015.268-51.936L484.623 29.929a38.324 38.324 0 00-51.937-15.268z" fill="#F2F2F2"/><path d="M437.965 24.334l-21.733 11.858-219.292 119.65-21.732 11.858a27.288 27.288 0 00-10.873 36.985l168.341 308.532a27.29 27.29 0 0036.986 10.872l.047-.025 262.662-143.315.048-.026a27.292 27.292 0 0010.873-36.985L474.95 35.207a27.286 27.286 0 00-36.985-10.873z" fill="#fff"/><path d="M441.588 120.103l-97.963 53.451a6.377 6.377 0 01-9.169-7.394 6.377 6.377 0 013.063-3.798l97.963-53.45a6.372 6.372 0 019.168 7.393 6.372 6.372 0 01-3.062 3.798zm33.387 6.29L353.93 192.438a6.373 6.373 0 01-9.169-7.394 6.37 6.37 0 013.062-3.797l121.046-66.045a6.364 6.364 0 014.851-.52 6.381 6.381 0 013.797 3.062 6.374 6.374 0 01-2.542 8.649zm-171.622 24.911l-90.317 49.278a3.057 3.057 0 00-1.218 4.144l38.459 70.487a3.057 3.057 0 004.144 1.218l90.316-49.279a3.057 3.057 0 001.219-4.144l-38.459-70.486a3.053 3.053 0 00-4.144-1.218zm186.844 58.235l-132.875 72.499a6.367 6.367 0 01-4.851.52 6.358 6.358 0 01-2.203-1.154 6.364 6.364 0 01-2.337-4.283 6.38 6.38 0 011.376-4.68 6.364 6.364 0 011.909-1.595l132.874-72.499a6.372 6.372 0 018.649 2.543 6.372 6.372 0 01-2.542 8.649zm33.385 6.291l-155.957 85.093a6.372 6.372 0 01-8.649-2.543 6.372 6.372 0 012.543-8.648l155.956-85.094a6.372 6.372 0 018.649 2.543 6.372 6.372 0 01-2.542 8.649zM306.716 341.413c14.935 0 27.043-12.108 27.043-27.044s-12.108-27.044-27.043-27.044c-14.936 0-27.044 12.108-27.044 27.044s12.108 27.044 27.044 27.044z" fill="#F2F2F2"/><path d="M711.345 141.791H412.021a38.323 38.323 0 00-38.279 38.279v351.469a38.324 38.324 0 0038.279 38.279h299.324a38.322 38.322 0 0038.279-38.279V180.07a38.32 38.32 0 00-38.279-38.279z" fill="#E6E6E6"/><path d="M711.346 152.811H412.021a27.286 27.286 0 00-27.259 27.259v351.469a27.286 27.286 0 0027.259 27.259h299.325a27.292 27.292 0 0027.259-27.259V180.07a27.294 27.294 0 00-27.259-27.259z" fill="#fff"/><path d="M668.658 238.614H557.062a6.371 6.371 0 01-4.507-10.882 6.374 6.374 0 014.507-1.867h111.596a6.372 6.372 0 016.382 6.375 6.374 6.374 0 01-6.382 6.374zm26.295 21.514H557.062a6.374 6.374 0 010-12.749h137.891a6.371 6.371 0 016.374 6.374 6.374 6.374 0 01-6.374 6.375z" fill="#8D8D92"/><path d="M532.363 199.793H429.478a3.053 3.053 0 00-3.054 3.054v80.296a3.055 3.055 0 003.054 3.055h102.885a3.06 3.06 0 003.055-3.055v-80.296a3.057 3.057 0 00-3.055-3.054z" fill="#E6E6E6"/><path d="M457.7 249.101a27.116 27.116 0 01-7.003 18.354c-4.499 4.938-11.196 8.212-17.955 6.857-6.223-1.247-11.281-6.687-10.65-13.267a9.833 9.833 0 017.908-8.924 9.844 9.844 0 014.236.099c5.912 1.534 8.267 10.055 3.341 14.054-1.182.96-2.881-.719-1.688-1.687 3.257-2.644 2.251-8.428-1.68-9.878-4.576-1.689-9.425 1.943-9.754 6.622-.39 5.547 3.859 9.725 9.071 10.708 5.637 1.064 11.227-1.821 15.047-5.804a24.62 24.62 0 006.74-17.134 1.194 1.194 0 012.387 0z" fill="#2F2E41"/><path d="M481.001 264.27c23.51 0 42.569-19.059 42.569-42.569s-19.059-42.569-42.569-42.569-42.569 19.059-42.569 42.569 19.059 42.569 42.569 42.569z" fill="#8D8D92"/><path d="M478.822 239.864l-.045-1.591c2.96-.082 5.569-.268 7.529-1.7a4.893 4.893 0 001.895-3.602 2.801 2.801 0 00-.917-2.302c-1.302-1.099-3.396-.743-4.922-.044l-1.317.604 2.525-18.446 1.576.216-2.147 15.691c2.074-.61 3.995-.347 5.312.764a4.354 4.354 0 011.479 3.573 6.456 6.456 0 01-.738 2.697 6.454 6.454 0 01-1.807 2.134c-2.519 1.841-5.793 1.932-8.423 2.006zm22.689-25.511h-8.568v1.59h8.568v-1.59zm-27.045 0h-8.568v1.59h8.568v-1.59zm-17.044 71.845a42.195 42.195 0 0110.253-4.717 6.804 6.804 0 01.016-3.746 7.493 7.493 0 017.262-5.273h10.372a7.527 7.527 0 017.278 5.281c.355 1.22.36 2.515.015 3.738a42.326 42.326 0 0110.253 4.717h-45.449z" fill="#2F2E41"/><path d="M529.764 205.902a9.2 9.2 0 00-2.807-2.283 6.656 6.656 0 00-3.063-.756 6.981 6.981 0 00-4.064 1.368c-3.237 2.291-5.48 7.231-5.48 12.95 0 7.174 3.531 13.124 8.121 14.158.467.105.944.158 1.423.159 5.258 0 9.545-6.419 9.545-14.317 0-4.582-1.439-8.662-3.675-11.279zm-87.431-2.012h-.008a6.828 6.828 0 00-3.54-1.026 6.649 6.649 0 00-3.062.756 9.201 9.201 0 00-2.808 2.283l-.008.008c-2.227 2.617-3.667 6.697-3.667 11.27 0 6.173 2.609 11.438 6.268 13.451a6.8 6.8 0 003.277.867c.255 0 .51-.016.764-.048h.007c4.9-.589 8.774-6.761 8.774-14.27 0-6.013-2.49-11.175-5.997-13.291z" fill="#3F3D56"/><path d="M436.104 229.262a1.198 1.198 0 001.18-1.017 1.187 1.187 0 00-.049-.558 46.531 46.531 0 1189.171-26.405 46.538 46.538 0 01.461 21.175 1.194 1.194 0 002.335.493 48.91 48.91 0 00-.483-22.264 48.907 48.907 0 00-28.288-32.874 48.908 48.908 0 00-59.633 17.661 48.922 48.922 0 00-5.824 42.977 1.192 1.192 0 001.13.812z" fill="#3F3D56"/><path d="M502.386 194.12c1.685 2.301.854 5.402-.922 7.386-2.311 2.581-5.996 2.744-9.196 2.265-3.591-.538-7.399-2.22-11.035-1.086-3.098.966-5.308 3.776-8.527 4.482-2.855.626-6.269-.203-7.269-3.245-.481-1.463 1.822-2.089 2.301-.635.647 1.969 3.443 1.929 5.044 1.384 2.566-.874 4.544-2.999 7.067-4.014 2.974-1.197 6.201-.657 9.229.025 2.855.643 6.139 1.595 8.983.395 2.104-.888 3.778-3.687 2.264-5.753-.908-1.24 1.161-2.431 2.061-1.204z" fill="#2F2E41"/><path d="M668.489 340.406H517.122a6.378 6.378 0 01-5.889-3.935 6.378 6.378 0 013.45-8.329 6.378 6.378 0 012.439-.485h151.367a6.378 6.378 0 016.367 6.375 6.376 6.376 0 01-6.367 6.374zm26.296 21.513H517.124a6.372 6.372 0 01-6.382-6.375 6.374 6.374 0 016.382-6.374h177.661a6.37 6.37 0 015.895 3.933 6.374 6.374 0 01-5.895 8.816zm-26.296 55.809H517.122a6.373 6.373 0 01-4.507-10.881 6.374 6.374 0 014.507-1.868h151.367a6.372 6.372 0 016.374 6.375 6.371 6.371 0 01-6.374 6.374zm26.294 21.515H517.122a6.377 6.377 0 01-6.374-6.374 6.378 6.378 0 016.374-6.375h177.661a6.378 6.378 0 016.375 6.375 6.376 6.376 0 01-6.375 6.374zm-237.567-67.651c14.935 0 27.043-12.108 27.043-27.043 0-14.936-12.108-27.044-27.043-27.044-14.936 0-27.044 12.108-27.044 27.044 0 14.935 12.108 27.043 27.044 27.043zm0 77.949c14.935 0 27.043-12.107 27.043-27.043s-12.108-27.044-27.043-27.044c-14.936 0-27.044 12.108-27.044 27.044s12.108 27.043 27.044 27.043zm211.273 46.138H517.122a6.377 6.377 0 01-6.374-6.375 6.376 6.376 0 016.374-6.374h151.367a6.371 6.371 0 016.374 6.374 6.374 6.374 0 01-6.374 6.375zm26.294 21.513H517.122a6.373 6.373 0 01-4.507-10.882 6.377 6.377 0 014.507-1.867h177.661a6.378 6.378 0 016.375 6.375 6.376 6.376 0 01-6.375 6.374zm-237.567 10.299c14.935 0 27.043-12.108 27.043-27.044s-12.108-27.044-27.043-27.044c-14.936 0-27.044 12.108-27.044 27.044s12.108 27.044 27.044 27.044z" fill="#E6E6E6"/></svg>