<svg width="900" height="580" viewBox="0 0 900 580" fill="none" xmlns="http://www.w3.org/2000/svg"><path d="M649.781 432.044l-53.32-23.523v-20.224l19.002-.107a14.11 14.11 0 0013.311-9.65l13.349-40.047a14.122 14.122 0 00-1.94-12.716 14.116 14.116 0 00-11.45-5.861h-32.272v-18.819h40.514a14.112 14.112 0 0013.756-10.952l9.193-39.99a14.12 14.12 0 00-7.627-15.876 14.107 14.107 0 00-6.129-1.4h-49.707v-4.705a9.408 9.408 0 00-18.102-3.601 9.409 9.409 0 00-.717 3.601v4.705H244.393v-4.705a9.407 9.407 0 00-9.409-9.409 9.409 9.409 0 00-9.41 9.409v4.705h-39.513a14.11 14.11 0 00-13.764 10.989c-.47 2.07-.467 4.219.009 6.287l9.193 39.99a14.108 14.108 0 004.964 7.879 14.108 14.108 0 008.791 3.073h30.32v18.819h-22.079a14.112 14.112 0 00-13.433 18.442l13.625 42.285a14.117 14.117 0 0013.513 9.785l8.374-.047v18.14l-43.126 23.523a14.119 14.119 0 00-13.04 8.713 14.114 14.114 0 0013.04 19.515h43.126v103.504a9.413 9.413 0 009.41 9.409 9.407 9.407 0 009.409-9.409V460.272h333.249v103.504a9.413 9.413 0 009.41 9.409 9.407 9.407 0 009.409-9.409V460.272h53.32a14.114 14.114 0 0014.114-14.114 14.119 14.119 0 00-8.713-13.04 14.115 14.115 0 00-5.401-1.074zM244.393 301.097h333.249v18.819H244.393v-18.819zm0 107.424v-18.246l333.249-1.872v20.118H244.393z" fill="#E6E6E6"/><path d="M611.227 431.976c5.861-47.133 35.072-93.572 80.022-108.911a218.835 218.835 0 00.011 150.243c6.907 18.684 16.535 38.745 10.038 57.576-4.042 11.716-13.932 20.681-24.986 26.286-11.055 5.605-23.323 8.276-35.438 10.895l-2.385 1.971c-19.232-43.427-33.124-90.927-27.262-138.06z" fill="#E6E6E6"/><path d="M691.695 323.957c-25.91 29.014-42.719 66.494-46.498 105.268-.817 8.382-.916 16.957.916 25.22 1.833 8.266 5.825 15.203 11.49 21.427 5.179 5.69 11.135 10.91 14.84 17.76 3.906 7.22 4.056 15.423 1.382 23.092-3.271 9.383-9.719 17.031-16.285 24.292-7.289 8.061-14.989 16.318-18.087 27.005-.376 1.294-2.363.636-1.988-.657 5.391-18.593 23.44-29.154 32.047-45.901 4.017-7.814 5.703-16.886 1.937-25.134-3.292-7.214-9.43-12.602-14.723-18.318-5.558-6.002-9.82-12.586-12.015-20.532-2.246-8.129-2.482-16.726-1.883-25.092a181.488 181.488 0 0113.253-55.146 190.356 190.356 0 0134.229-54.854c.895-1.002 2.275.575 1.385 1.57z" fill="#fff"/><path d="M645.762 416.556a28.061 28.061 0 01-21.361-29.396c.107-1.343 2.198-1.24 2.091.104a25.986 25.986 0 0019.926 27.305c1.311.311.647 2.297-.656 1.987zm8.836 56.778a54.087 54.087 0 0024.153-31.151c.38-1.294 2.368-.636 1.988.656a56.257 56.257 0 01-25.2 32.364c-1.161.689-2.096-1.185-.941-1.869zm11.624-114.213a15.882 15.882 0 0015.053-.764c1.151-.703 2.085 1.172.941 1.87a17.792 17.792 0 01-16.651.882 1.082 1.082 0 01-.665-1.322 1.05 1.05 0 011.322-.666z" fill="#fff"/><path d="M828.265 407.252c-.707.459-1.413.918-2.12 1.395a209.17 209.17 0 00-26.748 20.883 93.972 93.972 0 00-1.944 1.784 220.54 220.54 0 00-47.895 65.564 214.098 214.098 0 00-11.731 30.352c-4.329 14.363-7.88 30.281-16.449 42.03a36.756 36.756 0 01-2.862 3.534H641.08c-.176-.089-.352-.16-.529-.248l-3.092.142c.124-.548.265-1.114.389-1.661.071-.318.159-.636.23-.954.052-.212.106-.424.141-.619.017-.07.035-.141.053-.194.035-.194.088-.371.124-.548a704.475 704.475 0 012.402-9.487c0-.018 0-.018.018-.035 6.343-24.081 14.752-47.843 26.5-69.574.354-.653.707-1.325 1.096-1.978a204.389 204.389 0 0118.356-27.844 180.793 180.793 0 0112.032-13.763 150.265 150.265 0 0137.595-28.161c27.774-14.664 59.927-20.282 89.609-11.325.759.23 1.502.459 2.261.707z" fill="#E6E6E6"/><path d="M828.092 408.234c-38.156 7.566-74.143 27.372-100.504 56.055-5.7 6.201-10.942 12.988-14.453 20.689-3.513 7.704-4.503 15.646-3.727 24.026.709 7.661 2.322 15.415 1.157 23.115-1.229 8.116-6.048 14.756-12.8 19.27-8.261 5.522-18.014 7.746-27.628 9.59-10.673 2.048-21.792 4.005-30.701 10.672-1.079.808-2.269-.914-1.192-1.721 15.499-11.599 36.269-9.165 53.224-17.354 7.912-3.821 14.72-10.049 16.679-18.903 1.714-7.741.058-15.739-.727-23.49-.824-8.138-.263-15.961 2.769-23.628 3.1-7.842 8.088-14.848 13.604-21.168a181.458 181.458 0 0143.783-36.051 190.344 190.344 0 0160.356-23.189c1.318-.262 1.47 1.827.16 2.087z" fill="#fff"/><path d="M735.662 454.513a28.064 28.064 0 01.643-36.332c.894-1.008 2.502.333 1.607 1.342a25.989 25.989 0 00-.529 33.798c.859 1.037-.867 2.223-1.721 1.192zm-27.126 50.654a54.091 54.091 0 0038.04-10.33c1.082-.804 2.273.918 1.192 1.721a56.26 56.26 0 01-39.606 10.668c-1.341-.149-.96-2.208.374-2.059zm78.044-84.193a15.888 15.888 0 0012.479 8.453c1.342.132.96 2.191-.374 2.06a17.804 17.804 0 01-13.826-9.321 1.085 1.085 0 01.264-1.456 1.054 1.054 0 011.457.264z" fill="#fff"/><path d="M88.603 473.83c4.12-33.124 24.648-65.76 56.239-76.54a153.79 153.79 0 00.007 105.588c4.854 13.13 11.621 27.229 7.055 40.463-2.841 8.234-9.791 14.534-17.56 18.473-7.769 3.94-16.391 5.817-24.905 7.657l-1.676 1.386c-13.516-30.52-23.28-63.902-19.16-97.027z" fill="#E6E6E6"/><path d="M145.155 397.916a131.443 131.443 0 00-32.678 73.98c-.574 5.891-.644 11.917.644 17.724a32.468 32.468 0 008.074 15.059c3.64 3.999 7.826 7.667 10.43 12.481 2.745 5.074 2.85 10.839.971 16.229-2.299 6.594-6.83 11.969-11.445 17.072-5.123 5.665-10.534 11.468-12.711 18.978-.264.91-1.661.447-1.397-.461 3.789-13.067 16.473-20.489 22.522-32.258 2.823-5.492 4.008-11.868 1.361-17.665-2.314-5.069-6.627-8.856-10.347-12.873-3.906-4.218-6.901-8.846-8.444-14.43-1.578-5.712-1.744-11.754-1.323-17.634a127.51 127.51 0 019.314-38.755 133.784 133.784 0 0124.056-38.551c.629-.704 1.598.404.973 1.104z" fill="#fff"/><path d="M112.874 462.993a19.722 19.722 0 01-15.013-20.659c.075-.944 1.545-.872 1.47.073a18.268 18.268 0 003.455 12.183 18.27 18.27 0 0010.549 7.006c.921.219.454 1.615-.461 1.397zm6.208 39.902a38.014 38.014 0 0016.974-21.892c.267-.909 1.664-.447 1.397.461a39.534 39.534 0 01-17.71 22.745c-.815.484-1.473-.833-.661-1.314zm8.171-80.267a11.167 11.167 0 0010.579-.537c.81-.494 1.466.824.662 1.314a12.509 12.509 0 01-11.702.62.756.756 0 01-.468-.929.742.742 0 01.929-.468z" fill="#fff"/><path d="M241.134 456.454c-.496.322-.993.645-1.49.98a147.019 147.019 0 00-18.798 14.676c-.459.41-.919.832-1.366 1.254a155.002 155.002 0 00-33.66 46.077 150.506 150.506 0 00-8.244 21.331c-3.043 10.094-5.538 21.281-11.56 29.538a25.64 25.64 0 01-2.012 2.483h-54.42c-.124-.062-.248-.111-.372-.173l-2.173.099c.087-.385.186-.782.273-1.167.05-.224.112-.447.162-.671.037-.149.074-.298.099-.434.012-.05.025-.099.037-.137.025-.136.063-.261.087-.385.547-2.222 1.11-4.445 1.689-6.667 0-.013 0-.013.012-.025 4.458-16.923 10.368-33.623 18.624-48.895.249-.459.497-.931.77-1.391a143.702 143.702 0 0112.901-19.568 127.097 127.097 0 018.455-9.672 105.591 105.591 0 0126.422-19.791c19.518-10.306 42.115-14.254 62.975-7.959.534.161 1.056.323 1.589.497z" fill="#E6E6E6"/><path d="M241.011 457.144a131.449 131.449 0 00-70.633 39.394c-4.005 4.358-7.689 9.128-10.157 14.54a32.459 32.459 0 00-2.619 16.885c.498 5.384 1.631 10.834.812 16.245-.863 5.704-4.25 10.371-8.995 13.542-5.806 3.881-12.66 5.445-19.416 6.741-7.501 1.438-15.316 2.814-21.576 7.5-.759.567-1.595-.643-.838-1.21 10.892-8.152 25.489-6.441 37.405-12.196 5.56-2.685 10.344-7.063 11.722-13.284 1.204-5.441.04-11.062-.512-16.509-.579-5.719-.184-11.218 1.946-16.605 2.179-5.512 5.684-10.435 9.561-14.877a127.538 127.538 0 0130.77-25.336 133.792 133.792 0 0142.417-16.297c.926-.184 1.033 1.285.113 1.467z" fill="#fff"/><path d="M176.054 489.668a19.72 19.72 0 01.452-25.533c.628-.708 1.758.234 1.129.943a18.265 18.265 0 00-.372 23.753c.604.729-.609 1.563-1.209.837zm-19.065 35.598a38.01 38.01 0 0026.734-7.26c.76-.565 1.597.645.838 1.209a39.538 39.538 0 01-27.835 7.498c-.942-.104-.675-1.551.263-1.447zm54.85-59.168a11.165 11.165 0 008.77 5.94c.944.093.675 1.54-.263 1.448a12.507 12.507 0 01-9.716-6.551.761.761 0 01.185-1.023.74.74 0 011.024.186z" fill="#fff"/><path d="M359.934 555.296l-14.027 4.058-22.329-52.174 20.703-5.99 15.653 54.106z" fill="#9E616A"/><path d="M393.482 366.215l-14.472 15.436s-76.217 33.768-76.217 51.134 18.331 92.618 26.049 98.407c4.649 3.506 2.547 7.281 4.854 12.628l26.984-9.734s-1.93-5.789 0-8.683c1.929-2.894 0-4.824 0-4.824s-2.895.965-1.93-1.929c.965-2.895.965-3.859 0-4.824-.965-.965-3.859-9.648-3.859-9.648s.965-34.732-12.542-47.274c0 0 62.71-18.331 70.429-30.873 7.718-12.542 9.647-57.887 9.647-57.887l-28.943-1.929zm-27.829 197.079l-46.741 9.646-.122-.591a18.578 18.578 0 0114.437-21.948h.001l7.201-8.24 17.267 3.19 4.081-.842 3.876 18.785z" fill="#2F2E41"/><path d="M410.963 496.697l-17.901 12.001 37.138 42.913 12.129-8.132-31.366-46.782z" fill="#9E616A"/><path d="M437.702 339.622c-9.561-20.16 19.584 39.451 15.725 57.913-3.013 14.415-59.291 60.313-59.291 60.313 16.957 7.225 27.815 40.23 27.815 40.23s5.665 7.19 6.899 7.77c1.235.581 1.562 1.489 1.634 4.539.073 3.05 2.47 1.162 2.47 1.162s2.469 1.162 1.634 4.539c-.835 3.376 2.941 8.169 2.941 8.169l-20.86 19.448c-3.981-4.249-4.514-9.662-10.075-11.386-9.223-2.831-51.963-67.425-57.846-83.764-5.883-16.339 54.389-73.929 54.389-73.929l5.118-28.504 29.447-6.5zm10.74 218.249l-44.905 16.166-.205-.568a18.581 18.581 0 0111.186-23.771h.001l5.962-9.176 17.544.713 3.92-1.411 6.497 18.047z" fill="#2F2E41"/><path d="M403.48 243.321l-12.999 9.898-34.53 9.145s12.373 86.835 6.533 92.674c-5.839 5.84-.573 5.997-1.746 13.583s-4.025 23.136-4.025 23.136c39.417 20.865 73.399 21.425 100.695-2.991a6.797 6.797 0 00-3.71-7.674c-5.08-2.695 4.684-15.277.532-17.381-4.152-2.103 1.688-20.352 1.688-20.352l12.655-59.746-33.661-26.336-5.119-12.334-26.313-1.622z" fill="#8D8D92"/><path d="M419.701 320.916a4.497 4.497 0 100-8.995 4.497 4.497 0 000 8.995z" fill="#F2F2F2"/><path d="M416.788 237.812c14.201 0 25.712-11.512 25.712-25.712 0-14.201-11.511-25.712-25.712-25.712-14.2 0-25.712 11.511-25.712 25.712 0 14.2 11.512 25.712 25.712 25.712z" fill="#9E616A"/><path opacity=".1" d="M454.229 312.831l4.249 3.187 2.125-14.874-6.374 11.687z" fill="#000"/><path d="M357.988 262.279s-5.313-1.062-8.5 8.5c-3.187 9.562-19.187 59.916-19.187 66.291s77.095 20.272 77.095 20.272l-7.573-26.567-35.02-10.956-6.815-57.54z" fill="#8D8D92"/><path d="M410.772 353.403c6.854 0 12.409-5.556 12.409-12.409 0-6.853-5.555-12.409-12.409-12.409-6.853 0-12.409 5.556-12.409 12.409 0 6.853 5.556 12.409 12.409 12.409z" fill="#9E616A"/><path opacity=".1" d="M367.086 307.175l.971 13.16 30.827 16.18-27.418-18.391-4.38-10.949z" fill="#000"/><path d="M439.621 301.994h-.4v-10.955a6.35 6.35 0 00-3.914-5.858 6.334 6.334 0 00-2.426-.483h-23.21a6.338 6.338 0 00-6.341 6.341v60.101a6.338 6.338 0 006.341 6.341h23.21a6.334 6.334 0 004.483-1.857 6.35 6.35 0 001.857-4.484v-41.348h.4v-7.798z" fill="#F0F0F0"/><path d="M468.573 283.612s3.188 2.125 5.313 11.687c2.124 9.563 15.937 45.687 10.624 54.186-5.312 8.5-6.88 17.572-24.942 4.822l-24.994-22.884 18.062-16.999 7.437 5.312 8.5-36.124zm-47.013 27.873a5.313 5.313 0 10.001-10.625 5.313 5.313 0 00-.001 10.625z" fill="#8D8D92"/><path d="M436.938 330.22c6.854 0 12.409-5.556 12.409-12.41 0-6.853-5.555-12.409-12.409-12.409-6.853 0-12.409 5.556-12.409 12.409 0 6.854 5.556 12.41 12.409 12.41z" fill="#9E616A"/><path opacity=".1" d="M362.801 348.722l38.287 7.168-37.277 1.431-1.01-8.599z" fill="#000"/><path d="M439.425 195.114s6.695-12.798-8.033-13.961c0 0-12.556-11.39-25.354-2.083 0 0-6.981 0-10.798 7.9 0 0-5.49-2.082-6.697 3.49 0 0-4.017 11.635 0 22.106 4.018 10.471 5.352 11.634 5.352 11.634s-2.819-12.994 13.25-14.157c16.068-1.164 30.809-11.23 32.149 1.568 1.339 12.798 2.811 7.016 2.811 7.016s12.718-18.278-2.68-23.513z" fill="#2F2E41"/><path d="M689.156 167.502H481.005a12.033 12.033 0 00-12.032 12.032v50.061a12.03 12.03 0 0012.032 12.032h3.055v9.045a2.774 2.774 0 003.316 2.721 2.772 2.772 0 001.421-.759l11.007-11.007h189.352a12.03 12.03 0 0012.032-12.032v-50.061a12.02 12.02 0 00-3.524-8.508 12.045 12.045 0 00-8.508-3.524z" fill="#3F3D56"/><path d="M689.155 235.521H481.004a5.933 5.933 0 01-5.926-5.926v-50.061a5.934 5.934 0 015.926-5.927h158.091a56.05 56.05 0 0155.987 55.988 5.933 5.933 0 01-5.927 5.926z" fill="#fff"/><path d="M629.782 184.557h-88.968a3.402 3.402 0 00-3.402 3.402v1.067a3.402 3.402 0 003.402 3.402h88.968a3.403 3.403 0 003.403-3.402v-1.067a3.403 3.403 0 00-3.403-3.402z" fill="#8D8D92"/><path d="M648.48 200.301H522.121a3.402 3.402 0 00-3.402 3.402v1.067a3.402 3.402 0 003.402 3.402H648.48a3.402 3.402 0 003.402-3.402v-1.067a3.402 3.402 0 00-3.402-3.402zm0 15.743H522.121a3.402 3.402 0 00-3.402 3.402v1.067a3.403 3.403 0 003.402 3.403H648.48a3.403 3.403 0 003.402-3.403v-1.067a3.402 3.402 0 00-3.402-3.402z" fill="#E6E6E6"/><path d="M819.621 6.173H657.375a9.377 9.377 0 00-9.379 9.379v39.02a9.385 9.385 0 002.747 6.632 9.38 9.38 0 006.632 2.747h2.381V71a2.16 2.16 0 002.585 2.12c.42-.083.805-.289 1.108-.591l8.579-8.58h147.593a9.382 9.382 0 008.664-5.789 9.366 9.366 0 00.714-3.589v-39.02a9.366 9.366 0 00-2.747-6.632 9.386 9.386 0 00-6.631-2.747z" fill="#F2F2F2"/><path d="M819.621 59.19H657.375a4.624 4.624 0 01-4.619-4.618V15.55a4.622 4.622 0 014.619-4.62h123.226a43.688 43.688 0 0143.639 43.64 4.623 4.623 0 01-4.619 4.62z" fill="#fff"/><path d="M772.925 19.467H704.41a3.068 3.068 0 100 6.136h68.515a3.068 3.068 0 000-6.136zm14.572 12.271h-97.66a3.067 3.067 0 000 6.136h97.66a3.068 3.068 0 100-6.136zm0 12.272h-97.66a3.067 3.067 0 000 6.136h97.66a3.068 3.068 0 100-6.136zM456.668 70.47h162.246a9.382 9.382 0 018.664 5.79 9.366 9.366 0 01.714 3.59v39.02a9.369 9.369 0 01-2.747 6.632 9.387 9.387 0 01-6.631 2.747h-2.382v7.049a2.17 2.17 0 01-1.335 1.999 2.17 2.17 0 01-2.357-.469l-8.579-8.579H456.668a9.384 9.384 0 01-8.665-5.79 9.387 9.387 0 01-.714-3.589V79.85a9.385 9.385 0 012.747-6.632 9.38 9.38 0 016.632-2.747z" fill="#F2F2F2"/><path d="M452.049 118.869a43.69 43.69 0 0143.639-43.64h123.226a4.624 4.624 0 014.619 4.62v39.02a4.622 4.622 0 01-4.619 4.62H456.668a4.627 4.627 0 01-4.619-4.62z" fill="#fff"/><path d="M503.362 89.9h68.515a3.068 3.068 0 100-6.135h-68.515a3.068 3.068 0 000 6.135zm-14.572 12.271h97.66a3.068 3.068 0 000-6.136h-97.66a3.068 3.068 0 100 6.136zm0 12.271h97.66a3.068 3.068 0 100-6.135h-97.66a3.067 3.067 0 100 6.135z" fill="#F2F2F2"/></svg>